<?xml version="1.0" encoding="UTF-8"?>
<svg id="Layer_2" data-name="Layer 2" xmlns="http://www.w3.org/2000/svg" viewBox="0 0 99.6 107.05">
  <defs>
    <style>
      .cls-1 {
        fill: #deb5b9;
      }

      .cls-1, .cls-2, .cls-3, .cls-4, .cls-5, .cls-6, .cls-7 {
        stroke-width: .25px;
      }

      .cls-1, .cls-3, .cls-4, .cls-5, .cls-6, .cls-7 {
        stroke: #35201f;
        stroke-miterlimit: 10;
      }

      .cls-2 {
        fill: none;
        stroke: #000;
        stroke-linecap: round;
        stroke-linejoin: round;
      }

      .cls-3 {
        fill: #84424c;
      }

      .cls-4 {
        fill: #bd97c6;
      }

      .cls-5 {
        fill: #fdbdde;
      }

      .cls-6 {
        fill: #fd6f77;
      }

      .cls-7 {
        fill: #35201f;
      }
    </style>
  </defs>
  <g id="Layer_1-2" data-name="Layer 1">
    <g>
      <path class="cls-2" d="M45.09,79.02l.17-.04.46-.16.16-.05M43.01,79.18h.13s.28.04.28.04M41.4,78.59l.18.11.09.05M39.95,76.95l-.03-.06M39.61,75.47l.03.28.06.39M38.78,72.72l.21.15.05.04.02.02.18.12.18.13.16.09M38.23,71.88v-.04M38.13,71.57v.02s.02.03.02.03M38.29,70.62h0s-.13.38-.13.38l-.03.11-.02.12v.06M38.29,69.69l.03.02.06.05M37.61,67.39l.09-.27.02-.04v-.02s.01-.01.01-.01M37.45,56.85h0s-.01.03-.01.03v.06s-.04.08-.04.08M37.58,54.36l-.15-.58-.04-.11h0M36.81,51.06v-.11M37.73,46.03l-.07.18M38.77,45.64l-.02-.56M42.77,52.59l-.28-.08-.18-.05-.19-.08-.15-.06-.05-.02-.04-.02h-.02v-.02M48.61,51.18l-.02-.03-.07-.14M48.61,45.8h.03s.04.04.04.04M51.11,49.65l-.04-.13M49.65,57.03l-.24.29M45.61,61.42l.04-.05.17-.24M39.95,76.95l-.03-.06M39.61,75.47l.03.28.06.39M43.85,65.63l.06-.32h0v-.02M45.2,74.26l-.06-.11-.11-.2M38.23,71.88v-.04M38.13,71.57v.02s.02.03.02.03M38.29,69.69l.03.02.06.05M37.61,67.39l.09-.27.02-.04v-.02s.01-.01.01-.01M46.26,73.66h0s.01.09.01.09v.13s.01.09.01.09M38.78,72.72l.21.15.05.04.02.02.18.12.18.13.16.09M49.41,64.41h.02s.08-.07.08-.07M53.32,62.23l-.25.15-.15.08M45.09,79.02l.17-.04.46-.16.16-.05M43.01,79.18h.13s.28.04.28.04M41.4,78.59l.18.11.09.05M54.36,61.55l.09-.06.12-.1M38.29,70.62h0s-.13.38-.13.38l-.03.11-.02.12v.06M55.33,62.27l.2-1.66h0M53.46,68.09l-.08.17M37.45,56.85h0s-.01.03-.01.03v.06s-.04.08-.04.08M48.61,45.8h.03s.04.04.04.04M36.81,51.06v-.11M37.73,46.03l-.07.18M50.4,72.64l.79-1.01h0M47.2,77.78l.12-.19.06-.08h0M37.58,54.36l-.15-.58-.04-.11h0M49.41,64.41h.02s.08-.07.08-.07M53.32,62.23l-.25.15-.15.08M38.77,45.64l-.02-.56M48.61,51.18l-.02-.03-.07-.14M42.77,52.59l-.28-.08-.18-.05-.19-.08-.15-.06-.05-.02-.04-.02h-.02v-.02M51.11,49.65l-.04-.13M49.65,57.03l-.24.29M45.61,61.42l.04-.05.17-.24M47.2,77.78l.12-.19.06-.08h0M43.85,65.63l.06-.32h0v-.02M45.2,74.26l-.06-.11-.11-.2M46.26,73.66h0s.01.09.01.09v.13s.01.09.01.09M55.33,62.27l.2-1.66h0M53.46,68.09l-.08.17M54.36,61.55l.09-.06.12-.1M50.4,72.64l.79-1.01h0M56.77,32.28l-.07-.26M57.22,33.56l-.03.09M64.53,32.14l-.03.06M64.62,31.65l-.08.46M63.22,36.88h-.06M62.23,36.84h-.04M63.42,37.51l-.11-.05M63.75,37.7l.13.08.04.03M64.61,64.3h0s.01-.04.01-.04l.03-.05M69.33,66.34l-.07.05M61.95,68.01l.2-.14.48-.35M60.47,69.23l.04-.03.08-.06M52.73,87.15l.22-1.94.04-.32M55,75.39l-.28.5M65.98,49.66l-.03.74M61.22,51.51l-.07.05M55.16,40.41l.03-.16.09-.36M64.53,32.14l-.03.06M64.62,31.65l-.08.46M63.22,36.88h-.06M62.23,36.84h-.04M47.69,43.76l-.34.21M46.4,44.68l.1-.08.43-.34M63.42,37.51l-.11-.05M63.75,37.7l.13.08.04.03M64.61,64.3h0s.01-.04.01-.04l.03-.05M52.73,87.15l.22-1.94.04-.32M69.33,66.34l-.07.05M61.95,68.01l.2-.14.48-.35M60.47,69.23l.04-.03.08-.06M51.32,36.17l.14.06.13.06M55,75.39l-.28.5M51.32,36.17l.14.06.13.06M65.98,49.66l-.03.74M70.4,38.44l-.28-.29M61.22,51.51l-.07.05M55.16,40.41l.03-.16.09-.36M47.69,43.76l-.34.21M46.4,44.68l.1-.08.43-.34M47.4,31.3h0s.01.05.01.05l.05.11M47.4,31.3h0s.01.05.01.05l.05.11M64.49,32.23h0v.05M64.01,32.03l.03-.07v-.03M63.81,33.17h0s-.02.08-.02.08v.06M64.04,31.93v-.06M63.82,33.02v.15M64.38,32.51l.09-.18.02-.05M47.4,31.3l-.22-.99M51.09,35.48l-.26-.16M39.92,76.89l-.16-.5M39.73,76.3v-.1M39.7,73.35l-.09-.06M51.63,36.3h.05s.12.05.12.05M38.22,71.84l-.04-.07M38.15,71.62h0v.09M37.3,68.19l.04-.14h0M37.49,67.7l-.12.27M36.39,65.19l.04.03h.03M37.4,57.02l-.08.21M37.29,53.26l.08.3.02.1M57.34,37.3l-.34.25M36.78,50.6h0v.2h0s.02.15.02.15M37.44,46.7l.05-.14.04-.09M55.15,40.47l-.02.21M55.33,41.84l.2.64.12.32M38.83,46.47l-.06-.83M43.37,52.63l-.6-.05M43.47,52.63h.03s.03.01.03.01M65.95,50.76v.22M51.07,49.52l-.46-.94M50.3,56.09l.28-.54.09-.17h0M48.74,58.05l.07-.07.11-.13.13-.15.36-.38M44.71,63.03l.35-.7.11-.22.06-.1.31-.49.07-.09h0M45.2,74.26l.36.55.23.35M48.74,64.97l.62-.51.05-.04M50,64.02l-.16.11-.25.15-.02.02h-.01M52.92,62.47h-.04M54.6,61.36l.04-.03.03-.02M68.56,66.74l-.71.21M55.33,62.27l-.04.33M50.4,72.64l-1.02,1.39-.19.28M48.61,75.16l.03-.03.02-.02h0M48.43,75.44l-.14.23M64.78,38.53l-.16-.14M63.75,37.7l-.2-.11M62.29,36.82l-.06.02M63.55,37.59l-.13-.08M64.62,38.39l-.06-.07-.12-.12h-.02s-.02-.02-.02-.02M66.44,55.84l.12-1.22h0M66.28,57.14l.1-.57.06-.67M66,58.82l.07-.31.1-.62M64.35,65.15l.25-.82v-.02s.01-.01.01-.01M47.51,77.13l-.02.06v.04M49.19,74.31h0s-.24.33-.24.33l-.29.46M51.81,70.77l.51-.75.41-.59h0M53.69,67.65l-.23.43M60.71,69.02l-.12.12M47.92,65.88l.12-.17.02-.02h0M46.26,73.66l-.05-.89M46.46,75.47l-.17-1.39M54.24,79.59l-.43,1.48M43.91,65.3l.03-.16.28-.94M48.74,58.05l-.68.64-.19.19-.02.03M51.07,54.44l-.12.29M51.14,49.73l-.03-.08M53.95,77.44l-.62,1.56M48.68,45.84l.03.03.06.08M65.95,50.76v-.36M45.36,52.51l-.99.09-.4.02-.37.02M41.42,52.05l.11.05h.01l.04.02.09.04.1.05.09.04M37.66,46.22l-.13.26M36.75,49.82l.03-.27h0M37.18,52.92h0s.11.34.11.34M56.72,37.77l-.1.08M36.39,65.19l-.07-.04-.12-.1-.07-.06-.15-.12M36.46,65.23l.06.04.04.03.1.06M38.29,69.69l-.06-.02M39.61,73.3l-.03-.03M51.93,36.4l-.13-.05M39.61,75.47v-.88l.03-.15h0M39.72,76.2l-.02-.06M40.25,77.51h0s.1.15.1.15M42.25,79.01l-.12-.05-.46-.2M43.01,79.18l-.32-.06M44.7,79.11l.11-.02h.01l.11-.02.16-.05M49.35,106.82l-.15.03h-.06M48.71.15l.12-.03h.03M48.21.18l.13-.03h.09M42.37,106.91h-.06l-.12-.03"/>
      <path class="cls-7" d="M99.45,67.22v-.56l-.03-.18v-.19l-.03-.17v-.19l-.03-.18v-.18l-.03-.19v-.18l-.03-.17v-.18l-.03-.19-.03-.14v-.19l-.03-.19-.03-.18-.04-.19-.03-.18v-.21l-.06-.36-.03-.19-.03-.21-.03-.19-.03-.18-.03-.23-.03-.18-.06-.21-.03-.18-.03-.23-.04-.18-.06-.25-.03-.21-.06-.25-.03-.24-.06-.25-.03-.21-.06-.24-.06-.23-.04-.21-.06-.25-.06-.2-.03-.25-.06-.24-.12-.5-.07-.24-.06-.25-.06-.21-.06-.25-.06-.22-.06-.25-.06-.2-.07-.29-.09-.25-.06-.27-.06-.25-.09-.27-.06-.24-.1-.29-.06-.24-.09-.27-.09-.29-.06-.27-.1-.27-.09-.29-.09-.26-.09-.29-.06-.25-.1-.27-.09-.27-.09-.29-.09-.26-.09-.29-.1-.27-.12-.27-.09-.29-.09-.27-.1-.28-.12-.27-.09-.28-.09-.27-.13-.32-.09-.27-.12-.24-.09-.25-.1-.28-.09-.25-.12-.25-.09-.27-.13-.27-.12-.28-.09-.27-.12-.29-.13-.26-.24-.57-.13-.26-.09-.25-.12-.29-.12-.24-.13-.25-.12-.27-.12-.25-.1-.27-.12-.24-.12-.25-.12-.29-.16-.24-.09-.25-.12-.23-.13-.25-.12-.25-.12-.24-.12-.25-.13-.24-.15-.25-.12-.25-.13-.25-.12-.25-.15-.24-.13-.27-.12-.22-.12-.21-.13-.25-.12-.22-.12-.21-.12-.25-.13-.21-.12-.22-.12-.25-.16-.2-.12-.25-.12-.21-.13-.23-.15-.24-.12-.21-.12-.22-.13-.19-.12-.2-.12-.23-.13-.21-.15-.25-.15-.2-.13-.25-.15-.23-.15-.24-.13-.25-.15-.2-.15-.23-.13-.21-.15-.25-.12-.2-.16-.23-.12-.2-.15-.23-.16-.2-.12-.23-.15-.21-.16-.25-.15-.21-.12-.22-.16-.21-.15-.22-.12-.18-.16-.21-.15-.23-.12-.18-.13-.17-.15-.23-.12-.18-.16-.21-.12-.18-.15-.23-.16-.2-.15-.19-.16-.21-.15-.23-.15-.2-.16-.23-.12-.18-.15-.19-.13-.18-.15-.19-.12-.18-.16-.17-.12-.2-.15-.17-.16-.23-.15-.2-.18-.19-.16-.22-.15-.19-.12-.18-.16-.19-.15-.21-.16-.18-.15-.19-.15-.18-.16-.19-.12-.14-.15-.19-.16-.18-.12-.19-.15-.16-.16-.17-.15-.2-.12-.17-.16-.19-.15-.18-.15-.16-.16-.19-.15-.14-.12-.19-.16-.16-.15-.19-.16-.18-.18-.21-.18-.19-.16-.2-.18-.19-.19-.22-.18-.19-.16-.18-.15-.19-.18-.18-.16-.19-.18-.17-.15-.18-.37-.37-.16-.19-.37-.37-.15-.18-.18-.19-.16-.19-.18-.14-.16-.19-.18-.18-.18-.19-.19-.18-.18-.19-.19-.18-.58-.58-.22-.25-.21-.22-.25-.21-.18-.18-.22-.23-.21-.18-.4-.4-.22-.18-.21-.21-.22-.19-.21-.22-.22-.19-.21-.2-.22-.19-.24-.22-.22-.19-.21-.21-.22-.18-.21-.19-.22-.18-.21-.15-.22-.18-.21-.19-.22-.18-.21-.18-.22-.19-.21-.15-.22-.2-.21-.17-.22-.17-.22-.18-.18-.14-.21-.17-.22-.18-.21-.12-.19-.15-.18-.16-.22-.15-.18-.12-.19-.15-.21-.17-.19-.12-.18-.12-.19-.12-.18-.13-.18-.12-.19-.12-.15-.13-.16-.08-.18-.12-.15-.1-.16-.09-.18-.12-.16-.1-.15-.09-.15-.08-.16-.11-.15-.08-.15-.1-.16-.06-.15-.08-.19-.13-.15-.1-.18-.06-.16-.08-.18-.11-.16-.08-.18-.1-.15-.08-.16-.06-.12-.07-.15-.06-.13-.06-.15-.06-.12-.06-.16-.07-.12-.06-.15-.06-.16-.06-.12-.07-.15-.06-.16-.06-.12-.02-.15-.06-.13-.07-.15-.04-.15-.06-.13-.06-.12-.02-.12-.04-.16-.06-.12-.02-.12-.04-.16-.06-.12-.03-.12-.04-.13-.02-.12-.04-.12-.02-.15-.04-.13-.02-.12-.04-.12-.02-.13-.04-.12-.02-.12-.04h-.13l-.12-.02-.12-.04h-.12l-.13-.03-.12-.04h-.12l-.13-.02h-.12l-.12-.04h-.12l-.16-.02h-.12l-.12-.04h-.4l-.13-.02h-1.87l-.12.02h-.31l-.12.04h-.22l-.12.02h-.12l-.13.04h-.15l-.12.02h-.13l-.12.04-.12.03h-.03l-.16.04h-.06l-.12.02h-.09l-.13.04-.15.02-.12.04-.13.02-.12.04-.12.02-.13.04-.12.02h-.05s-.04.04-.04.04l-.15.02-.13.04-.12.03-.15.06-.13.04-.15.02-.12.06-.13.04h-.05s-.1.06-.1.06l-.12.02-.13.06-.15.04-.12.07h-.06s-.1.06-.1.06l-.09.02h-.03l-.08.02-.04.02-.06.02-.13.06-.15.07-.12.05-.13.07-.15.06-.15.07-.16.06-.12.06-.15.06-.1.05-.06.04-.15.06-.09.04-.06.02-.16.1-.12.06-.06.02-.16.1h-.04s-.08.07-.08.07l-.18.08-.1.05-.09.05-.15.06-.15.13-.19.08-.06.02-.06.04-.16.1-.15.08-.18.11-.16.08-.15.13-.19.08-.03.03-.09.07-.18.09-.19.12-.03.03-.09.07-.12.07-.06.06-.16.08-.18.12-.05.04-.08.06-.06.02-.09.06-.09.07-.19.12-.18.12-.09.06-.16.13-.12.1-.21.15-.19.12-.18.15-.22.16-.18.15-.06.04-.07.06-.11.07-.16.13-.22.17-.03.02-.21.16-.22.19-.21.14-.19.15-.06.06-.15.14-.11.07-.11.1-.21.17-.22.18-.21.18-.22.19-.21.18-.22.15-.18.18-.22.19-.21.18-.25.21-.15.17-.22.18-.06.06-.21.19-.13.12-.21.19-.12.08-.07.06-.15.16-.03.02-.19.19-.18.15-.03.04-.37.37-.03.02-.21.19-.16.16-.18.18-.06.07-.13.12-.24.2-.06.07-1.79,1.79-.15.18-.19.19-.03.02-.12.12-.18.19-.16.19-.18.18-.12.13-.19.2-.03.04-.15.15-.03.04-.16.18-.18.19-.19.18-.15.17-.18.19-.16.18-.15.19-.19.18-.15.17-.03.02-.03.05-.12.17-.19.19-.18.2-.09.1-.16.19h0s-.08.11-.08.11l-.17.16-.02.02-.15.19-.12.16-.16.19-.03.02-.15.18-.05.06-.04.07-.16.16-.15.18-.15.19-.1.12-.09.11-.12.14-.15.17-.13.16-.15.19-.15.18-.13.19-.15.14-.15.19-.16.18-.05.06-.1.17-.1.12-.02.02-.16.21-.15.19-.16.18-.1.13-.14.22-.06.06-.16.19-.09.13-.06.07-.15.23-.16.17-.12.16-.03.04-.06.09-.16.18-.06.08-.09.13-.03.06-.09.11-.06.07-.03.04-.1.15-.05.07-.07.11-.15.19-.03.04-.16.2-.03.06-.12.17-.02.02-.07.13-.16.19-.13.18-.02.02-.03.06-.09.12-.07.11-.12.14-.09.16-.04.07-.02.02-.03.04-.06.08-.14.18-.02.03-.03.08-.09.1-.06.07-.13.18-.12.23-.15.21-.1.12-.02.04-.13.2-.14.18h-.01s-.03.07-.03.07l-.09.12-.02.04-.11.19-.12.17-.06.1-.03.06-.03.04-.13.17-.15.23-.12.2-.13.19-.03.04-.03.03-.12.17-.09.17-.03.06-.06.08-.07.1-.05.07-.1.2-.15.21-.13.23-.15.2-.15.25-.13.22-.3.5-.06.07-.07.13-.1.14-.05.11-.12.21-.16.23-.12.24-.15.21-.1.16-.03.06-.12.25-.05.07-.04.07-.12.23-.06.07v.02s-.13.2-.13.2l-.09.17-.08.13-.04.07-.13.25-.1.14-.08.17-.12.22-.1.15-.03.06-.12.25-.12.21-.08.14v.02s-.14.21-.14.21l-.03.06-.12.24-.05.08-.04.11-.13.24-.12.23-.15.27-.13.25-.12.25-.12.24-.12.25-.13.24-.03.07-.09.18-.03.06-.09.19-.13.23-.12.25-.12.24-.06.13-.07.16-.12.25-.11.2v.04s-.04.08-.04.08l-.09.19-.13.25-.05.12-.07.19-.12.21v.03s-.03.03-.03.03l-.07.18-.12.29-.12.25-.06.12-.06.14-.13.28-.02.06-.07.23-.12.26-.12.29-.1.21-.03.06-.03.1-.09.18-.09.27-.03.06-.02.06-.08.19-.04.09-.05.12-.06.12-.06.19-.09.24-.05.11-.05.12-.09.24-.03.07-.02.04-.07.19-.05.14-.04.15-.08.16v.04s-.06.11-.06.11l-.08.24-.09.27-.02.05v.05s-.1.25-.1.25l-.09.26-.1.25-.09.25-.09.27-.09.29-.1.26-.09.29-.09.27-.09.27-.03.08-.06.17-.06.16-.04.19-.09.24-.02.07-.04.18-.07.2-.02.11-.09.23-.1.29-.06.27-.09.24-.06.29-.09.27-.03.06-.04.18-.05.17-.04.14-.06.25-.03.09-.03.12-.05.16-.04.19-.06.24-.07.25-.06.2-.06.25-.03.13-.03.12-.03.13-.06.24-.03.09-.03.16-.07.25-.06.24v.02l-.06.25-.06.21v.04s-.03.18-.03.18l-.05.19v.02s-.01.04-.01.04l-.06.25-.03.18v.03l-.07.24v.05s-.03.14-.03.14l-.05.22v.02s-.01.04-.01.04l-.06.25-.03.17v.06s-.03.19-.03.19l-.04.14-.02.15-.03.18-.03.2-.03.08v.05l-.04.18-.03.23-.03.18-.03.19-.03.21-.03.19-.03.18-.03.18v.07l-.03.2-.03.19-.03.18-.03.18v.13l-.03.19v.08l-.03.19v.06l-.04.18v.17l-.03.18v.15l-.03.18v.18l-.03.17v.23l-.03.19v.24l-.03.19v.67l-.03.17v1.4l.03.17v.51l.03.19v.33l.03.16v.19l.03.14v.17l.03.18v.14l.03.19v.16l.04.15.03.19.03.14v.17l.03.18.03.14.03.17.03.18.03.15v.04l.03.12.02.12.04.13.03.17.02.12.04.13.04.16v.07s.03.05.03.05v.02l.03.17.06.18.03.19.06.18.03.14.06.19.03.15.06.2.04.17.06.16.06.19v.02l.06.18.02.11v.02s.07.16.07.16l.02.12.04.13.03.08.04.1.03.06.06.19.06.17.06.19.06.18.06.12.06.19.04.06.06.18.03.11.03.06.06.18.02.07.07.14.04.14.02.04.03.09.07.14.03.09.03.06.06.18.03.09.06.12.03.1.03.06.09.21.04.1.06.12.09.21.03.1.03.06.09.21.09.21.07.19.09.22.03.06.12.21.09.22.1.21.06.12.09.23.03.06.06.15h.01s.12.21.12.21l.09.22.12.25.09.2.13.23.12.24.12.25.12.23.13.25.12.25.12.24.13.23.06.08.06.16.02.02v.04s.1.15.1.15l.09.18.13.23.12.17.03.1.03.07.03.06.06.08.06.1.07.12.06.1.09.15.09.19.12.18.13.18.12.21.03.06.06.09.13.19.12.18.06.12.06.11.12.18.13.19.24.36.13.19.12.17.06.1.06.1.13.15.03.06.09.13.12.14.09.16.13.15.12.16.09.14.12.17.13.12.09.14.12.13.08.12.05.07.12.12.12.15.06.1.03.02.13.16.06.07.12.12.06.08.03.04.13.12.09.13.03.02.12.12.06.07.06.05.13.17.15.14.12.13.16.15.12.16.15.12.13.15.15.12.28.29.15.12.09.12.02.02h.01l.1.07.24.24.16.13.12.1.12.11.02.02.07.04.11.11h.02s.06.05.06.05l.09.09.03.04.12.08.08.09.08.03.12.13.15.1.13.12.15.12.12.09.16.12.15.1.15.12.1.08h.03s.15.13.15.13l.06.06.13.07.09.07h.03s.03.05.03.05l.12.09.16.12.15.1.15.08.16.13.15.1.15.12.16.08.15.11.15.12.16.08.18.1.16.13.15.08.15.1.19.11.15.1.19.09.18.12.19.1.1.08.08.05.15.08.19.12.18.1.19.09.05.05.1.05.18.12.19.08.18.11.1.06.06.02.18.1.06.02.13.06.18.13.06.04.22.08.09.06.18.09.19.1.12.06.06.03.19.1.18.08.09.05.09.05.04.02.12.06.18.11.06.02.13.06.09.04.09.02.16.1.12.06.21.09.22.1.18.08.22.1.18.09.22.1.21.08.13.06.09.03.21.1.06.02.13.08.1.03.14.06.19.08.21.1.19.06.12.07.09.02.19.06.18.1.15.06.07.02.18.06.22.11.09.02.09.04.09.02.19.06.15.06.18.06.15.07.07.03.18.07.22.06.06.02.09.04.19.06.18.06.16.07.09.02.18.06.19.06.18.06.19.07.18.02.18.06.22.06.04.03h.08s.19.08.19.08l.09.02.12.04.12.02.14.04.08.02.05.03h.07s.13.04.13.04l.12.03.09.02.18.04.07.02h.03s.12.04.12.04l.15.03.05.02.08.02.15.02.15.04.07.02.15.04.15.02h.06l.13.04.12.02h.03l.15.04.16.02.15.04.16.02.12.05.12.02h.12l.16.04.12.02h.09l.16.04h.06l.12.02.15.04h.13l.12.02h.15l.13.04.15.02h.12l.13.04h.24l.13.02h.12l.12.04h.25l.12.02h.15l.16.05h.27l.13.02h.24l.16.04h.43l.12.02h.49l.12.04h.65l.12.02h1.23l.09.03h.06s3.17.01,3.17.01l.15-.04h1.91l.12-.02h1.45s.09-.04.09-.04h1.1l.13.04h1.38l.15.02h1.91l.12.04h3.23l.12-.04h1.2l.12-.02h.71l.12-.04h.43l.13-.02h.49l.12-.04h.22l.12-.02h.37l.12-.05h.12l.13-.02h.24l.13-.04h.12l.12-.02h.22l.12-.04h.15l.13-.02.15-.04h.12l.13-.02h.15l.15-.04.16-.02.15-.04h.15l.16-.02.15-.04.15-.02.16-.05.15-.02.16-.04.12-.02.15-.04.16-.02.15-.04h.12l.16-.02.15-.06.12-.04.19-.02.15-.04.15-.03.19-.06.15-.04.16-.02.18-.06.18-.04.16-.06.18-.02.19-.06.15-.07.19-.04.15-.06.18-.02.19-.06.18-.07.22-.06.18-.06.22-.06.18-.09.19-.06.18-.06.22-.06.18-.06.18-.07.19-.1.18-.06.19-.06.18-.06.16-.06.18-.06.18-.07.19-.08.18-.06.19-.1.18-.06.19-.06.18-.09.22-.1.21-.08.22-.09.21-.1.22-.1.18-.09.22-.08.21-.1.22-.09.18-.1.18-.08.19-.06.18-.1.19-.09.18-.1.19-.06.15-.08.18-.11.19-.08.18-.1.22-.08.18-.13.22-.1.18-.08.22-.13.18-.08.22-.11.18-.12.19-.08.18-.12.21-.11.16-.08.18-.1.19-.12.18-.09.16-.1.18-.12.18-.08.19-.13.18-.1.19-.12.15-.09.19-.1.15-.11.15-.1.19-.08.15-.13.15-.1.16-.08.15-.12.16-.11.15-.08.15-.12.16-.1.15-.08.15-.13.16-.1.15-.12.19-.13.15-.08.15-.13.16-.12.12-.09.15-.12.16-.1.12-.12.15-.09.13-.12.15-.12.12-.1.16-.13.12-.08.15-.12.13-.13.12-.1.12-.12.16-.11.12-.1.12-.13.12-.12.13-.12.15-.09.12-.12.13-.12.12-.13.71-.71.12-.15.15-.13.13-.14.12-.13.15-.16.13-.14.12-.13.12-.16.12-.12.13-.15.12-.16.12-.12.13-.15.09-.12.12-.15.12-.17.13-.14.09-.12.12-.17.12-.14.1-.16.12-.15.12-.12.09-.16.13-.15.09-.16.12-.15.1-.15.12-.16.09-.15.12-.18.13-.18.12-.23.12-.18.12-.19.13-.18.09-.19.12-.17.13-.19.09-.18.12-.18.12-.19.1-.18.12-.19.09-.18.12-.23.1-.17.12-.23.12-.18.09-.21.13-.24.15-.23.12-.24.13-.25.12-.25.12-.23.13-.25.12-.22.09-.25.12-.2.1-.25.12-.22.09-.21.12-.21.1-.23.09-.24.09-.19.09-.2.09-.19.1-.22.09-.19.09-.21.06-.21.09-.18.1-.23.09-.18.06-.21.09-.18.06-.19.1-.18.06-.19.09-.19.06-.18.06-.21.1-.18.06-.19.06-.22.09-.19.06-.18.06-.19.06-.18.07-.17.06-.19.06-.18.06-.19.06-.18.06-.17.07-.18.03-.18.06-.19.06-.17.03-.16.06-.19.03-.19.06-.14.03-.18.07-.19.03-.16.03-.19.06-.14.03-.16.03-.19.03-.15.03-.16.03-.17.03-.16.03-.15.03-.18.03-.17.04-.14.03-.18.03-.17v-.14l.03-.19.03-.15.03-.16v-.19l.03-.14v-.18l.03-.17v-.14l.03-.19v-.16l.03-.17v-.54l.03-.14v-2.1l-.03-.18ZM98.4,68.51l-.03.82-.03.64-.06.79h-.01v.06l-.02.25h-.01v.24s-.03.05-.03.05v.15l-.03.16-.03.19-.12.76-.03.19-.03.14-.18.87h-.01v.02l-.03.17-.06.25-.03.08-.03.16-.09.37-.1.33-.09.33v.02l-.09.33-.06.15-.02.08-.07.22-.06.19-.1.3-.06.19-.06.18-.06.17-.06.17-.06.19-.1.18-.06.18-.06.19-.06.18-.09.19-.06.18-.07.19-.09.18-.12.38-.09.18-.1.19-.06.2-.09.19-.09.18-.06.23-.1.18-.09.21-.09.21-.12.23-.09.24-.1.21-.09.22-.12.21-.09.24-.13.23-.12.23-.09.25-.13.25-.12.24-.12.23-.12.24-.13.25-.12.23-.12.23-.13.25-.12.2-.12.25-.12.22-.13.21-.12.22-.12.19-.1.21-.12.21-.12.22-.12.19-.13.18-.09.19-.24.36-.13.19-.09.15-.09.18-.13.15-.09.16-.09.15-.12.16-.09.14-.13.17-.12.14-.09.19-.13.16-.12.15-.09.16-.12.15-.13.14-.09.13-.12.16-.09.14-.13.13-.12.16-.12.15-.13.16-.12.14-.12.17-.12.14-.16.15-.12.13-.12.16-.13.14-.12.13-.15.16-.13.14-.12.13-.15.16-.13.12-.12.13-.15.14-.13.13-.15.12-.12.15-.12.12-.16.13-.12.12-.12.1-.16.12-.12.13-.12.12-.16.12-.12.08-.15.13-.13.12-.15.12-.12.11-.13.12-.15.09-.12.12-.13.09-.15.12-.15.1-.16.12-.12.09-.15.12-.16.12-.15.1-.15.09-.13.12-.15.1-.15.08-.16.13-.15.1-.16.08-.12.09-.15.14-.16.09-.15.08-.15.1-.16.13-.18.08-.15.1-.19.12-.15.08-.19.13-.18.1-.16.08-.15.12-.18.11-.16.08-.18.1-.19.09-.15.1-.18.11-.16.1-.18.08-.19.11-.18.08-.15.1-.19.08-.18.1-.19.09-.18.12-.19.1-.18.08-.19.11-.18.08-.18.1-.19.08-.18.09-.22.1-.18.1-.19.09-.21.08-.19.1-.21.09-.19.1-.18.06-.18.08-.19.11-.18.06-.19.08-.18.1-.19.06-.18.09-.18.06-.19.1-.18.08-.22.06-.18.1-.19.07-.21.08-.19.06-.18.09-.22.06-.18.06-.22.1-.18.07-.22.08-.36.12-.19.07-.18.06-.19.06-.21.06-.19.06-.15.06-.19.06-.18.07-.18.06-.19.04-.18.06-.22.06-.15.02-.16.06-.18.04-.18.06-.16.03-.18.06-.16.04-.15.06-.15.02-.16.04-.15.02-.15.04-.16.02-.15.03-.15.08h-.16l-.15.02-.12.04-.16.02-.15.04-.13.02-.15.03-.15.04h-.13l-.12.02-.15.04-.12.02h-.16l-.12.04-.16.02h-.12l-.12.04h-.12l-.16.03h-.12l-.12.04h-.16l-.12.02h-.15l-.13.04h-.15l-.12.02h-.13l-.15.04h-.28l-.12.02h-.25l-.12.04h-.27l-.13.02h-.52l-.12.04h-.46l-.13.02h-.89l-.12.04h-5.29l-.15-.04h-1.54l-.15-.02h-2.4l-.15.02h-1.48l-.12.04h-5.32l-.12-.04h-.8l-.12-.02h-.68l-.09-.04h-.37l-.12-.02h-.34l-.12-.04h-.34l-.12-.02h-.25l-.12-.04h-.12l-.1-.02h-.24l-.12-.04h-.13l-.09-.02h-.12l-.16-.04h-.12l-.12-.03h-.13l-.15-.04h-.12l-.12-.02-.13-.04h-.12l-.15-.02-.13-.04h-.12l-.12-.02-.16-.04-.15-.03-.12-.02h-.16l-.15-.04-.15-.02-.13-.04-.15-.02-.12-.04-.16-.04-.12-.03-.15-.02-.16-.04-.15-.06-.16-.02-.18-.04-.15-.02-.16-.06-.15-.04-.18-.07-.16-.02-.18-.06-.16-.04-.18-.06-.15-.02-.16-.06-.18-.04-.19-.06-.18-.07-.19-.06-.21-.06-.19-.06-.36-.12-.19-.06-.18-.07-.19-.08-.18-.06-.19-.06-.24-.07-.22-.1-.21-.08-.22-.07-.21-.08-.22-.1-.21-.09-.22-.06-.18-.1-.22-.08-.21-.1-.22-.09-.18-.06-.22-.1-.21-.08-.19-.1-.21-.09-.22-.1-.18-.08-.22-.1-.18-.09-.18-.06-.16-.1-.18-.09-.19-.08-.18-.06-.16-.11-.18-.08-.15-.06-.22-.12-.18-.1-.22-.09-.18-.12-.19-.1-.21-.08-.19-.11-.18-.12-.22-.08-.18-.1-.18-.13-.19-.08-.18-.1-.16-.09-.18-.12-.15-.09-.19-.1-.18-.08-.19-.13-.15-.1-.19-.12-.18-.08-.15-.11-.19-.12-.15-.08-.16-.1-.15-.08-.15-.13-.16-.1-.15-.08-.15-.09-.16-.14-.15-.09-.16-.08-.15-.1-.15-.13-.13-.08-.15-.1-.15-.12-.16-.13-.15-.08-.15-.12-.16-.1-.15-.13-.12-.08-.16-.1-.12-.12-.12-.09-.16-.12-.12-.09-.15-.12-.13-.11-.12-.12-.12-.08-.13-.13-.15-.1-.12-.12-.12-.08-.13-.13-.12-.1-.12-.12-.13-.12-.12-.09-.12-.12-.13-.12-.12-.09-.12-.16-.15-.13-.13-.12-.27-.27-.13-.16-.15-.13-.12-.14-.13-.12-.12-.17-.12-.12-.13-.14-.12-.13-.12-.16-.12-.11-.1-.14-.12-.15-.12-.12-.09-.15-.13-.12-.12-.16-.09-.13-.13-.14-.09-.16-.12-.13-.09-.14-.13-.13-.09-.16-.12-.15-.09-.14-.13-.17-.09-.12-.09-.14-.12-.17-.1-.14-.09-.16-.12-.15-.09-.16-.09-.15-.13-.16-.09-.15-.09-.19-.13-.14-.09-.18-.12-.19-.09-.18-.13-.19-.09-.18-.12-.19-.09-.19-.13-.18-.09-.19-.12-.18-.12-.21-.1-.18-.09-.19-.15-.24-.12-.25-.13-.25-.12-.21-.12-.25-.13-.24-.09-.23-.12-.24-.12-.25-.1-.21-.12-.22-.09-.21-.12-.21-.1-.22-.09-.21-.09-.23-.09-.2-.1-.18-.09-.23-.09-.17-.09-.23-.09-.18-.07-.19-.09-.2-.09-.19-.06-.22-.09-.19-.1-.18-.06-.19-.06-.17-.09-.18-.06-.19-.06-.18-.1-.19-.06-.18-.06-.23-.09-.18-.06-.19-.06-.18-.07-.17-.06-.19-.06-.18-.27-.86-.07-.2-.03-.09-.03-.11-.09-.31-.09-.35-.19-.7-.02-.12h-.01l-.09-.42-.15-.69-.03-.15-.03-.16-.04-.15v-.03l-.03-.13-.03-.22-.03-.23h0s-.06-.45-.06-.45h0s-.01-.05-.01-.05l-.02-.15v-.04l-.09-1.06-.03-.44v-.06l-.03-1.48v-.52s.03-.68.03-.68l.02-.5h.01v-.07l.03-.5v-.02l.02-.24v-.07s.01-.04.01-.04v-.13s.03-.2.03-.2l.03-.25.03-.28.03-.34v-.05s.02-.03.02-.03v-.11s.01-.01.01-.01v-.05s.09-.58.09-.58v-.05s.04-.23.04-.23l.03-.18.03-.19.03-.18.03-.17.03-.19.03-.22.03-.19.03-.18.03-.19v-.05s.1-.46.1-.46l.02-.06v-.04s.02-.04.02-.04l.11-.55.18-.86.03-.18.02-.08.08-.38.03-.11.03-.11.06-.23.19-.8.3-1.18.68-2.43.09-.3.4-1.28.52-1.63.29-.8.02-.04.06-.19.03-.08.05-.14.34-.94.04-.11.03-.07.42-1.08.65-1.64v-.02s.06-.13.06-.13l.07-.14.03-.1.31-.74.24-.54.21-.48.13-.26.06-.18h0s.15-.33.15-.33v-.02s.13-.25.13-.25l.05-.08.07-.17.02-.03.04-.1.07-.14.08-.17.04-.08.07-.13.08-.18.14-.29.08-.14.12-.24.04-.09h0s.67-1.35.67-1.35h.01s.14-.27.14-.27l.12-.25.1-.19.03-.06.03-.05.18-.34.04-.06.02-.05h.01s.12-.2.12-.2l.12-.23.04-.09v-.04s.29-.51.29-.51v-.03s.11-.19.11-.19l.02-.02.21-.4h.03l.04-.06.12-.22.12-.25.12-.2.13-.23.15-.25.12-.2.13-.23.12-.21.12-.19.13-.2.12-.23.12-.2.16-.23.12-.24.15-.21.16-.25.12-.21.15-.24.16-.25.12-.18.15-.23.13-.2.12-.23.15-.21.16-.25.12-.2.15-.23.13-.21.15-.22.15-.21.16-.22.12-.21.15-.21.13-.23.15-.18.15-.21.13-.22.15-.18.12-.19.13-.18.15-.21.12-.19.16-.21.12-.18.15-.23.16-.2.15-.19.15-.22.16-.21.15-.21.12-.2.16-.17.12-.17.12-.18.16-.18.12-.19.15-.18.16-.21.15-.18.15-.23.16-.21.15-.19.16-.18.15-.19.15-.18.13-.18.15-.21.15-.18.16-.19.15-.19.12-.16.16-.17.12-.18.15-.17.16-.18.15-.19.12-.14.16-.19.15-.18.15-.19.16-.16.12-.17.15-.17.16-.18.12-.14.15-.19.19-.18.15-.19.19-.22.15-.19.19-.21.18-.19.18-.2.16-.16.15-.19.19-.18.15-.19.15-.18.19-.19.15-.18.19-.19.15-.17.37-.37.15-.18.19-.17.15-.18.18-.19.16-.14.18-.19.16-.18.36-.38.19-.18.18-.19.19-.18.21-.21.22-.22.24-.21.22-.22.21-.21.19-.19.21-.18.19-.21.21-.18.22-.19.18-.22.22-.19.21-.18.22-.21.21-.19.25-.21.21-.18.22-.23.21-.18.22-.18.21-.19.22-.18.18-.15.22-.19.21-.19.22-.18.21-.18.22-.15.21-.18.22-.19.21-.16.19-.19.21-.14.22-.15.18-.16.22-.15.18-.16.22-.15.18-.12.19-.16.18-.15.22-.12.18-.16.19-.13.18-.12.15-.12.19-.13.18-.12.19-.11.15-.1.15-.09.16-.12.15-.1.19-.08.15-.11.15-.12.16-.06.12-.08.15-.1.16-.09.15-.1.15-.08.16-.1.15-.06.19-.09.15-.1.15-.09.19-.08.15-.1.15-.07.19-.08.24-.12.13-.06.15-.06.12-.07.13-.06.15-.06.12-.06.13-.04.15-.06.12-.06.13-.07.15-.02.12-.06.16-.06.12-.04.12-.06.16-.06.12-.02.15-.07.16-.04.12-.02.15-.06.13-.04.15-.06.15-.02.13-.04.15-.03.15-.02.13-.06h.12l.12-.04.13-.04.09-.02.12-.04h.12l.13-.03.09-.02h.12l.12-.04.13-.02h.12l.09-.04h.13l.12-.02h.24l.13-.04h.12l.12-.02h.46l.13-.04h1.29l.12.04h.37l.12.02h.22l.12.04h.15l.13.02h.15l.12.04h.16l.12.02.12.04.16.02h.12l.12.03.16.04.12.02.12.04.16.04.12.02.12.04.12.02.13.03.15.04.12.02.13.04.12.06.12.02.13.04.15.06.12.03.16.06.12.04.15.06.12.02.16.06.15.06.13.06.15.04.12.07.16.06.15.06.12.06.16.06.15.06.12.07.16.06.12.08.15.06.13.06.18.09.15.08.16.08.18.09.12.06.16.1.15.09.16.06.15.1.15.08.13.06.18.11.15.12.16.08.15.1.15.08.16.11.18.08.16.12.15.1.15.09.16.12.15.09.15.1.16.12.18.13.19.12.21.15.19.12.18.16.22.13.18.14.22.16.21.15.18.16.22.17.22.16.18.15.18.12.19.17.18.14.19.17.18.14.19.12.18.17.15.14.22.18.21.19.22.15.21.19.19.18.21.19.22.18.18.18.22.17.21.18.19.19.21.18.25.21.21.21.25.23.21.2.22.19.18.18.19.18.21.19.19.18.18.19.22.21.24.23.22.24.21.21.19.18.21.19.19.22.18.19.19.17.21.22.19.19.18.19.18.2.19.18.18.23.22.18.18.21.19.19.18.21.16.18.18.19.15.18.19.19.15.16.16.18.18.19.15.18.16.19.15.17.18.19.16.18.15.16.13.19.15.14.15.19.16.16.15.18.15.19.13.17.15.16.15.19.16.19.12.14.15.18.13.17.15.14.12.19.16.18.15.19.15.18.16.19.12.15.15.18.16.19.12.18.19.23.15.2.15.18.16.23.15.17.15.23.16.18.15.21.15.18.16.23.15.18.16.21.12.18.15.23.16.17.15.23.12.18.16.21.15.18.12.19.16.22.12.17.15.2.13.21.15.21.15.22.16.21.15.22.12.19.13.18.12.21.15.19.13.18.24.38.12.2.13.19.15.22.12.19.13.18.12.21.12.18.13.19.15.21.12.18.13.23.12.18.09.19.15.24.16.21.12.21.15.25.13.22.15.25.12.2.16.23.12.25.12.2.16.23.12.23.12.23.13.2.15.25.12.22.13.21.12.22.12.25.12.21.13.21.04.1h.02l.31.58h.01s.11.22.11.22l.12.21.22.43.4.76.24.5.65,1.3.12.24.12.25.05.1.09.21.32.66.19.42.03.07.05.08.26.58.21.46.12.27.06.16.04.12.12.27.08.17.04.08.03.09.06.15.08.17.05.08.02.06.07.21.07.15.29.76.04.12.02.05.41,1.04.18.5.62,1.73.43,1.25.18.56.1.27.03.1.11.37v.06s.03.04.03.04l.5,1.71.03.08.43,1.57.06.25.02.07.05.17.06.23.27,1.1v.07s.1.35.1.35l.12.53.08.36v.07s.07.24.07.24v.04s.06.19.06.19l.03.14v.04l.04.21.04.12.05.29.03.17.03.23.02.06.1.51.03.18.03.19.03.21.03.2.16,1.07.03.22v.03l.02.09v.09s.07.46.07.46v.09l.03.18.03.19v.18l.03.18.02.1v.27s.01.17.01.17l.02.07.02.26.03.46v.06l.03.65.03.83v.19Z"/>
      <path class="cls-6" d="M96.22,77.36l-.22-.04-.46-.1-.43-.21h-.01l-.05-.02-.16-.12-.24-.19-.37-.37-.25-.31-.02-.04-.07-.08-.09-.16-.19-.28-.27-.57-.22-.62-.15-.62v-.02l-.06-.56v-.41l.03-.43.12-.97.03-.24.03-.25.03-.49.03-.44v-.02l-.03-.35-.06-.33-.12-.16-.15-.15-.19-.16h-.02s-.26-.18-.26-.18l-.12-.09-.18-.16-.16-.15-.3-.39-.03-.04-.22-.46-.06-.24-.06-.19-.06-.47-.03-.48v-.49l.03-.53.03-.48.03-.54v-.06s0-.06,0-.06l-.03-.49v-.08s-.06-.4-.06-.4l-.07-.31-.03-.12-.18-.49-.28-.43-.12.69-.18.71-.04.16-.06.21-.02.06-.04.16-.18.49-.03.09-.28.55-.28.5-.37.43-.03.02-.4.43-.33.35-.4.42-.08.1-.2.21-.46.61.09.17.12.12.22.17.43.25.46.22.4.21.25.12.21.1.34.21.28.25.24.28.16.33.09.44v.43l-.06.49-.13.46-.18.43-.22.33-.24.31-.31.25-.31.16-.37.08-.36-.02-.25-.06-.28-.16-.15-.12-.06-.03-.1-.09-.15-.13-.14-.1-.13-.11-.16-.18-.06-.06-.15-.19-.16-.15-.11-.2-.04-.05-.19-.24-.18-.29-.15-.21-.28-.28-.09-.08-.12-.05h-.09s-.07,0-.07,0l-.13.06-.05.05-.13.12-.3.37-.28.43-.18.31-.1.17-.14.25-.13.22-.06.08-.22.37-.12.13-.16.18-.05.06-.25.23-.31.19-.03.02h-.02l-.04.02-.37.16-.43.07h-.59l-.58-.11-.08-.02-.38-.11-.18-.06-.16-.04-.29-.15-.11-.05-.24-.11-.65-.37-.28-.18-.37-.28-.42-.38-.47-.46-.4-.51-.17-.28-.16-.25-.03-.08-.1-.24-.09-.24-.03-.06-.09-.48-.06-.68.06-.65.12-.58v-.03l.22-.53.11-.15.13-.22.09-.08.25-.27.15-.14.28-.17.37-.19.06-.04.23-.06.23-.08h.03l.53-.1.82-.02h1.65s.53.01.53.01h.19s.59-.05.59-.05h.03l.61-.09.65-.16.64-.21.12-.06.07-.04.15-.06.05-.02.07-.04.09-.06.22-.13.31-.21.24-.18.19-.13.03-.02.12-.12.06-.1.03-.02v-.04l-.03-.03h-.12l-.52.07-.53.12-.58.14-.58.19-.19.05-.46.14-.58.12-.56.09h-.61l-.4-.07-.25-.12-.24-.17-.19-.23-.03-.02-.15-.24-.03-.04-.05-.15-.04-.12-.03-.29h0s.03-.26.03-.26l.09-.13.12-.12.03-.04.16-.11.27-.17.25-.14.34-.17.27-.12.25-.08-.62-.31-.12-.12-.03-.06-.06-.12-.02-.07-.04-.12-.06-.29v-.54l.07-.24.02-.07v-.04l.12-.18.28-.25.37-.18.19-.06.18-.06.55-.09.55-.1.52-.06.47-.03.46-.02.36-.06.8-.14,1.05-.21-.31-.06-.34-.02-.33.02h-.14s-.17.04-.17.04h-.49l-.56-.04-.46-.02-.31-.07-.24-.04h-.08l-.29-.02-.37-.04h-.18l-.53.04-.55.09-.34.1-.37.12-.43.15-.43.12-.33.06-.31.07h-.31l-.27-.07-.25-.12-.15-.15-.13-.22-.09-.27-.03-.35.03-.49.12-.42.19-.37.24-.28.28-.25.37-.18.37-.13.43-.12.7-.08.74-.04h.74l.71.04h.58l.18-.04.19-.03.12-.04.16-.06h.06l.18-.02h.68l.25.05h.12s.19.06.19.06h.08s.65.16.65.16l.06.03h.03s.86.32.86.32l.37.14.46.16.86.25.34.08.37.04h.4l.37-.04.24-.06.22-.12.15-.12.12-.19.1-.24v-.27l-.4-.06h-.43l-.46.06-.43.06-.4.06-.37.02h-.43l-.31-.06h-.03l-.31-.08-.31-.19-.15-.12-.15-.15-.03-.04-.13-.15-.09-.12-.06-.18-.03-.13.03-.22.12-.19.19-.14.37-.23.43-.18.4-.15.09-.02.49-.17h.03l.06-.02.14-.06.14-.06.18-.1.06-.07.13-.08.3-.3.07-.11.06-.08v-.04l-.56.12-.55.17-.12.03-.31.11-.37.12-.12.04-.23.07-.33.08h-.09s-.15.04-.15.04l-.43.06-.46-.04-.46-.08-.46-.17-.19-.08-.21-.12-.37-.19-.28-.16-.27-.08-.16-.06-.07-.02-.05-.02-.12-.02h-.16l-.27.02-.37.12-.4.18-.31.25-.34.31-.37.33-.4.41-.4.37-.27.27-.31.22-.12.07-.19.12h-.02l-.04.02-.16.04-.08.02h-.04l-.24.04-.22-.04-.21-.08-.19-.16-.24-.31-.19-.37-.15-.37-.12-.4-.03-.39v-.31l.09-.36.12-.29.22-.21.24-.15.28-.12.34-.06.49-.07.52-.04.49-.02.46-.04.25-.06h.09s.28-.08.28-.08l.37-.1.31-.07.26-.07.13-.05.31-.08.28-.06.18-.13.22-.16.27-.24.31-.3.31-.31.06-.06.22-.25.12-.12.15-.16.16-.19.03-.02.24-.22.46-.31.43-.21.31-.08.15-.05h.03l.04-.02.36-.04.13-.02h.89l.55.06h.03l.59.05h.03l.58.04.59-.04h.06l.06-.03.12-.02.06-.04.09-.06.04-.02v-.06h-.04l-.43-.19-.37-.22-.06-.02-.06-.04-.43-.27-.06-.05-.31-.18-.33-.14-.34-.12-.37-.11-.4.04-.49.13-.52.2-.47.25-.46.29-.17.12-.23.14-.4.25-.18.1-.22.11-.24.1-.12.06-.37.13-.37.02-.34-.02h-.03l-.31-.1-.15-.05-.09-.04-.06-.02-.22-.08h-.21l-.25.04-.25.1-.27.17-.25.25-.21.28-.22.31-.18.27-.12.18-.16.23-.25.27-.24.25-.31.18-.34.09-.24-.03-.25-.06-.24-.16-.31-.27-.31-.37-.18-.33-.16-.35-.09-.33-.03-.31v-.31l.06-.16.12-.11.16-.12.27-.11.34-.06h.34l.34.04.31.02.24.07.16-.21.05-.05.04-.05.37-.37.03-.08.03-.04.03-.09.06-.1.28-.24.03-.03.08-.04.22-.14.31-.09.09-.04.4-.12.19-.07.43-.08.12-.04.49-.12.56-.27h-.25l-.25-.1h-.01s-.08-.02-.08-.02l-.09-.06-.11-.08-.17-.15-.21-.18-.31-.31-.28-.31-.24-.21-.25-.19-.21-.06h-.25l-.31.06-.33.11-.28.12-.37.12-.34.09-.27.02h-.56l-.2-.03-.32-.08-.06-.04-.24-.08-.22-.1-.09-.02-.53-.31-.18-.16-.19-.13-.12-.12-.43-.39h-.01s-.48-.58-.48-.58l-.03-.05-.43-.57-.34-.61-.21-.63h.77s.09-.02.09-.02l.24-.04h.89l.53.06.16.06.2.03.43.14.53.11.52.1h.61l.42-.02.17-.02.18-.02.3-.02.07-.02h.04s.51-.09.51-.09l.59-.06.55-.06h.03l.52.04.59.08h.03l.58.19.62.27.55.29.03.02.22.12.09.05.52.26.25.12.37.16.64.21.56.1.29.03.44.02h.25l.98-.03h.98v-.06l-.03-.08-.03-.13-.06-.16-.09-.18-.03-.09-.03-.06-.06-.1-.03-.06-.19-.21-.24-.16-.04-.02-.11-.05-.19-.05-.34-.06-.62-.03h-1.04l-.43-.04-.12-.02-.28-.07-.06-.03-.28-.11-.24-.23-.13-.14-.03-.06-.15-.29-.05-.12-.02-.07-.05-.18-.03-.12v-.21l.09-.31.18-.31.16-.12.09-.09.06-.04.34-.24.43-.21.06-.04.15-.06.4-.14.56-.17.53-.08-.04-.1-.13-.21-.12-.21-.12-.25-.12-.22-.13-.21-.12-.22-.15-.25-.13-.2-.12-.23-.12-.23-.16-.23-.12-.2-.12-.25-.16-.23-.12-.2-.15-.25-.13-.22-.15-.25-.12-.21-.16-.21-.15-.24-.09-.19-.12-.18-.13-.23-.12-.18-.15-.21-.13-.19-.12-.18-.12-.21-.13-.18-.12-.19-.15-.22-.13-.19-.12-.2-.24-.38-.13-.18-.15-.19-.12-.21-.13-.18-.12-.19-.15-.22-.16-.21-.15-.22-.15-.21-.13-.21-.15-.2-.12-.17-.16-.22-.12-.19-.15-.18-.16-.21-.12-.18-.15-.23-.16-.17-.15-.23-.12-.18-.16-.21-.15-.18-.16-.23-.15-.18-.15-.21-.16-.18-.15-.23-.15-.17-.16-.23-.15-.18-.15-.2-.19-.23-.12-.18-.16-.19-.15-.18-.12-.15-.16-.19-.15-.18-.15-.19-.16-.18-.12-.19-.15-.14-.13-.17-.15-.18-.12-.14-.16-.19-.15-.19-.15-.16-.13-.17-.15-.19-.15-.18-.16-.16-.15-.19-.15-.14-.13-.19-.15-.16-.16-.18-.18-.19-.15-.17-.16-.19-.15-.18-.18-.19-.16-.18-.15-.16-.19-.19-.15-.18-.18-.19-.16-.18-.18-.21-.19-.19-.18-.21-.22-.18-.18-.23-.19-.18-.18-.2-.18-.19-.19-.19-.21-.22-.19-.17-.18-.19-.19-.22-.21-.19-.19-.18-.21-.21-.22-.24-.24-.23-.22-.21-.18-.19-.19-.18-.21-.19-.19-.18-.18-.18-.22-.19-.21-.2-.25-.23-.21-.21-.25-.21-.21-.18-.19-.19-.21-.18-.22-.17-.18-.18-.22-.18-.21-.19-.19-.18-.21-.19-.22-.15-.21-.19-.22-.18-.15-.14-.18-.17-.19-.12-.18-.14-.19-.17-.18-.14-.19-.17-.18-.12-.18-.15-.22-.16-.22-.17-.18-.16-.21-.15-.22-.16-.18-.14-.22-.13-.18-.16-.19-.12-.21-.15-.19-.12-.18-.13-.16-.12-.15-.1-.15-.09-.16-.12-.15-.09-.15-.1-.16-.12-.18-.08-.16-.11-.15-.08-.15-.1-.16-.08-.15-.12-.18-.11-.13-.06-.15-.08-.15-.1-.16-.06-.15-.09-.16-.1-.12-.06-.18-.09-.16-.08-.15-.08-.18-.09-.13-.06-.15-.06-.12-.08-.16-.06-.12-.07-.15-.06-.16-.06-.12-.06-.15-.06-.16-.06-.12-.07-.15-.04-.13-.06-.15-.06-.16-.06-.12-.02-.15-.06-.12-.04-.16-.06-.12-.03-.15-.06-.13-.04-.12-.02-.12-.06-.13-.04-.12-.02-.15-.04-.13-.03-.12-.02-.12-.04-.12-.02-.16-.04-.12-.04-.12-.02-.16-.04-.12-.03h-.12l-.16-.02-.12-.04-.12-.02h-.16l-.12-.04h-.15l-.13-.02h-.15l-.12-.04h-.22l-.12-.02h-.37l-.12-.04h-1.29l-.13.04h-.46l-.12.02h-.12l-.13.04h-.24l-.12.02h-.13l-.09.04h-.12l-.13.02-.12.04h-.12l-.09.02-.13.03h-.12l-.12.04-.09.02-.13.04-.12.04h-.12l-.13.06-.15.02-.15.03-.13.04-.15.02-.15.06-.13.04-.15.06-.12.02-.16.04-.15.07-.12.02-.16.06-.12.06-.12.04-.16.06-.12.06-.15.02-.13.07-.12.06-.15.06-.13.04-.12.06-.15.06-.13.06-.12.07-.15.06-.13.06-.24.12-.19.08-.15.07-.15.1-.19.08-.15.09-.15.1-.19.09-.15.06-.16.1-.15.08-.15.1-.16.09-.15.1-.12.08-.16.06-.15.12-.15.11-.19.08-.15.1-.16.12-.15.09-.15.1-.19.11-.18.12-.19.13-.15.12-.18.12-.19.13-.18.16-.22.12-.18.15-.19.16-.18.12-.22.15-.18.16-.22.15-.18.16-.22.15-.21.14-.19.19-.21.16-.22.19-.21.18-.22.15-.21.18-.22.18-.21.19-.22.19-.18.15-.22.18-.21.19-.22.18-.21.18-.22.23-.21.18-.25.21-.21.19-.22.21-.21.18-.22.19-.18.22-.22.19-.21.18-.19.21-.21.18-.19.19-.21.21-.22.22-.24.21-.22.22-.21.21-.19.18-.18.19-.19.18-.36.38-.16.18-.18.19-.16.14-.18.19-.15.18-.19.17-.15.18-.37.37-.15.17-.19.19-.15.18-.19.19-.15.18-.15.19-.19.18-.15.19-.16.16-.18.2-.18.19-.19.21-.15.19-.19.22-.15.19-.19.18-.15.19-.12.14-.16.18-.15.17-.12.17-.16.16-.15.19-.15.18-.16.19-.12.14-.15.19-.16.18-.15.17-.12.18-.16.17-.12.16-.15.19-.16.19-.15.18-.15.21-.13.18-.15.18-.15.19-.16.18-.15.19-.16.21-.15.23-.15.18-.16.21-.15.18-.12.19-.16.18-.12.18-.12.17-.16.17-.12.2-.15.21-.16.21-.15.22-.15.19-.16.2-.15.23-.12.18-.16.21-.12.19-.15.21-.13.18-.12.19-.15.18-.13.22-.15.21-.15.18-.13.23-.15.21-.12.21-.16.22-.15.21-.15.22-.13.21-.15.23-.12.2-.16.25-.15.21-.12.23-.13.2-.15.23-.12.18-.16.25-.15.24-.12.21-.16.25-.15.21-.12.24-.16.23-.12.2-.12.23-.13.2-.12.19-.12.21-.13.23-.12.2-.15.25-.13.23-.12.2-.12.25-.12.22-.04.06.25-.04h.25l.34.06.39.13.43.19.47.25.43.26.3.29.31.27.22.3.15.31.06.34-.03.31-.03.04-.03.06-.09.08-.1.1-.21.19-.09.08-.1.06-.49.23-.52.14-.43.07-.12.03-.52.05-.59.08-.58.06h-.03l-.56.08-.52.13-.52.19-.49,1.31.33-.19.37-.06.34-.02h.37l.37.06.49.08.46.11.46.06h.49l.47-.12.37-.17.06-.02v-.02s.39-.22.39-.22h.01l.58-.37.06-.04.09-.07.56-.32.7-.34.06-.04.68-.21.09-.04.6-.11h.05s.41-.07.41-.07l.29-.02.74-.04.62.06.3.04.58.07.58.08.18.04,1.21.24,1.23.23.43.07.25.04.18.02.68.1.25.06.27.06.34.06.12.02.19.04.25.07.09.02h.07s.23.06.23.06l.19.1.24.12.14.12.05.03.02.04.04.02.04.06.05.06.03.06.06.11.03.12v.27l-.06.13-.09.14-.03.06-.09.17-.06.12-.03.25.06.24.09.25.12.23.13.25.06.18.03.23v.18l-.06.21-.13.22-.24.21-.31.22-.04.02-.19.07-.08.04h-.02l-.25.06-.22.02h-.06l-.25-.02-.13-.05-.2-.05-.18-.07-.19-.06-.46-.14-.5-.12-.46-.04h-1.63l-.43-.07-.27-.08-.28-.18-.03-.04-.21-.19-.04-.02-.27-.24-.22-.23-.12-.09-.21-.12-.31-.15-.34-.06-.22-.03-.27.03-.28.04-.09.02-.06.02-.37.13-.34.15-.4.12-.37.06-.47.04h-.05l-.17-.02-.35-.04h-.08l-.32-.04-.4-.06.24.25.19.12.12.06.31.12.28.06h.02s.5.07.5.07l.52.12.43.12.31.13.34.22.03.02.21.19.19.25.09.27v.22l-.03.09-.06.1-.06.12v.02h.03l.03.06.03.04.03.02.04.07.05.04.03.02h.09l.13.04h.12l.21.02h.25l.09.04h.56l.52.02.15.02.09.02.16.02.43.1.12.02.34.13.34.18.27.23.22.23.12.25.06.28-.06.27-.15.31-.28.31-.43.33-.46.25-.46.16h-.03l-.43.02h-.03l-.43-.02h-.06l-.43-.16-.14-.08-.3-.13-.23-.19-.2-.14-.36-.41-.31-.37-.19-.27-.04-.05-.05-.07-.18-.23-.25-.24-.27-.15-.28-.1-.34-.03h-.55l-.22-.06-.21-.06-.25-.15-.34-.24-.27-.25-.25-.28-.21-.25-.19-.18-.21-.15-.18-.12-.1-.03-.28-.06-.34-.04-.39.06-.44.09-.24.1-.22.06-.3.09-1.2.28-1.51.37,3.11.37.43.06h.03l.4.12.3.15.16.11.18.1.31.25.43.43.28.31.24.25.34.3.46.35.25.11.18.06.16.04h.46l.3.02.56.17.58.2.28.17.27.14.56.31.52.3.28.17.33.17.25.14.28.11.58.22.58.09.43-.02h.14s.11-.05.11-.05l.31-.02h.16s.08-.04.08-.04h.31l.34.06.37.13.24.16.28.21.28.28.24.33.19.31.12.34.03.24-.03.23-.06.18-.16.19-.18.08-.22.06-.39.04-.43-.04-.44-.08-.43-.1-.39-.07h-.34l-.37.04h-.06l-.28.03-.37.04h-.55l-.34-.07-.37-.16-.37-.2-.22-.22-.08-.07-.28-.31-.22-.19-.12-.12-.28-.29-.15-.17-.12-.12-.31-.27-.21-.12-.1-.06-.27-.12-.06-.04-.26-.04-.1-.02-.38.04-.37.08-.4.18-.06.03-.16.07-.36.14h-.04s-.06.05-.06.05l-.33.06-.55.06h0l-.49-.04-.49-.06-.24-.07h-.13s-.68-.2-.68-.2l-.09-.04-.64-.18-.74-.13-.74-.06h-.4l-.74.04-.76.02.52.35.31.15.46.19.12.05.12.04.46.13.59.08.34.06.39.06.31.06.06.03.34.16.22.13.18.18.22.25.15.25.12.26.03.29v.14l-.09.17-.12.12-.28.15-.21.05h-.1s-.36.03-.36.03h-.03l-.4-.02-.43-.06h-.24s-.38-.06-.38-.06h-.11s-.14-.04-.14-.04l-.33-.03h-.31l-.34.07-.07.02h-.02l-.17.06-.08.04h-.04s-.21.11-.21.11l-.05.02-.37.2-.34.19-.06.04-.4.18.03.06.06.02.12.04.13.03.09.04.74.14.44.08.32.04h.68l.62-.02.36-.06.22-.04.58-.14.37-.13.19-.06.46-.16.67-.21h.04s.06-.04.06-.04l.61-.18.74-.19.06-.02.8-.13.83-.02.8.02h.03l.77.13.2.05.53.1.77.18.77.19.77.16.83.12h.86l.37-.04h.06s.34-.06.34-.06h.24l.22.04h.03l.06.02.15.06.22.19.09.1.09.12.07.13.02.02.16.24.06.13.06.12v.27l-.09.29-.11.14-.04.07-.04.04-.18.18-.12.08-.13.1-.27.19-.25.08-.58.19h-.03l-.56.06h-.03l-.55-.02-.12-.03-.43-.07-.32-.12-.27-.07-.73-.31-.07-.02-.64-.31-.68-.36-.64.18-.62.18-.49.15-.49.1-.71.06-.67.02-.89-.02h-.86l.64.37.49.15.13.04.36.08.37.05.4.04.49.04.46-.04h.08s.45-.09.45-.09l.52-.06h.8l.37.06h.03l.31.15.27.23.22.26.15.25.06.22.03.21-.09.24-.18.25-.28.19-.34.19-.49.14-.49.17-.49.08.43.22.15.09.12.06.19.12.09.06.11.1.17.13.24.2.19.28.18.29.12.26.07.31v.29l-.1.24-.12.11-.18.14-.25.11-.49.12h-.03l-.49.04h-.03l-.53-.04h-.03l-.55-.06-.22-.03-.43-.06-.7-.12-.68-.06h-.64l.76.7.71.68.06.05.25.23.58.5.24.14.41.26.31.17.53.25h.02s.58.19.58.19l.77.18.11.02.63.07.53.08.24.04.55.12h.03l.15.03.43.16.14.07.2.08.29.21.14.1.31.31.28.47.15.32v.05l.03.27v.02l-.03.29v.02l-.05.12-.04.13-.04.06-.02.06-.19.31-.03.06-.28.37-.49.68-.49.51-.03.05h-.01l-.57.49-.15.09-.47.34-.46.19-.17.08-.42.13-.09.02h-.02l-.37.06-.22.04h-.71l-.58-.12h-.03l-.68-.23-.43-.21-.09-.06-.28-.19-.15-.14-.15-.13-.12-.12-.13-.12-.06-.1-.06-.07-.25-.36-.06-.09-.31-.5-.55.09-.52.16-.49.19-.04.02-.52.23-.23.07-.29.11-.31.08h-.05s-.41.11-.41.11l-.46.02-.46-.06h-.03l-.43-.13-.49-.24-.4-.27-.34-.29-.25-.33-.12-.33-.06-.29.03-.31.09-.3.19-.3.27-.35.34-.31.43-.3.46-.27.46-.25.28-.18.21-.21.1-.19.06-.16v-.21l-.03-.22-.13-.27-.15-.29-.24-.33-.37-.37-.37-.33-.22-.23-.09-.08-.12-.16-.16-.19-.21-.43-.15-.54-.1-.53v-.51l.03-.69.03-.27v-.12s.03-.34.03-.34l-.03-.58-.03-.13-.03-.04v-.02h-.03l-.06-.04-.31.19-.02.03-.17.13-.27.25-.3.39-.19.34-.12.25v.03s-.09.43-.09.43l-.04.75h0s.07.69.07.69l.09.68.04.43.02.21.03.55v.02l-.03.56-.12.56-.22.59-.21.4-.19.33-.21.28-.19.27-.12.19v.04s-.09.2-.09.2l-.06.17-.03.14-.04.29v.4l.07.45.12.76.02.09v.07s.14.57.14.57l.04.16.05.2.03.2.06.31.03.46v.47l-.03.46-.13.47-.21.45-.31.44-.37.37-.43.32-.03.04-.46.25-.28.14-.21.11-.52.11h-.03l-.5.06-.49-.06-.06-.03-.03-.02-.06-.04-.09-.02-.06-.04-.07-.02.07.17.06.18.06.19.09.18.06.23.06.18.1.19.06.18.06.19.09.18.06.17.06.19.1.18.09.19.06.22.09.19.09.2.07.19.09.18.09.23.09.17.09.23.1.18.09.2.09.23.09.21.1.22.12.21.09.21.12.22.1.21.12.25.12.24.09.23.13.24.12.25.12.21.13.25.12.25.15.24.09.19.1.18.12.21.12.18.09.19.13.18.09.19.12.19.09.18.13.19.09.18.12.19.09.18.13.14.09.19.09.15.13.16.09.15.09.16.12.15.09.16.1.14.12.17.09.14.09.12.13.17.09.14.12.15.09.16.13.13.09.14.12.13.09.16.13.14.09.13.12.16.13.12.09.15.12.12.12.15.1.14.12.11.12.16.12.13.13.14.12.12.12.17.13.12.12.14.15.13.13.16.27.27.13.12.15.13.12.16.12.09.13.12.12.12.12.09.13.12.12.12.12.1.13.13.12.08.12.12.15.1.13.13.12.08.12.12.13.11.15.12.12.09.16.12.12.09.12.12.16.1.12.08.15.13.16.1.15.12.15.08.16.13.15.12.15.1.13.08.15.13.15.1.16.08.15.09.16.14.15.09.15.08.16.1.15.13.15.08.16.1.15.08.19.12.15.11.18.08.19.12.15.1.19.13.18.08.19.1.15.09.18.12.16.09.18.1.19.08.18.13.18.1.22.08.18.12.19.11.21.08.19.1.18.12.22.09.18.1.22.12.15.06.18.08.16.11.18.06.19.08.18.09.16.1.18.06.18.09.22.1.18.08.22.1.21.09.19.1.21.08.22.1.18.06.22.09.21.1.22.08.18.1.22.06.21.09.22.1.21.08.22.07.21.08.22.1.24.07.19.06.18.06.19.08.18.07.19.06.36.12.19.06.21.06.19.06.18.07.19.06.18.04.16.06.15.02.18.06.16.04.18.06.16.02.18.07.15.04.16.06.15.02.18.04.16.02.15.06.16.04.15.02.12.03.16.04.12.04.15.02.13.04.15.02.15.04h.16l.12.02.15.03.16.04.12.02h.12l.13.04.15.02h.12l.13.04.12.02h.12l.15.04h.13l.12.03h.12l.16.04h.12l.09.02h.13l.12.04h.24l.1.02h.12l.12.04h.25l.12.02h.34l.12.04h.34l.12.02h.37l.09.04h.68l.12.02h.8l.12.04h5.32l.12-.04h1.48l.15-.02h2.4l.15.02h1.54l.15.04h5.29l.12-.04h.89l.13-.02h.46l.12-.04h.52l.13-.02h.27l.12-.04h.25l.12-.02h.28l.15-.04h.13l.12-.02h.15l.13-.04h.15l.12-.02h.16l.12-.04h.12l.16-.03h.12l.12-.04h.12l.16-.02.12-.04h.16l.12-.02.15-.04.12-.02h.13l.15-.04.15-.03.13-.02.15-.04.16-.02.12-.04.15-.02h.16l.15-.08.15-.03.16-.02.15-.04.15-.02.16-.04.15-.02.15-.06.16-.04.18-.06.16-.03.18-.06.18-.04.16-.06.15-.02.22-.06.18-.06.19-.04.18-.06.18-.07.19-.06.15-.06.19-.06.21-.06.19-.06.18-.06.19-.07.36-.12.22-.08.18-.07.22-.1.18-.06.22-.06.18-.09.19-.06.21-.08.19-.07.18-.1.22-.06.18-.08.19-.1.18-.06.18-.09.19-.06.18-.1.19-.08.18-.06.19-.11.18-.08.18-.06.19-.1.21-.09.19-.1.21-.08.19-.09.18-.1.22-.1.18-.09.19-.08.18-.1.18-.08.19-.11.18-.08.19-.1.18-.12.19-.09.18-.1.19-.08.15-.1.18-.08.19-.11.18-.08.16-.1.18-.11.15-.1.19-.09.18-.1.16-.08.18-.11.15-.12.16-.08.18-.1.19-.13.15-.08.19-.12.15-.1.18-.08.16-.13.15-.1.15-.08.16-.09.15-.14.12-.09.16-.08.15-.1.16-.13.15-.08.15-.1.13-.12.15-.09.15-.1.16-.12.15-.12.12-.09.16-.12.15-.1.15-.12.13-.09.12-.12.15-.09.13-.12.12-.11.15-.12.13-.12.15-.13.12-.08.16-.12.12-.12.12-.13.16-.12.12-.1.12-.12.16-.13.12-.12.12-.15.15-.12.13-.13.15-.14.12-.13.13-.12.15-.16.12-.13.13-.14.15-.16.12-.13.13-.14.12-.16.12-.13.16-.15.12-.14.12-.17.12-.14.13-.16.12-.15.12-.16.13-.13.09-.14.12-.16.09-.13.13-.14.12-.15.09-.16.12-.15.13-.16.09-.19.12-.14.13-.17.09-.14.12-.16.09-.15.09-.16.13-.15.09-.18.09-.15.13-.19.24-.36.09-.19.13-.18.12-.19.12-.22.12-.21.1-.21.12-.19.12-.22.13-.21.12-.22.12-.25.12-.2.13-.25.12-.23.12-.23.13-.25.12-.24.12-.23.12-.24.13-.25.09-.25.12-.23.13-.23.09-.24.12-.21.09-.22.1-.21.09-.24.12-.23.09-.21.09-.21.1-.18.06-.23.09-.18.09-.19.06-.2.1-.19.09-.18.12-.38.09-.18.07-.19.06-.18.09-.19.06-.18.06-.19.06-.18.1-.18.06-.19.06-.17h-.55ZM77.22,88.48h-.12l-.25.12-.24.19-.22.18-1.32.74-.24.12-1.14.6-.37.16-.61.29-.5.21-.06.03-.59.21-.51.17-.13.02-1.04.29-1.17.14h-.86l-.52-.02-.59-.06-.46-.1-.18-.08-.09-.06-.1-.07-.27-.12v-.04l-.03-.02v-.13s.03-.16.03-.16v-.06l.09-.43v-.02l.09-.56.16-.62.12-.49v-.02l.12-.5.09-.37.03-.25.13-.55.03-.14.09-.44.03-.16.03-.17.06-.43.1-.72v-.21l-.03-.31-1.14,2.01-.28.49-.38.59-.09.14-.51.81-1.11,1.44-.74.71-.03.02-.86.65-.69.37-.17.08-.06.03-.08.04-.72.33-.43.16h-.03s-.1.04-.1.04l-.97.36-1.51.53-.4.18-.98.42-.56.23-.09.02-.37.12h-.18l-.25-.02v-.12l.09-.09.37-.41.1-.09.3-.3.17-.15.08-.08.46-.39.4-.37,1.17-1.36.37-.47.76-1.03.63-.99.3-.48.73-1.4.13-.23v-.04s.06-.08.06-.08l.77-1.69.05-.16.07-.15.41-1.23.3-.9.03-.09.48-1.87.07-.28.4-2.36.03-.25.06-.31v-.25l-.03-.12v-.06h-.03l-.09.28-.19.4-1.1,2.31-.22.39-1.02,1.92-.39.73-.52.84-.31.54-.32.5-.77,1.15-.62.94-.2.3-1.56,2.02-.16.23-.06.06-.11.13-.07.08-.1.12-.06.1-.15.14-.03.04-.15.15-.13.06-.24.1-.34.08-.43.09-.52.14-.19.02-.24.07-.47.08h-.03l-.3.06-3.81,1.03-2.95.85-4.58,1.5v-.09l.06-.12.27-.37.37-.39.22-.23.37-.39.34-.37.83-1.07.67-1.01.49-.9.02-.02v-.05s.41-.89.41-.89l.34-.94.28-.99.24-1.07.19-.89.06-.29.28-1.32.3-1.37.37-1.36.34-1.08.39-1h-.02l-.06.06-.13.12-.21.21-.25.28-.24.27-.22.31-.27.52-.31.66-.62,1.38-.49,1.44-.27,1.25-.16,1.3-.03,1.28h-.03v.04h-.03l-.12.07-.16.06-.12.06-.71.12-.8.02h-1.99l-2.77.1-3.53.15h-1.79l.77-1.47.49-.92.44-.93.73-1.83.59-1.94.33-1.67.19-1.69-.03-1.65v-.1l-.03-.12-.03-.09v-.04h-.03v-.02l-1.05,2.48-.74,1.54-.83,1.48-.83,1.39-.92,1.34-.83,1.08-.89,1.04-.98.96-.59.52-.58.45-.49.37-.59.29-.61.18-1.41.27-1.42.13-1.81.06h-1.81l-.19.04h-.27l-.4.02-.37-.06-.09-.04-.04-.06-.03-.02v-.09l.03-.04.1-.12.21-.15.25-.18.34-.23.3-.2.25-.19.15-.1,1.39-1.2,1.41-1.34,1.38-1.52,1.23-1.5,1.14-1.53.98-1.61.8-1.52.06-.17.03-.06.03-.08-.03-.04v-.02l-2.09,2.76-1.05,1.21-.11.15-.32.33-.39.44-.17.17-.35.38-1.97,2-.58.63-.34.34-.25.25-.34.34-.12.13-.55.43-.74.45-.05.02-.84.42-.92.33-.16.06-.43.12-.55.16-.89.19-.99.08h-.92l-.12-.02-.15-.04-.16-.06-.03-.02v-.04h-.03v-.02l1.58-.94.14-.09,1.07-.72.1-.07.02-.02.47-.33.62-.49.55-.44,1.23-1.02,1.47-1.32,1.05-1.03,1.11-1.09.83-.87.39-.42.74-.84.59-.65.03-.04.86-1.1.26-.43v-.02s.06-.12.06-.12l.19-.44.13-.33.25-.61.27-.81.25-.76.22-.66.18-.58.82-3.1.02-.08.36-1.58.49-2.43-.06-.06h-.15l-.37.06-.19.13-.21.18-.37.33-.4.29-.52.27-.16.1-.14.03-.2.09-.4.08h-.07s-.11.04-.11.04l-.55.09.03-.25.03-.13.05-.16.13-.34.13-.31.3-.63.13-.24.21-.43.55-1.2.15-.35.28-.76.31-.89.22-.8.03-.1.12-.5.19-.53.16-.74.08-.58.12-1.05.1-1.16.09-1.6.15-1.44.25-1.3.31-1.1.3-.98.34-.83.31-.68.27-.53.22-.37.12-.21.03-.02,1.14-1.79,1.14-1.82,1.04-1.5,1.11-1.44,1.2-1.32.58-.55.62-.54.58-.33.61-.31.65-.19-.06.25-.12.18-.22.23-.22.17-.7.99-.62.99-.52,1.04-.46,1.04-.55,1.36-.56,1.35-.58,1.35-.68,1.3-.55.82-.61.74-.83.82-.93.87.74.31.74.21,1.01.12.99.06-1.05-.2-.18-.07-.25-.1-.27-.08-.5-.21-.21-.11-.09-.06-.07-.06-.03-.08-.03-.04v-.09h.03l.07-.04.24-.14.22-.12.21-.13.12-.1.77-.64.65-.74.49-.76.4-.83.55-1.48.46-1.54.56-1.53.64-1.42.8-1.34.77-1.09.92-.95,1.02-.82h-.19l-.25.06h-.3l-.03-.04-.03-.02v-.06l.03-.1.03-.09.12-.18.18-.23.31-.27.37-.33.46-.37.43-.37.4-.31.31-.21,1.04-.86.68-.55.71-.54.55-.29.52-.25.74-.22.77-.09h0s-.03-.18-.03-.18v-.23l-.03-.18v-.61l.03-.22v-.18l.03-.19.03-.12.03-.08.06-.07.06-.1.09-.06.07-.06.09-.02.12-.06.16-.04.18-.03.18-.04.16-.02h.18l.28-.04.31-.02h.64l.34.02.34.04.37.02.36.07.34.06.46.1.46.12.43.13.44.14.3.12.28.13.28.12.27.12.25.16.24.15.22.15h.09l.09-.03.13-.02h.09l.12-.04h.16l.12-.02h.77l-.03-.1-.04-.09-.03-.12v-.12l-.06-.16-.03-.13-.03-.08-.06-.1-.03-.06-.09-.06-.06-.03-.1-.04h-.12l-.15-.02h-.16l-.24-.04h-.22l-.12-.02-.12-.04-.13-.06-.12-.12-.03-.07-.03-.08v-.1l.03-.09.03-.12.06-.21.09-.18.13-.19.12-.18.15-.17.22-.2.21-.19.25-.16.28-.15.27-.16.34-.15.37-.12.4-.13.37-.06.34-.06.3-.06.31-.02h.86l.31.06.34.06.3.08.31.11.34.12.31.14.33.19.31.21.31.23.31.2.27.23.25.24.24.25.1.14.12.17.12.35.06.19.03.22.04.21v.22l.03.33-.03.31v.34l-.04.31-.03.3-.03.29-.03.27v.7l.49.31.07-.31v-.03l.03-.18.04-.16.02-.05.03-.22.03-.15v-.1l.03-.2v-.19l-.03-.18v-.13l-.06-.18-.03-.19-.03-.19-.03-.14v-.17l.12-.24.05-.07.07-.05.16-.13.15-.08.21-.1.22-.06.24-.09.28-.06h.04l.21-.04.18-.03.25-.03.37-.02h.15l.37-.04h.43l.43.04.49.02.49.04.52.08.56.11.55.12.52.14.56.17.49.2.43.23.4.2.24.15.16.1.34.25.05.03.16.16.25.2.03.04.18.21.05.05.07.11.16.19.09.14.06.15.03.1.03.12-.03.09-.03.06-.03.06-.09.04-.09.03-.13.04h-.03l-.21.02h-.09l-.16.04h-.06l-.18.02-.22.06-.12.04-.12.02-.11.05h-.05s-.06.05-.06.05l-.25.13-.3.18-.28.19-.09.07-.16.11-.27.25-.06.06-.22.17-.34.31-.03.04h-.03s-.34.31-.34.31l-.36.3-.37.27-.43.29-.31.14-.31.15-.34.16-.27.13-.19.06-.18.08-.16.07-.09.06-.06.04-.03.02v.04l.03.02h.03l.06.04h.25l.15.02h.19l.21.04.22.06.12.02.12.03.16.04.21.1.19.07h.03s.15.11.15.11l.25.19.24.18.19.21.09.12.12.19.17.25.11.18.06.09.03.06.06.15.1.26.09.26.15.44.07.26.05.3.06.33.07.34.02.14v.05s.04.14.04.14l.03.17v.08l.03.19v.15l.03.1.49.77.43.6.25.38.37.51.04.07.08.12.43.7.61,1.36.23.73.27.77.33,1.55.12.86.1.64.15,2.02.03,1.65v.27l-.06,2.02-.09,1.99-.09,1.05-.09.48-.04.2-.15.8-.18.67-.02.09-.26,1.18-.49,2.46-.26,1.45-.17,1.12-.16,1.25-.18,1.34-.09,1.51-.06.85v.18l-.03,2.16v.43l.04,1,.02.53.02.18v.29s.1.73.1.73l.09.92.06.35v.02l.37,1.95h0s.46,1.84.46,1.84l.71,2.06.71,1.55.15.37.03.06.25.6.09.2.31.81-.13-.04Z"/>
      <polygon class="cls-5" points="27.78 44.63 27.78 44.81 27.72 45.03 27.59 45.24 27.35 45.46 27.04 45.67 27 45.69 26.81 45.77 26.73 45.8 26.71 45.8 26.46 45.86 26.24 45.88 26 45.86 25.8 45.81 25.66 45.77 25.42 45.7 25.2 45.61 24.74 45.46 24.27 45.37 23.81 45.34 22.25 45.34 21.75 45.27 21.45 45.15 21.17 44.97 20.96 44.78 20.92 44.75 20.71 44.54 20.43 44.29 20.31 44.2 20.13 44.08 19.79 43.92 19.36 43.83 19.23 43.84 19.14 43.83 18.84 43.86 18.68 43.91 18.59 43.92 18.22 44.04 17.85 44.2 17.45 44.32 17.05 44.41 16.58 44.44 16.53 44.44 16.36 44.42 16.01 44.38 15.93 44.38 15.73 44.35 15.21 44.29 15.45 44.57 15.64 44.66 15.73 44.72 16.04 44.84 16.07 44.84 16.35 44.9 16.37 44.91 16.5 44.94 16.96 45 17.39 45.09 17.82 45.21 18.25 45.43 18.5 45.58 18.71 45.77 18.9 46.01 18.99 46.29 18.99 46.5 18.96 46.6 18.9 46.69 18.84 46.81 18.84 46.84 18.9 46.9 18.93 46.93 18.99 47.03 19 47.03 19.02 47.06 19.05 47.06 19.08 47.09 19.17 47.09 19.3 47.12 19.57 47.15 19.85 47.15 19.97 47.18 20.43 47.18 20.89 47.21 21.2 47.23 21.29 47.24 21.45 47.27 21.88 47.36 22.34 47.52 22.68 47.7 22.95 47.92 23.17 48.16 23.29 48.41 23.35 48.68 23.29 48.96 23.14 49.27 22.86 49.58 22.4 49.91 21.94 50.16 21.48 50.31 21.05 50.34 21.02 50.34 20.59 50.31 20.13 50.16 19.96 50.08 19.66 49.91 19.43 49.75 19.27 49.61 18.87 49.21 18.62 48.9 18.37 48.56 18.33 48.51 18.28 48.44 18.07 48.16 17.85 47.98 17.82 47.95 17.58 47.79 17.3 47.73 16.96 47.7 16.44 47.7 16.22 47.64 16.01 47.58 15.73 47.42 15.39 47.18 15.12 46.93 14.87 46.66 14.66 46.41 14.47 46.23 14.41 46.16 14.19 46.01 14.08 45.96 14.01 45.92 13.73 45.86 13.7 45.86 13.36 45.83 12.97 45.89 12.63 45.95 12.53 45.98 12.41 46.01 12.07 46.13 11.77 46.23 10.23 46.56 9.06 46.87 12.17 47.24 12.6 47.3 13 47.42 13.33 47.58 13.49 47.68 13.73 47.86 14.04 48.13 14.35 48.41 14.41 48.47 14.69 48.78 15.02 49.11 15.27 49.33 15.36 49.42 15.73 49.67 15.95 49.79 16.13 49.85 16.16 49.85 16.32 49.88 16.78 49.88 17.08 49.91 17.64 50.07 18.19 50.28 18.5 50.44 18.77 50.59 19.33 50.9 19.88 51.24 20.13 51.36 20.43 51.54 20.71 51.67 21.02 51.82 21.57 52 22.15 52.1 22.49 52.1 22.72 52.06 22.98 52.03 23.3 51.99 23.38 51.97 23.69 51.97 24.03 52.03 24.4 52.16 24.64 52.31 24.92 52.53 25.2 52.8 25.44 53.14 25.63 53.45 25.75 53.79 25.78 54.03 25.75 54.25 25.69 54.43 25.53 54.62 25.35 54.71 25.13 54.77 24.74 54.8 24.31 54.77 23.87 54.68 23.44 54.59 23.05 54.52 22.71 54.52 22.34 54.55 22.28 54.55 21.88 54.59 21.51 54.62 21.17 54.62 20.74 54.55 20.4 54.4 20.03 54.19 19.78 53.98 19.7 53.91 19.42 53.6 19.2 53.41 18.99 53.17 18.8 52.99 18.65 52.83 18.53 52.71 18.22 52.43 18.01 52.31 17.91 52.25 17.64 52.13 17.58 52.1 17.32 52.05 17.24 52.03 17.22 52.04 17.21 52.03 16.84 52.07 16.53 52.13 16.47 52.16 16.07 52.34 16.01 52.36 15.73 52.46 15.49 52.57 15.45 52.59 15.06 52.68 14.51 52.74 14.5 52.74 14.01 52.71 13.61 52.65 13.28 52.58 12.97 52.5 12.47 52.37 12.38 52.34 11.74 52.16 11.09 52.03 10.48 51.97 9.34 51.97 8.36 52.03 8.76 52.31 8.88 52.37 9.19 52.53 9.43 52.65 9.65 52.72 9.77 52.77 9.89 52.8 10.35 52.93 10.81 53.02 11.28 53.08 11.67 53.14 12.04 53.23 12.38 53.39 12.6 53.51 12.78 53.69 13 53.94 13.15 54.19 13.27 54.46 13.3 54.74 13.3 54.89 13.21 55.05 13.09 55.17 12.84 55.29 12.6 55.37 12.5 55.38 12.14 55.41 12.11 55.41 11.71 55.38 11.28 55.32 11.18 55.32 11.04 55.31 10.66 55.26 10.55 55.25 10.45 55.23 10.41 55.23 10.2 55.2 9.77 55.2 9.43 55.26 9.36 55.29 9.34 55.29 9.17 55.35 9.09 55.38 9.05 55.4 8.91 55.45 8.84 55.49 8.79 55.51 8.42 55.72 8.08 55.91 8.02 55.94 7.62 56.12 7.65 56.18 7.71 56.21 7.77 56.24 7.93 56.28 8.05 56.31 8.85 56.49 9.23 56.54 9.46 56.58 9.55 56.58 10.08 56.61 10.66 56.58 10.85 56.55 11.21 56.49 11.43 56.46 12.01 56.31 12.38 56.18 12.57 56.12 13.18 55.94 13.7 55.75 13.74 55.74 13.8 55.72 14.41 55.54 15.15 55.35 16.01 55.2 16.84 55.17 17.64 55.2 17.67 55.2 18.4 55.32 18.64 55.37 19.23 55.51 20 55.69 20.74 55.88 21.51 56.03 22.31 56.12 23.17 56.12 23.54 56.09 23.6 56.08 23.81 56.06 24.15 56.03 24.18 56.03 24.4 56.06 24.49 56.09 24.64 56.18 24.86 56.34 24.92 56.43 25.01 56.55 25.11 56.68 25.13 56.71 25.2 56.83 25.35 57.07 25.41 57.2 25.41 57.44 25.32 57.72 25.21 57.9 25.13 58 24.83 58.27 24.7 58.36 24.49 58.49 24.18 58.64 23.57 58.83 23.01 58.89 22.98 58.89 22.43 58.86 22.31 58.84 21.85 58.73 21.56 58.65 21.17 58.52 20.56 58.27 20.49 58.24 19.82 57.9 19.17 57.57 18.68 57.69 18.19 57.84 17.54 58.03 16.93 58.18 16.04 58.24 13.8 58.24 14.44 58.61 14.93 58.76 15.06 58.8 15.42 58.89 16.04 58.98 16.68 59.01 17.14 58.98 17.22 58.97 17.61 58.92 18.13 58.86 18.62 58.83 18.99 58.83 19.36 58.89 19.7 59.04 19.97 59.26 20.19 59.53 20.34 59.78 20.4 59.99 20.43 60.21 20.34 60.45 20.16 60.7 19.88 60.88 19.54 61.07 19.05 61.22 18.56 61.38 18.07 61.47 18.4 61.65 18.65 61.78 18.96 61.96 19.05 62.02 19.16 62.11 19.33 62.24 19.57 62.45 19.76 62.73 19.94 63.01 20.06 63.28 20.13 63.59 20.13 63.87 20.03 64.11 19.91 64.23 19.73 64.36 19.48 64.48 18.96 64.6 18.47 64.63 18.44 64.63 17.91 64.6 17.88 64.6 17.39 64.54 17.11 64.5 16.78 64.45 16.04 64.33 15.98 64.33 15.3 64.27 14.66 64.27 15.55 65.13 16.13 65.65 16.19 65.7 16.44 65.92 17.02 66.42 17.26 66.56 17.42 66.69 17.67 66.82 17.98 66.99 18.34 67.18 18.51 67.24 18.53 67.25 19.11 67.43 19.85 67.61 19.88 67.61 19.99 67.63 20.68 67.74 21.15 67.79 21.39 67.83 21.94 67.95 21.97 67.95 22.43 68.11 22.69 68.21 22.95 68.35 23.32 68.6 23.63 68.94 23.91 69.37 24.06 69.74 24.09 70.01 24.09 70.04 24.06 70.32 24.01 70.47 23.93 70.66 23.72 71.03 23.41 71.46 22.92 72.1 22.43 72.65 22.4 72.69 22.39 72.69 21.82 73.18 21.67 73.28 21.14 73.61 20.57 73.88 20.15 74.01 20.06 74.04 20.04 74.04 19.67 74.1 19.36 74.13 18.84 74.13 18.16 74.01 17.45 73.79 16.93 73.52 16.5 73.18 16.35 73.05 16.23 72.93 16.04 72.72 15.73 72.29 15.67 72.19 15.36 71.7 14.81 71.79 14.29 71.95 13.8 72.13 13.27 72.35 13.01 72.46 12.72 72.56 12.41 72.65 12.36 72.66 11.95 72.75 11.49 72.78 11.03 72.72 10.57 72.59 10.08 72.35 9.68 72.07 9.34 71.79 9.09 71.46 8.97 71.12 8.91 70.84 8.94 70.53 9.03 70.23 9.22 69.92 9.49 69.58 9.83 69.27 10.26 68.97 10.72 68.69 11.18 68.44 11.46 68.26 11.67 68.05 11.77 67.86 11.83 67.71 11.83 67.49 11.8 67.28 11.67 67 11.52 66.72 11.28 66.39 10.66 65.77 10.32 65.46 10.11 65.22 9.92 64.94 9.74 64.6 9.59 64.05 9.49 63.53 9.49 63.01 9.52 62.58 9.55 62.05 9.56 61.93 9.59 61.68 9.58 61.6 9.59 61.53 9.55 61.01 9.52 60.88 9.49 60.85 9.49 60.82 9.46 60.82 9.4 60.79 9.09 60.98 9.07 61 9 61.04 8.9 61.13 8.79 61.22 8.63 61.38 8.51 61.5 8.23 61.9 8.14 62.11 8.02 62.36 8.01 62.4 7.99 62.45 7.93 62.82 7.89 63.57 7.89 63.59 7.96 64.33 8.05 65.03 8.09 65.37 8.11 65.59 8.14 66.14 8.14 66.16 8.11 66.72 7.99 67.28 7.77 67.86 7.56 68.26 7.34 68.6 7.16 68.87 6.97 69.12 6.85 69.34 6.84 69.37 6.82 69.4 6.73 69.61 6.7 69.74 6.67 69.83 6.63 70.17 6.63 70.57 6.7 71.03 6.82 71.79 6.84 71.87 6.85 71.95 6.98 72.51 7.02 72.67 7.1 73.07 7.16 73.48 7.19 74.07 7.16 74.65 7.03 75.24 6.82 75.7 6.51 76.1 6.14 76.5 5.71 76.83 5.22 77.11 4.94 77.25 4.7 77.36 4.18 77.48 3.68 77.54 3.19 77.48 3.13 77.45 3.1 77.42 3.04 77.39 2.98 77.36 2.89 77.33 2.82 77.3 2.76 77.11 2.7 76.93 2.43 76.08 2.36 75.87 2.33 75.79 2.3 75.67 1.91 74.2 1.9 74.19 1.81 73.78 1.66 73.09 1.63 72.93 1.6 72.78 1.56 72.62 1.56 72.6 1.5 72.19 1.5 72.16 1.49 72.09 1.41 71.56 1.41 71.55 1.4 71.51 1.38 71.36 1.38 71.32 1.29 70.26 1.26 69.83 1.26 69.76 1.23 68.29 1.23 67.95 1.24 67.76 1.26 67.09 1.28 66.59 1.29 66.57 1.29 66.51 1.32 66.02 1.32 65.99 1.34 65.75 1.35 65.68 1.35 65.65 1.36 65.51 1.38 65.31 1.41 65.06 1.44 64.79 1.47 64.45 1.48 64.4 1.49 64.36 1.5 64.25 1.5 64.24 1.51 64.2 1.59 63.61 1.6 63.56 1.63 63.34 1.66 63.16 1.69 62.97 1.72 62.79 1.75 62.61 1.78 62.42 1.81 62.21 1.84 62.02 1.87 61.84 1.9 61.65 1.91 61.6 2 61.14 2.02 61.07 2.03 61.04 2.04 60.99 2.15 60.45 2.33 59.59 2.36 59.41 2.38 59.33 2.46 58.95 2.49 58.84 2.52 58.73 2.58 58.49 2.77 57.69 3.07 56.52 3.75 54.09 3.84 53.79 4.24 52.5 4.76 50.87 5.05 50.08 5.07 50.04 5.13 49.85 5.16 49.76 5.21 49.62 5.55 48.68 5.59 48.57 5.62 48.5 6.04 47.42 6.69 45.79 6.7 45.77 6.75 45.64 6.82 45.49 6.85 45.4 7.16 44.66 7.4 44.11 7.61 43.63 7.74 43.37 7.8 43.2 7.8 43.18 7.95 42.86 7.96 42.85 8.08 42.6 8.13 42.51 8.2 42.35 8.22 42.31 8.26 42.22 8.33 42.08 8.41 41.91 8.45 41.83 8.52 41.69 8.6 41.52 8.74 41.23 8.82 41.09 8.94 40.85 8.98 40.75 8.98 40.74 9.65 39.41 9.66 39.4 9.8 39.13 9.92 38.88 10.02 38.7 10.05 38.64 10.08 38.59 10.26 38.24 10.3 38.18 10.32 38.14 10.33 38.12 10.45 37.93 10.57 37.71 10.61 37.61 10.62 37.58 10.9 37.06 10.91 37.04 11.01 36.85 11.03 36.82 11.18 36.58 11.27 36.42 11.46 36.42 11.77 36.39 12.11 36.45 12.5 36.58 12.93 36.76 13.4 37.01 13.83 37.28 14.13 37.56 14.44 37.84 14.66 38.14 14.81 38.45 14.87 38.79 14.84 39.1 14.81 39.13 14.78 39.19 14.69 39.28 14.59 39.37 14.38 39.56 14.26 39.65 14.19 39.71 13.7 39.93 13.21 40.05 12.75 40.15 12.63 40.17 12.04 40.23 11.46 40.3 10.94 40.36 10.91 40.36 10.35 40.45 9.8 40.57 9.31 40.76 8.82 42.08 9.15 41.89 9.52 41.83 9.86 41.8 10.23 41.8 10.81 41.92 11.43 42.05 12.01 42.11 12.54 42.11 13 41.99 13.34 41.83 13.4 41.8 13.41 41.79 13.46 41.77 13.79 41.56 13.8 41.56 14.38 41.2 14.44 41.16 15.09 40.76 15.79 40.42 16.53 40.17 17.27 40.02 17.68 39.96 18.16 39.93 18.93 39.93 19.33 39.96 19.63 39.99 20.21 40.06 20.79 40.15 21.51 40.3 23.41 40.66 23.84 40.73 24.09 40.76 24.27 40.79 24.95 40.88 25.2 40.94 25.47 41 25.81 41.06 25.93 41.09 26.18 41.16 26.37 41.2 26.46 41.22 26.53 41.23 26.76 41.31 26.95 41.37 27.16 41.49 27.33 41.61 27.4 41.68 27.48 41.77 27.56 41.89 27.65 42.11 27.65 42.38 27.56 42.54 27.5 42.66 27.47 42.72 27.38 42.88 27.32 43 27.29 43.25 27.35 43.49 27.44 43.74 27.56 43.98 27.69 44.23 27.75 44.41 27.78 44.63"/>
      <polygon class="cls-5" points="98.4 68.32 98.4 68.51 98.37 69.34 98.34 69.98 98.28 70.76 98.27 70.78 98.27 70.83 98.25 71.07 98.24 71.09 98.24 71.11 98.23 71.31 98.21 71.36 98.21 71.52 98.18 71.67 98.15 71.86 98.03 72.62 98 72.81 97.97 72.96 97.79 73.82 97.78 73.82 97.78 73.85 97.75 74.01 97.69 74.27 97.66 74.35 97.63 74.5 97.54 74.87 97.44 75.21 97.35 75.54 97.35 75.55 97.29 75.7 97.26 75.88 97.2 76.04 97.18 76.11 97.11 76.34 97.05 76.53 96.95 76.83 96.89 77.02 96.83 77.2 96.77 77.36 96.34 77.36 96 77.33 95.51 77.2 95.11 77.02 95.1 77.01 94.89 76.87 94.65 76.68 94.28 76.31 94.03 76 94.01 75.97 93.85 75.73 93.66 75.42 93.39 74.84 93.17 74.22 93.02 73.61 92.96 73.05 92.96 72.65 92.99 72.22 93.11 71.24 93.14 71 93.17 70.75 93.2 70.26 93.23 69.83 93.23 69.8 93.2 69.46 93.14 69.12 93.05 68.97 92.9 68.81 92.68 68.66 92.66 68.65 92.53 68.54 92.28 68.38 92.1 68.23 91.94 68.08 91.64 67.68 91.42 67.22 91.33 66.94 91.27 66.69 91.21 66.2 91.18 65.68 91.18 65.31 91.21 64.79 91.24 64.3 91.27 63.77 91.26 63.71 91.27 63.65 91.24 63.16 91.23 63.08 91.21 62.73 91.11 62.36 91.08 62.24 91.08 62.21 90.9 61.75 90.62 61.32 90.44 62.21 90.32 62.73 90.28 62.88 90.22 63.1 90.2 63.16 89.98 63.8 89.67 64.45 89.36 64.94 89.02 65.37 88.99 65.4 88.59 65.83 88.26 66.17 88.07 66.35 87.86 66.6 87.78 66.69 87.58 66.91 87.46 67.03 87.12 67.52 87.18 67.65 87.21 67.68 87.27 67.77 87.4 67.89 87.55 67.98 87.95 68.23 88.38 68.44 88.84 68.66 89.09 68.78 89.27 68.87 89.61 69.09 89.92 69.34 90.16 69.61 90.32 69.95 90.41 70.38 90.41 70.81 90.35 71.3 90.22 71.76 90.04 72.19 89.82 72.53 89.58 72.84 89.27 73.09 88.96 73.24 88.59 73.33 88.23 73.3 87.98 73.24 87.73 73.09 87.55 72.97 87.49 72.93 87.39 72.85 87.24 72.72 87.1 72.61 86.81 72.32 86.6 72.07 86.44 71.89 86.33 71.73 86.29 71.67 86.1 71.43 85.92 71.15 85.77 70.93 85.61 70.75 85.49 70.66 85.4 70.57 85.31 70.53 85.21 70.5 85.19 70.51 85.15 70.5 85.06 70.53 84.99 70.59 84.94 70.63 84.81 70.75 84.48 71.12 84.2 71.55 84.05 71.86 83.95 72.01 83.81 72.29 83.68 72.5 83.62 72.59 83.49 72.78 83.28 73.09 83.12 73.27 83.07 73.32 82.82 73.55 82.51 73.74 82.48 73.76 82.46 73.77 82.42 73.79 82.08 73.91 81.62 74.01 80.97 73.98 80.37 73.89 79.99 73.78 79.81 73.72 79.36 73.53 79.25 73.48 79.01 73.36 78.36 72.99 78.08 72.81 77.71 72.54 77.29 72.16 76.82 71.7 76.42 71.18 76.25 70.91 76.06 70.57 75.96 70.34 75.87 70.1 75.75 69.55 75.69 68.87 75.75 68.23 75.87 67.65 76.09 67.12 76.2 66.93 76.42 66.63 76.67 66.36 76.82 66.23 77.1 66.05 77.47 65.86 77.76 65.76 78.02 65.68 78.55 65.59 79.37 65.56 80.27 65.56 80.97 65.59 81.02 65.58 81.07 65.59 81.55 65.57 81.74 65.56 82.33 65.53 82.36 65.53 82.97 65.43 83.58 65.31 84.26 65.06 84.38 65 84.45 64.97 84.6 64.91 84.65 64.88 84.72 64.85 84.81 64.79 85.03 64.66 85.34 64.45 85.61 64.27 85.77 64.13 85.8 64.11 85.92 63.99 85.98 63.9 86.01 63.87 86.01 63.84 85.98 63.8 85.86 63.8 85.34 63.87 84.78 63.99 84.2 64.14 83.62 64.33 83.46 64.37 83.15 64.45 82.66 64.57 82.17 64.66 81.71 64.73 81.34 64.73 80.85 64.66 80.6 64.54 80.39 64.36 80.17 64.14 79.99 63.87 79.91 63.68 79.87 63.56 79.84 63.28 79.84 63.27 79.87 63.01 79.96 62.88 80.08 62.76 80.3 62.61 80.54 62.45 80.85 62.3 81.16 62.14 81.43 62.02 81.65 61.93 81.03 61.62 80.88 61.44 80.8 61.25 80.76 61.13 80.7 60.85 80.7 60.58 80.73 60.27 80.77 60.06 80.79 59.99 80.91 59.78 81.19 59.56 81.53 59.38 81.75 59.29 81.99 59.23 82.48 59.13 83.03 59.04 83.55 58.98 84.02 58.95 84.48 58.92 84.84 58.86 85.64 58.73 85.86 58.7 86.69 58.52 86.44 58.46 86.17 58.43 85.92 58.43 85.57 58.47 85.31 58.49 84.91 58.49 84.35 58.46 83.83 58.4 83.58 58.36 83.43 58.33 83.34 58.33 83.26 58.32 82.91 58.27 82.2 58.27 81.8 58.3 81.34 58.4 81 58.49 80.63 58.61 80.2 58.76 79.77 58.89 79.44 58.95 79.13 59.01 78.82 59.01 78.55 58.95 78.3 58.83 78.15 58.67 78.02 58.46 77.93 58.18 77.9 57.84 77.93 57.35 78.05 56.92 78.24 56.55 78.48 56.28 78.76 56.03 79.13 55.85 79.5 55.72 79.93 55.6 80.63 55.51 81.37 55.48 82.11 55.48 82.82 55.51 83.4 55.51 83.65 55.48 83.77 55.45 83.89 55.41 84.11 55.35 84.29 55.32 84.81 55.32 85.22 55.37 85.53 55.43 85.61 55.45 86.26 55.6 86.32 55.62 86.35 55.63 86.9 55.85 87.58 56.09 88.04 56.24 88.23 56.31 88.9 56.49 89.24 56.58 89.61 56.61 90.01 56.61 90.38 56.58 90.62 56.52 90.84 56.4 90.99 56.28 91.11 56.09 91.21 55.85 91.21 55.57 90.81 55.51 90.38 55.51 89.92 55.57 89.49 55.63 89.45 55.63 88.99 55.69 88.62 55.72 88.35 55.72 87.98 55.66 87.64 55.57 87.33 55.38 87.18 55.23 87.03 55.11 87 55.08 86.87 54.92 86.78 54.77 86.72 54.62 86.69 54.49 86.72 54.28 86.84 54.09 87.03 53.94 87.4 53.72 87.83 53.54 88.23 53.39 88.32 53.36 88.81 53.2 88.84 53.19 88.9 53.17 89.04 53.11 89.18 53.05 89.36 52.96 89.42 52.93 89.73 52.62 89.85 52.5 89.92 52.4 89.98 52.31 89.98 52.28 89.42 52.37 88.93 52.53 88.87 52.56 88.75 52.6 88.38 52.71 88.07 52.83 87.95 52.86 87.72 52.93 87.39 53.01 87.3 53.03 87.15 53.05 86.84 53.08 86.26 53.08 85.8 52.99 85.37 52.83 85.15 52.74 84.94 52.62 84.54 52.4 84.29 52.28 84.17 52.22 83.86 52.13 83.79 52.11 83.74 52.1 83.62 52.08 83.49 52.07 83.46 52.07 83.12 52.1 82.79 52.22 82.42 52.4 82.11 52.65 81.74 52.96 81.4 53.29 81 53.69 80.6 54.06 80.46 54.21 80.17 54.43 79.9 54.62 79.69 54.74 79.49 54.8 79.37 54.83 79.13 54.86 78.91 54.83 78.7 54.74 78.51 54.59 78.27 54.28 78.08 53.91 77.93 53.54 77.81 53.14 77.78 52.74 77.78 52.43 77.87 52.07 77.99 51.79 78.21 51.57 78.45 51.42 78.73 51.3 79.07 51.24 79.56 51.17 80.08 51.14 80.57 51.11 81.03 51.08 81.31 51.02 81.37 51 81.62 50.96 81.96 50.87 82.33 50.77 82.59 50.69 82.76 50.65 83.06 50.56 83.31 50.5 83.49 50.37 83.74 50.22 84.29 49.67 84.6 49.36 84.66 49.3 85 48.93 85.15 48.78 85.31 48.59 85.34 48.56 85.58 48.35 86.07 48.04 86.54 47.82 86.78 47.74 86.93 47.7 87.36 47.64 87.83 47.61 87.95 47.61 88.44 47.64 88.93 47.67 88.96 47.67 89.55 47.73 89.58 47.73 90.16 47.76 90.75 47.73 90.81 47.73 90.93 47.7 90.99 47.67 91.08 47.64 91.14 47.58 91.18 47.55 91.18 47.49 91.14 47.49 90.68 47.27 90.34 47.09 90.28 47.06 89.85 46.78 89.79 46.75 89.73 46.71 89.45 46.53 89.12 46.38 88.75 46.26 88.38 46.16 87.98 46.2 87.49 46.32 87 46.5 86.5 46.78 86.04 47.06 85.87 47.18 85.52 47.39 85.06 47.67 84.6 47.89 84.17 48.04 83.74 48.1 83.4 48.07 83.09 47.98 82.91 47.92 82.82 47.89 82.76 47.86 82.54 47.79 82.33 47.79 82.08 47.82 81.83 47.92 81.56 48.1 81.25 48.41 80.97 48.78 80.88 48.93 80.7 49.21 80.58 49.38 80.42 49.58 80.17 49.88 79.9 50.13 79.62 50.31 79.28 50.41 79.04 50.37 78.79 50.31 78.55 50.16 78.24 49.88 77.93 49.51 77.75 49.18 77.59 48.84 77.5 48.5 77.47 48.19 77.47 47.89 77.53 47.73 77.65 47.61 77.81 47.49 78.08 47.39 78.42 47.33 78.76 47.33 79.1 47.36 79.41 47.39 79.65 47.46 79.9 47.15 80.27 46.78 80.33 46.66 80.36 46.63 80.42 46.47 80.7 46.23 80.81 46.16 81.1 46.01 81.34 45.92 81.43 45.89 81.83 45.77 82.45 45.61 82.57 45.58 83.06 45.46 83.62 45.18 83.34 45.15 83.12 45.09 83.11 45.08 82.94 45 82.83 44.92 82.66 44.78 82.45 44.6 82.14 44.29 81.86 43.98 81.62 43.77 81.37 43.58 81.16 43.52 80.97 43.49 80.79 43.52 80.57 43.58 80.27 43.68 79.93 43.8 79.59 43.92 79.28 44.01 79.01 44.04 78.45 44.04 78.25 44 77.87 43.89 77.63 43.8 77.41 43.71 76.92 43.43 76.61 43.22 76.3 42.97 75.87 42.57 75.86 42.56 75.38 41.99 75.35 41.95 74.95 41.37 74.58 40.76 74.37 40.14 74.92 40.14 75.14 40.12 75.23 40.11 75.81 40.08 76.36 40.08 76.82 40.14 77.05 40.19 77.41 40.3 77.87 40.42 78.3 40.51 78.73 40.57 79.5 40.57 79.76 40.55 79.93 40.54 80.11 40.52 80.41 40.49 80.48 40.48 80.52 40.47 80.94 40.42 81.62 40.33 82.17 40.26 82.2 40.26 82.72 40.3 83.31 40.39 83.92 40.57 84.54 40.85 85.09 41.14 85.12 41.16 85.34 41.28 85.43 41.32 85.74 41.49 85.95 41.59 86.2 41.71 86.69 41.92 87.21 42.08 87.86 42.2 88.06 42.21 88.23 42.23 89.18 42.23 89.95 42.2 90.71 42.2 90.71 42.14 90.68 42.05 90.65 41.92 90.59 41.77 90.47 41.49 90.44 41.43 90.41 41.34 90.35 41.28 90.16 41.03 89.88 40.88 89.77 40.84 89.64 40.79 89.33 40.73 88.99 40.69 88.01 40.69 87.4 40.66 87.03 40.63 86.75 40.56 86.69 40.54 86.44 40.42 86.17 40.2 86.01 39.99 85.92 39.8 85.81 39.59 85.79 39.51 85.74 39.34 85.71 39.16 85.71 39 85.8 38.7 85.98 38.42 86.14 38.27 86.29 38.14 86.63 37.9 87.06 37.68 87.12 37.65 87.27 37.59 87.67 37.44 88.23 37.28 88.76 37.19 88.84 37.35 88.96 37.56 89.09 37.78 89.1 37.79 89.21 37.99 89.33 38.21 89.55 38.64 89.95 39.4 90.19 39.9 90.84 41.19 90.96 41.43 91.08 41.68 91.13 41.79 91.22 41.99 91.54 42.66 91.73 43.07 91.76 43.15 91.81 43.23 92.07 43.8 92.28 44.26 92.4 44.54 92.46 44.69 92.5 44.81 92.62 45.09 92.7 45.25 92.74 45.34 92.77 45.42 92.83 45.58 92.91 45.74 92.96 45.83 92.98 45.88 93.05 46.1 93.12 46.24 93.41 47 93.45 47.12 93.47 47.17 93.88 48.22 94.06 48.72 94.68 50.44 95.11 51.7 95.29 52.25 95.39 52.53 95.42 52.62 95.53 52.99 95.54 53.05 95.56 53.1 96.06 54.8 96.09 54.89 96.52 56.46 96.58 56.71 96.6 56.78 96.65 56.95 96.71 57.17 96.98 58.28 96.98 58.3 96.99 58.35 97.08 58.7 97.2 59.23 97.28 59.59 97.29 59.66 97.35 59.9 97.36 59.93 97.41 60.12 97.44 60.27 97.44 60.3 97.48 60.52 97.52 60.63 97.57 60.92 97.6 61.1 97.63 61.32 97.65 61.39 97.75 61.9 97.78 62.08 97.81 62.27 97.84 62.48 97.87 62.67 98.03 63.74 98.06 63.97 98.06 63.99 98.08 64.09 98.09 64.17 98.15 64.64 98.15 64.73 98.18 64.91 98.21 65.1 98.21 65.28 98.24 65.46 98.26 65.55 98.27 65.82 98.27 65.99 98.29 66.06 98.31 66.32 98.34 66.79 98.34 66.85 98.37 67.49 98.4 68.32"/>
      <path class="cls-4" d="M56.73,29.11l-.03.11-.04.14v.08l-.02.12h0v.19l.03.07v.12l.04.06.03.12v.02l.03.07.03.1.03.08v.1s.03.21.03.21v1.2l.02.1v.12s.07.14.07.14l.02.07.07.22.13.39.06.38v.27l-.03.06v.04h-.03v.02l-.06-.14-.04-.07-.03-.12-.03-.1-.03-.11v-.08s-.03-.08-.03-.08l-.03-.13-.05-.19-.04-.2-.03-.1v-.03s-.16-.53-.16-.53v-.02l-.06-.18-.15-.46-.21-.56v-.04s-.04-.08-.04-.08l-.06-.12-.04-.09-.08-.16-.06-.1-.06-.08-.03-.06-.08-.11-.02-.02-.09-.12-.09-.1h-.02s-.01-.02-.01-.02l-.06-.07-.09-.06h-.01l-.21-.16-.22-.15-.24-.15-.25-.16-.27-.12-.28-.12-.28-.13-.3-.12-.44-.14-.43-.13-.46-.12-.46-.1-.34-.06-.36-.07-.37-.02-.34-.04-.34-.02h-.64l-.31.02-.28.04h-.18l-.16.02-.18.04-.18.03-.16.04-.12.06-.09.02-.07.06-.09.06-.06.1-.06.07-.03.08-.03.12-.03.19v.18l-.03.22v.61l.03.18v.23l.03.17h0s.04.19.04.19l.23.98.39.97.05.12.16.26.05.09v.03s.17.25.17.25l.17.28.04.04.11.12.59.64.76.63.13.11.09.06.24.15.42.27.05.02.49.26.86.41.67.21.5.18.12.04h.03v.02l.03.03.03.04h-.92l-.43-.04-.15-.03h-.07s-.03-.02-.03-.02l-.03-.02-.18-.04-.12-.05h-.04s-.64-.26-.64-.26l-.65-.18h-.21l-.16.03-.21.09-.46.27-.83.62-.71.69-.58.73-.52.79-.52,1.04-.03.06-.41,1.08-.37,1.2-.36,1.21-.28.85-.15.47-.2.67-.06.27-.08.81,1.1-1.06.42-.37.72-.63.1-.09.18-.16.25-.18.21-.14.21-.15.16-.11.18-.1.74-.39.89-.31.15-.06.41-.1.61-.14.39-.07.22-.04h.11s.66-.12.66-.12l1.38-.25.19-.06.18-.05.09-.04.27-.07.16-.07.1-.05.03-.02.07-.1.02-.06.03-.12v-.02l.03-.29v-.49l.14-.71.02-.12.07-.21.05-.22.05-.12.07-.21.28-.58.4-.54.49-.43.09-.06.46-.3.22-.09h.01l.39-.18.16-.05.57-.14.13-.04.64-.02-1.32.49-.34.24-.18.13-.03.03-.07.06-.1.09-.16.16-.24.23h-.02s-.03.06-.03.06l-.21.26-.15.25-.21.32-.32.75-.12.52h0s-.01.06-.01.06l-.02.31.02.22.04.25.09.42h0s.05.16.05.16l.17.51.15.45.03.08h0s.02.05.02.05l.02.04.21.49.21.49.09.19.13.27v.04s.03.02.03.02l.15.29.03.06.34.62.58,1.07.62,1.05.03.06.18.29.37.62.56.92.46.81.12.15.15.24.19.31.03.06.18.29.16.23.15.19.03.04.12.12.03.02h.1v-.12l.03-.02.06-.09.03-.04.13-.12.05-.04.04-.03.12-.12.77-1.05.14-.21.35-.59.55-1.01.59-1.2.55-1.19.92-2.82.18.76.19.8.05.27.07.31v.04l.09.58.1,1.91v1.92l-.03.92v.22s0,.02,0,.02v.19s-.15,1.94-.15,1.94v.09s-.03.22-.03.22l-.02.19-.17,1.3-.25,1.53-.05.34-.03.1-.06.38-.43,1.85-.23.81-.02.07v.05s-.15.49-.15.49l-.29.77-.05.14-.06.18-.31.62-1.2,1.91-.02.02-.29.46-.04.07-.35.52h0s-.42.6-.42.6l-.14.21-.64.94-.16.22-.12.17-.13.19-.68.96-.88,1.23-.68,1-.27.39-.22.34-.09.12-.98,1.51-.07.1-.09.14-.34.58-.1.18-.29.5-.29.51-.11.19-.04.07-.98,1.93-.69,1.68-.17.41h0s-.41,1.22-.41,1.22l-.11.34-.03.09-.03.11-.05.15-.09.33-.17.59-.05.21-.24.95-.06.3-.19.99-.17,1.24-.06,1.14v.88h.06l.16-.06.18-.13.22-.12.24-.14.16-.12.06-.05.02-.02.07-.1.03-.02.03-.04.22-2.02.04-.24v-.03s.01,0,.01,0l.02-.13.02-.15.02-.07.05-.28h0s.14-.9.14-.9l.21-.9.13-.59.09-.39.56-1.85.09-.25.58-1.62.83-1.84.99-1.79.71-1.12.05-.08.14-.2.33-.48.2-.27.16-.25.1-.12.4-.55.18-.2.03-.05.71-.83.73-.7.1-.1.14-.12.1-.08.08-.06.16-.14.41-.34.49-.39.2-.15,1.64-1.27,1.02.31,1,.17h.07s.26.02.26.02l.33.03h.13l.32-.03h.25s.34-.07.34-.07h.06s.05-.01.05-.01l.08-.02.15-.04.71-.2.77-.42h.03s.07-.07.07-.07l.17-.13.46-.37.1-.08.43-.43.21-.23.09-.1.03-.04.04-.06.04-.06.23-.25.37-.56.18-.27.08-.12.02-.05.25-.38.12-.19.31-.62.12-.23.03-.06.09-.16.12-.3.22-.48.09-.27.28-.83.12-.49.15-.7.12-.97v-.86l-.03-.23-.06-.19-.09-.12-.09-.1-.12-.02-.13.02-.15.06-.31.22-.31.27-.33.38-.15.16-.19.23-.02.03-.17.19-.37.37-.86.73-.12.09-.15.13-.13.07-.98.67-.33.22-.38.25-.26.17-.23.15-.02.03-.93.65h-.01l-.02.03-.18.13-.39.33-.11.1-.06.06-.09.08-.4.4-.09.1-.09.13-.04.05h0s-.23.28-.23.28l-.15.23-.03.05-.02.02h0s-.05.07-.05.07l-.02.05-.13.19-.21.48h-.01v.03l-.3.94-2.71,2.06.31-.56.28-.43.89-1.26.86-1.16.56-.88.18-.31.15-.29.31-.64.46-1.24.35-1.57h0s.01-.05.01-.05l.17-.93v-.07s.01-.01.01-.01l.1-.63v-.04l.16-1.24v-.06l.2-2.76.02-.31.08-2.83.03-1.04v-.23l-.03-.7-.02-.73-.04-.65-.09-.98-.15-.96-.2-.59v-.03l-.23-.58-.22-.55-.12-.32-.03-.07v-.04s-.03-.05-.03-.05l-.09-.48-.07-.51v-.59l-.03-.71-.15-.74-.28-.55-.37-.45-.22-.2-.06-.06-.38-.29-.04-.02-.37-.23-.24-.13-.07-.02-.12-.06h-.03l-.43-.17-.46-.02-.59-.04-.09-.02-.03-.04v-.06l.03-.02.67-.17.1-.02h.06s.23,0,.23,0h.48l.16.05h.09s.02.01.02.01l.05.02.1.02.15.05.13.04.04.02.05.02h0s.01.01.01.01h.03s.15.09.15.09l.11.06.35.19.55.49.47.58.03.04.36.68.25.7.03.12.15.58.19.72.1.33.21.53.04.09.05.08.31.5.67.73.34.4.28.31.18.25.15.18.1.15.03.03.43.68.27.65.04.09h0s.09.21.09.21l.09.31.03.1.06.15.22.61.24.63.31.57.09-.43.09-.45.13-.71.34-1.17.36-1.24.1-.32.05-.2.19-.67.03-.13v-.02l.16-.84.09-.74.03-.27v-.88M72.43,40.82l-.03-.1v-.15l-.03-.1v-.09l-.03-.19-.03-.2v-.05s-.03-.14-.03-.14l-.07-.34-.06-.33-.05-.3-.07-.26-.15-.44-.09-.26-.1-.26-.06-.15-.03-.06-.06-.09-.11-.18-.17-.25-.12-.19-.09-.12-.19-.21-.24-.18-.25-.19-.15-.1h-.03s-.19-.08-.19-.08l-.21-.1-.16-.04-.12-.03-.12-.02-.22-.06-.21-.04h-.19l-.15-.02h-.25l-.06-.04h-.03l-.03-.02v-.04l.03-.02.06-.04.09-.06.16-.07.18-.08.19-.06.27-.13.34-.16.31-.15.31-.14.43-.29.37-.27.36-.3.34-.3h.03s.03-.05.03-.05l.34-.31.22-.17.06-.06.27-.25.16-.11.09-.07.28-.19.3-.18.25-.13.06-.04h.05s.11-.06.11-.06l.12-.02.12-.04.22-.06.18-.02h.06l.16-.04h.09l.21-.02h.03l.13-.04.09-.03.09-.04.03-.06.03-.06.03-.09-.03-.12-.03-.1-.06-.15-.09-.14-.16-.19-.07-.11-.05-.05-.18-.21-.03-.04-.25-.2-.16-.16-.05-.03-.34-.25-.16-.1-.24-.15-.4-.2-.43-.23-.49-.2-.56-.17-.52-.14-.55-.12-.56-.11-.52-.08-.49-.04-.49-.02-.43-.04h-.43l-.37.04h-.15l-.37.02-.25.03-.18.03-.21.04h-.04l-.28.06-.24.09-.22.06-.21.1-.15.08-.16.13-.07.05-.05.07-.12.24v.17l.03.14.03.19.03.19.06.18v.13l.03.18v.19l-.03.2v.1l-.03.15-.03.22-.02.05v.1s-.07.24-.07.24v.07l-.07.27-.06.41-.02.05h0s-.01.02-.01.02h0s-.04.15-.04.15l-.02.09-.09.14-.62,1.08.03-.42.03-.15.05-.22v-.02l.05-.29.09-.43v-.03l.03-.16h0s.03-.16.03-.16l.03-.12v-.08l.03-.11v-.06l-.22-.09-.08-.03-.12-.05.15.05.05.03.1.03.12.06v-.7l.03-.27.03-.29.03-.3.04-.31v-.34l.03-.31-.03-.33v-.22l-.04-.21-.03-.22-.06-.19-.12-.35-.12-.17-.1-.14-.24-.25-.25-.24-.27-.23-.31-.2-.31-.23-.31-.21-.33-.19-.31-.14-.34-.12-.31-.11-.3-.08-.34-.06-.31-.06h-.86l-.31.02-.3.06-.34.06-.37.06-.4.13-.37.12-.34.15-.27.16-.28.15-.25.16-.21.19-.22.2-.15.17-.12.18-.13.19-.09.18-.06.21-.03.12-.03.09v.1l.03.08.03.07.12.12.13.06.12.04.12.02h.22l.24.04h.16l.15.02h.12l.1.04.06.03.09.06.03.06.06.1.03.08.03.13.06.16v.12l.03.12.04.09.03.1"/>
      <polygon class="cls-4" points="62.58 36.82 62.32 36.82 62.35 36.81 62.58 36.82"/>
      <polygon class="cls-4" points="63.32 36.88 63.27 36.88 63.22 36.87 63.27 36.87 63.32 36.88"/>
      <polygon class="cls-4" points="63.64 36.98 63.48 36.93 63.39 36.91 63.48 36.93 63.64 36.98"/>
      <polygon class="cls-4" points="63.85 37.05 63.85 37.06 63.8 37.04 63.85 37.05"/>
      <polygon class="cls-3" points="64.62 31.66 64.57 31.91 64.53 32.13 64.53 32.14 64.51 32.2 64.49 32.24 64.49 32.24 64.39 32.51 63.76 33.6 63.79 33.32 63.79 33.31 63.82 33.18 63.82 33.18 63.86 32.93 63.88 32.8 63.88 32.79 63.89 32.74 63.95 32.39 64.01 32.06 64.01 32.05 64.04 31.97 64.04 31.93 64.07 31.78 64.1 31.6 64.14 31.41 64.14 31.35 64.62 31.66"/>
      <polygon class="cls-3" points="57.22 33.32 57.22 33.53 57.2 33.66 57.2 33.69 57.16 33.69 57.16 33.72 57.1 33.57 57.07 33.44 56.96 33.1 56.95 33.01 56.91 32.88 56.89 32.74 56.82 32.45 56.77 32.29 56.76 32.2 56.7 32.03 56.64 31.84 56.64 31.81 56.57 31.63 56.51 31.41 56.49 31.34 56.45 31.19 56.45 31.18 56.42 31.11 56.32 30.82 56.3 30.76 56.27 30.72 56.17 30.45 56.1 30.32 56.05 30.22 55.99 30.12 55.9 29.94 55.84 29.88 55.76 29.78 55.74 29.75 55.65 29.63 55.57 29.54 55.54 29.53 55.53 29.51 55.47 29.44 55.39 29.38 55.38 29.38 55.28 29.29 55.16 29.23 55.26 29.23 55.34 29.19 55.47 29.18 55.57 29.18 55.68 29.13 55.84 29.13 55.96 29.11 56.73 29.11 56.7 29.23 56.66 29.36 56.66 29.38 56.64 29.54 56.64 29.56 56.64 29.57 56.64 29.75 56.66 29.82 56.66 29.94 56.7 30 56.73 30.12 56.73 30.14 56.76 30.22 56.79 30.31 56.82 30.39 56.82 30.45 56.83 30.49 56.85 30.7 56.85 31.91 56.88 32 56.89 32.12 56.95 32.26 56.96 32.34 56.97 32.39 57.03 32.55 57.16 32.94 57.22 33.32"/>
      <polygon class="cls-3" points="77.35 88.51 77.22 88.48 77.1 88.48 76.85 88.6 76.61 88.79 76.39 88.97 74.83 89.82 73.32 90.59 72.71 90.87 72.21 91.09 72.15 91.11 71.57 91.32 70.92 91.51 69.82 91.8 68.71 91.94 68.26 91.94 67.64 91.93 67.14 91.88 66.65 91.82 66.28 91.76 66.01 91.62 65.91 91.55 65.82 91.49 65.64 91.43 65.64 91.39 65.61 91.34 65.62 91.24 65.64 91.09 65.73 90.6 65.73 90.57 65.82 90.01 65.98 89.45 66.1 88.91 66.1 88.88 66.22 88.43 66.32 88.01 66.34 87.76 66.47 87.22 66.51 87.07 66.59 86.63 66.62 86.48 66.65 86.3 66.71 85.87 66.74 85.72 66.82 85.16 66.82 84.88 66.78 84.63 65.64 86.64 64.98 87.73 64.89 87.86 64.14 88.97 63.27 90.11 62.53 90.82 62.51 90.85 61.7 91.43 60.95 91.86 60.78 91.94 60.72 91.98 60.64 92.01 59.49 92.5 59.46 92.51 59.36 92.55 58.17 92.97 56.89 93.43 56.39 93.63 55.8 93.88 55.32 94.1 54.85 94.29 54.48 94.41 54.3 94.41 54.05 94.38 54.05 94.26 54.08 94.26 54.14 94.18 54.51 93.76 54.61 93.68 55.08 93.23 55.51 92.88 56.02 92.38 57.2 91.03 57.57 90.55 58.29 89.59 58.32 89.53 58.95 88.54 59.26 88.05 59.32 87.95 59.98 86.66 60.11 86.43 60.12 86.38 60.17 86.3 60.95 84.61 60.99 84.45 61.07 84.3 61.47 83.07 61.74 82.3 61.77 82.18 61.8 82.09 62.28 80.22 62.35 79.93 62.39 79.82 62.76 77.57 62.82 77.26 62.84 77.01 62.84 76.76 62.82 76.64 62.82 76.59 62.78 76.59 62.78 76.56 62.64 76.95 62.51 77.26 61.18 79.97 60.16 81.88 59.26 83.45 58.62 84.49 57.85 85.64 57.23 86.59 55.47 88.91 55.26 89.19 55.14 89.32 55.07 89.41 54.97 89.53 54.76 89.76 54.73 89.8 54.58 89.95 54.45 90.01 54.27 90.07 53.88 90.19 53.45 90.29 53.01 90.38 52.73 90.44 52.42 90.51 52.02 90.6 51.99 90.6 51.7 90.66 48.71 91.43 47.89 91.68 44.93 92.54 40.35 94.04 40.35 93.98 40.39 93.93 40.41 93.82 40.78 93.37 41.27 92.84 41.55 92.57 41.98 92.07 42.82 91.03 43.45 90.05 43.48 89.99 43.97 89.1 43.99 89.07 44.01 89.03 44.4 88.13 44.43 88.07 44.77 87.13 45.05 86.14 45.29 85.07 45.45 84.24 45.51 83.95 45.79 82.63 46.32 80.49 46.71 79.13 47.2 77.82 47.2 77.82 47.2 77.79 47.32 77.66 47.39 77.51 47.39 77.5 47.41 77.44 47.45 77.32 47.48 77.24 47.48 77.24 47.49 77.19 47.54 77.07 47.6 76.86 48.24 75.76 48.29 75.68 48.29 75.68 48.43 75.44 48.61 75.18 48.61 75.17 48.64 75.13 48.66 75.11 48.66 75.11 49.2 74.32 49.2 74.31 49.76 73.55 50.8 72.16 51.2 71.63 51.2 71.62 51.23 71.57 51.82 70.78 52.02 70.5 52.73 69.43 52.73 69.43 53.02 68.89 53.39 68.26 53.39 68.25 53.59 67.88 53.7 67.66 53.71 67.61 53.83 67.32 53.9 67.16 53.93 67.09 54.27 66.29 54.32 66.14 54.39 65.97 54.6 65.32 54.92 64.23 55.18 63.11 55.24 62.82 55.29 62.61 55.29 62.61 55.34 62.36 55.53 60.61 55.47 60.61 55.45 60.63 55.34 60.69 54.79 61.19 54.67 61.31 54.64 61.34 54.6 61.37 54.57 61.39 54.45 61.5 54.36 61.56 54.05 61.78 52.89 62.48 52.14 62.87 52.07 62.91 51.7 63.1 50.64 63.64 50.3 63.85 50.21 63.89 50.01 64.03 49.66 64.23 49.59 64.29 49.57 64.3 49.57 64.3 49.51 64.35 49.45 64.38 49.43 64.41 49.41 64.42 49.41 64.43 49.36 64.45 49.26 64.51 48.74 64.97 48.24 65.45 48.16 65.57 48.15 65.57 48.07 65.68 48.07 65.68 48.01 65.74 47.82 66.01 47.51 66.48 47.28 66.91 47.01 67.44 46.93 67.64 46.8 68.03 46.59 68.69 46.59 68.72 46.57 68.76 46.42 69.51 46.3 70.43 46.28 70.57 46.2 71.88 46.2 72.16 46.2 72.29 46.2 72.54 46.21 72.78 46.22 73.09 46.26 73.67 46.26 73.68 46.27 73.75 46.28 73.98 46.29 74.09 46.32 74.31 46.46 75.48 46.34 75.6 46.28 75.6 46.22 75.57 46.15 75.54 46.12 75.51 46.07 75.48 46.01 75.43 45.91 75.32 45.89 75.3 45.79 75.18 45.79 75.17 45.57 74.81 45.14 74.16 44.59 73.01 44.38 72.41 44.16 71.82 43.89 70.72 43.85 70.57 43.67 69.26 43.64 68.82 43.6 68.13 43.61 68.06 43.6 67.94 43.7 66.79 43.7 66.6 43.73 66.39 43.76 66.29 43.91 65.37 44.22 64.19 44.53 63.44 44.68 63.1 44.71 63.04 45.07 62.34 45.23 62.01 45.82 61.16 46.62 60.18 46.72 60.07 47.05 59.72 47.64 59.13 47.85 58.93 48.74 58.06 48.74 58.05 48.82 57.99 48.85 57.94 49.32 57.44 49.41 57.32 49.54 57.19 49.65 57.04 49.84 56.8 50.11 56.38 50.18 56.28 50.21 56.24 50.26 56.18 50.3 56.09 50.7 55.35 50.73 55.26 50.74 55.25 51.01 54.62 51.07 54.44 51.09 54.38 51.16 54.22 51.17 54.18 51.2 54.06 51.26 53.85 51.45 53.01 51.51 52.28 51.51 51.63 51.41 50.76 51.23 50.07 51.16 49.79 51.14 49.74 51.14 49.74 51.14 49.68 51.07 49.53 50.98 49.3 50.61 48.59 50.49 48.38 50.41 48.26 50.4 48.25 50.34 48.18 50.3 48.1 50.26 48.04 50.2 47.94 50.15 47.87 50.07 47.73 50.03 47.69 49.92 47.54 49.84 47.43 49.64 47.12 49.58 47.05 49.39 46.78 49.23 46.55 49.17 46.47 49.14 46.44 49.07 46.35 48.98 46.19 48.84 46.04 48.77 45.94 48.71 45.86 48.68 45.84 48.64 45.8 48.58 45.76 48.55 45.73 48.52 45.73 47.97 47.98 47.89 48.62 47.89 49.26 47.93 49.59 47.95 49.69 48.09 50.28 48.32 50.72 48.4 50.87 48.59 51.16 48.61 51.18 48.61 51.19 48.64 51.24 48.86 51.6 48.8 51.63 48.71 51.68 48.52 51.76 48.03 51.91 47.48 52.03 47.22 52.1 46.95 52.16 46.82 52.18 46.52 52.25 46.12 52.31 45.97 52.34 45.79 52.37 45.6 52.39 45.36 52.43 44.57 52.56 44.4 52.59 43.97 52.62 43.47 52.63 43.38 52.63 42.98 52.59 42.49 52.5 42.12 52.37 41.97 52.32 41.92 52.3 41.89 52.28 41.86 52.26 41.77 52.22 41.42 52 40.93 51.68 40.47 51.14 40.33 50.95 40.28 50.88 40.16 50.74 40.03 50.51 39.92 50.34 39.88 50.24 39.85 50.22 39.67 49.82 39.58 49.63 39.55 49.57 39.52 49.51 39.45 49.25 39.27 48.72 38.95 47.31 38.93 47.2 38.92 47.07 38.78 45.69 38.76 45.09 38.72 44.29 38.7 44.32 38.6 44.41 38.57 44.47 38.47 44.66 38.36 44.82 38.35 44.84 38.33 44.87 38.29 44.94 38.23 45.06 38.2 45.12 37.73 46.04 37.58 46.35 37.53 46.48 37.49 46.56 37.45 46.7 37.43 46.73 37.41 46.81 37.3 47.09 37.12 47.55 36.84 48.78 36.76 49.76 36.76 49.85 36.76 50.06 36.76 50.1 36.77 50.56 36.78 50.8 36.78 50.87 36.82 51.06 36.82 51.07 36.95 51.91 37.18 52.93 37.18 52.93 37.24 53.18 37.39 53.67 37.39 53.68 37.58 54.36 37.58 54.37 37.66 54.79 37.67 54.86 37.67 54.88 37.7 55.35 37.7 55.72 37.58 56.39 37.47 56.79 37.45 56.86 37.45 56.86 37.45 56.88 37.4 57.03 37.32 57.24 37.32 57.24 37.3 57.29 37.26 57.44 37.21 57.54 37.04 57.98 36.84 58.39 36.41 59.23 35.95 60.01 35.77 60.32 35.67 60.54 35.46 60.94 35.21 61.56 35.09 61.98 35.03 62.32 35.01 62.63 35.01 62.69 35.07 63.13 35.21 63.68 35.52 64.26 35.64 64.43 35.98 64.87 35.98 64.88 36.26 65.13 36.32 65.16 36.39 65.19 36.43 65.23 36.46 65.24 36.54 65.31 36.66 65.37 36.84 65.45 37.09 65.59 37.55 65.82 37.7 65.95 37.83 66.07 37.89 66.19 37.91 66.32 37.89 66.51 37.89 66.54 37.83 66.79 37.73 67.05 37.73 67.06 37.72 67.09 37.7 67.12 37.55 67.51 37.38 67.98 37.34 68.05 37.34 68.05 37.3 68.19 37.24 68.38 37.24 68.57 37.3 68.81 37.38 68.94 37.46 69.12 37.58 69.34 37.7 69.43 37.86 69.51 38.01 69.57 38.16 69.63 38.23 69.68 38.39 69.76 38.45 69.8 38.45 69.82 38.47 69.86 38.47 69.93 38.45 70.04 38.43 70.1 38.41 70.19 38.35 70.41 38.23 70.75 38.14 71.06 38.14 71.11 38.11 71.24 38.1 71.3 38.1 71.3 38.14 71.57 38.14 71.63 38.16 71.72 38.16 71.73 38.18 71.78 38.23 71.88 38.29 72.04 38.3 72.05 38.35 72.16 38.51 72.38 38.78 72.72 38.96 72.87 39.07 72.93 39.18 73.01 39.42 73.18 39.61 73.3 39.7 73.38 39.73 73.41 39.76 73.44 39.76 73.48 39.79 73.48 39.67 74.07 39.61 74.6 39.61 74.62 39.58 75.2 39.61 75.48 39.61 75.73 39.7 76.14 39.73 76.3 39.73 76.31 39.76 76.39 39.89 76.82 39.92 76.89 39.95 76.99 39.97 77.03 40.07 77.19 40.26 77.5 40.26 77.51 40.32 77.63 40.35 77.66 40.39 77.7 40.4 77.72 40.45 77.79 40.84 78.22 41.4 78.6 41.61 78.74 41.67 78.76 41.82 78.86 42.26 79.01 42.34 79.05 42.35 79.05 42.41 79.07 42.7 79.13 42.88 79.18 43.01 79.19 43.27 79.23 44.1 79.23 44.51 79.14 44.7 79.12 44.83 79.11 44.93 79.07 45.26 78.99 45.7 78.86 45.89 78.78 46.52 78.49 46.28 78.76 46.07 79.07 45.79 79.6 45.48 80.25 44.86 81.63 44.38 83.07 44.1 84.32 43.95 85.62 43.91 86.91 43.89 86.91 43.89 86.94 43.85 86.94 43.73 87.01 43.57 87.07 43.45 87.13 42.74 87.25 41.95 87.28 39.95 87.28 37.18 87.37 33.65 87.53 31.86 87.53 32.64 86.05 33.12 85.13 33.57 84.2 34.29 82.37 34.89 80.43 35.21 78.76 35.4 77.07 35.38 75.43 35.38 75.32 35.34 75.2 35.32 75.11 35.32 75.07 35.28 75.07 35.28 75.05 34.23 77.54 33.49 79.07 32.66 80.55 31.83 81.94 30.91 83.29 30.08 84.36 29.2 85.41 28.21 86.36 27.62 86.88 27.04 87.34 26.55 87.7 25.96 87.99 25.35 88.18 23.95 88.44 22.52 88.57 20.71 88.63 18.9 88.63 18.71 88.68 18.45 88.68 18.04 88.69 17.67 88.63 17.58 88.6 17.54 88.54 17.51 88.51 17.51 88.43 17.54 88.38 17.64 88.26 17.85 88.11 18.1 87.93 18.45 87.7 18.74 87.5 18.99 87.31 19.14 87.22 20.53 86.01 21.95 84.68 23.32 83.16 24.55 81.66 25.7 80.12 26.67 78.51 27.47 76.99 27.53 76.82 27.57 76.76 27.59 76.7 27.59 76.68 27.57 76.64 27.57 76.62 25.47 79.38 24.42 80.6 23.99 81.07 23.43 81.68 21.11 84.06 20.2 85.04 19.95 85.29 19.6 85.62 18.93 86.18 18.14 86.66 17.3 87.07 16.39 87.41 15.79 87.59 15.24 87.74 14.26 87.93 13.36 88.01 12.45 88.01 12.32 87.99 12.17 87.95 12.01 87.89 11.98 87.87 11.98 87.84 11.95 87.84 11.95 87.81 13.43 86.94 13.53 86.87 13.67 86.79 14.74 86.06 14.84 85.99 14.86 85.98 15.33 85.64 15.95 85.16 16.2 84.98 16.51 84.72 17.33 84.06 17.73 83.69 19.2 82.37 20.26 81.35 20.89 80.74 21.36 80.25 21.79 79.82 22.2 79.38 22.49 79.07 22.58 78.97 22.89 78.64 23.91 77.48 23.95 77.43 24.12 77.23 24.8 76.34 25.07 75.91 25.07 75.88 25.12 75.76 25.23 75.54 25.32 75.32 25.35 75.24 25.66 74.5 25.93 73.69 26.21 72.89 26.43 72.16 26.61 71.57 27.16 69.57 27.43 68.48 27.45 68.39 27.65 67.57 27.82 66.81 27.9 66.43 28.3 64.38 28.24 64.32 28.09 64.32 27.72 64.38 27.51 64.51 27.32 64.69 26.95 65.03 26.55 65.31 26.03 65.59 25.73 65.72 25.14 65.88 25.07 65.89 24.95 65.93 24.4 66.01 24.43 65.76 24.46 65.63 24.51 65.48 24.64 65.13 24.86 64.66 25.2 63.95 25.41 63.56 25.96 62.36 26.11 61.98 26.39 61.28 26.7 60.36 26.92 59.56 26.95 59.43 27.1 58.93 27.26 58.39 27.41 57.78 27.42 57.66 27.45 57.6 27.51 57.07 27.57 56.63 27.65 55.81 27.72 54.86 27.82 53.26 27.96 51.82 28.21 50.53 28.52 49.43 28.82 48.44 29.16 47.61 29.47 46.93 29.74 46.41 29.96 46.04 30.08 45.82 30.11 45.8 31.26 44.01 32.39 42.19 33.43 40.69 34.54 39.25 35.74 37.93 36.32 37.38 36.95 36.85 37.52 36.51 38.14 36.2 38.78 36.01 38.72 36.26 38.6 36.44 38.39 36.68 38.16 36.85 37.46 37.84 36.84 38.82 36.32 39.86 35.86 40.91 35.32 42.26 34.76 43.61 34.17 44.97 33.49 46.26 32.95 47.09 32.33 47.82 31.51 48.64 30.57 49.51 31.32 49.82 32.05 50.04 33.07 50.16 34.05 50.22 33.01 50.01 32.82 49.94 32.57 49.85 32.3 49.76 31.8 49.55 31.59 49.44 31.51 49.38 31.43 49.32 31.4 49.24 31.38 49.2 31.38 49.11 31.4 49.11 31.47 49.07 31.71 48.93 31.93 48.81 32.14 48.68 32.26 48.59 33.03 47.94 33.68 47.2 34.17 46.44 34.57 45.61 35.12 44.13 35.58 42.6 36.14 41.06 36.78 39.64 37.58 38.3 38.35 37.22 39.27 36.26 40.29 35.44 40.1 35.44 39.85 35.5 39.55 35.5 39.52 35.47 39.49 35.44 39.49 35.38 39.52 35.29 39.55 35.19 39.67 35.01 39.85 34.79 40.16 34.51 40.53 34.18 40.99 33.81 41.42 33.44 41.82 33.13 42.14 32.93 43.17 32.06 43.85 31.51 44.57 30.98 45.11 30.68 45.64 30.43 46.38 30.22 47.14 30.12 47.18 30.3 47.32 31.07 47.4 31.3 47.4 31.3 47.41 31.35 47.46 31.45 47.64 31.94 47.76 32.18 47.8 32.25 47.85 32.37 47.89 32.45 48.07 32.73 48.07 32.75 48.23 33 48.4 33.29 48.45 33.32 48.49 33.41 49.23 34.2 49.51 34.43 49.78 34.68 50.03 34.82 50.12 34.88 50.52 35.16 50.78 35.3 50.83 35.32 51.04 35.47 51.09 35.49 51.1 35.5 52.18 35.99 52.7 36.18 53.35 36.38 53.47 36.43 53.51 36.44 53.53 36.48 53.57 36.51 52.64 36.51 52.07 36.44 51.93 36.41 51.8 36.36 51.68 36.31 51.64 36.3 51.59 36.3 51.46 36.24 51.32 36.18 50.95 36.05 50.8 35.99 50.3 35.87 50.03 35.87 49.93 35.91 49.84 35.93 49.72 35.99 49.54 36.09 49.26 36.26 48.43 36.88 47.72 37.57 47.7 37.59 47.14 38.3 47.11 38.32 46.62 39.1 46.59 39.13 46.15 39.99 46.1 40.13 46.07 40.19 45.7 41.16 45.29 42.43 44.93 43.68 44.65 44.54 44.51 45 44.38 45.37 44.3 45.68 44.26 45.86 44.24 45.94 44.22 46.04 44.16 46.75 45.05 45.93 45.68 45.32 46.4 44.69 47.35 43.98 48.43 43.37 49.32 43.06 49.89 42.91 50.49 42.76 50.89 42.69 51.21 42.64 52.18 42.51 53.26 42.29 53.41 42.26 53.62 42.18 53.88 42.11 53.98 42.06 54.02 42.05 54.18 41.99 54.24 41.94 54.27 41.93 54.33 41.86 54.34 41.82 54.36 41.8 54.39 41.64 54.39 41.62 54.42 41.49 54.42 40.85 54.57 40.13 54.65 39.8 54.76 39.47 55.04 38.82 55.51 38.13 56.08 37.64 56.76 37.25 56.77 37.25 57.32 37.03 57.89 36.88 58.66 36.82 57.34 37.31 57.01 37.55 56.82 37.68 56.79 37.72 56.72 37.78 56.62 37.86 56.6 37.87 56.59 37.88 56.36 38.07 56.22 38.25 56.2 38.26 56.17 38.31 55.96 38.57 55.82 38.82 55.65 39.04 55.6 39.14 55.57 39.22 55.28 39.89 55.16 40.32 55.15 40.48 55.14 40.57 55.14 40.88 55.15 41 55.16 41.16 55.28 41.68 55.28 41.68 55.33 41.84 55.53 42.51 55.65 42.8 55.68 42.87 55.68 42.88 55.7 42.93 55.72 42.97 55.8 43.19 55.9 43.43 56.14 43.94 56.23 44.13 56.36 44.41 56.38 44.44 56.39 44.47 56.54 44.75 56.57 44.81 56.8 45.26 56.95 45.51 57.03 45.69 57.53 46.6 58.11 47.55 58.14 47.61 58.32 47.91 58.7 48.53 59.26 49.44 59.71 50.25 59.83 50.41 59.98 50.68 60.2 51.01 60.39 51.3 60.54 51.54 60.7 51.73 60.72 51.76 60.78 51.85 60.84 51.88 60.88 51.91 60.97 51.91 61.01 51.76 61.07 51.68 61.09 51.63 61.22 51.51 61.27 51.48 61.32 51.44 61.43 51.32 62.1 50.44 62.2 50.28 62.34 50.06 62.7 49.48 62.9 49.14 63.24 48.47 63.83 47.26 64.39 46.07 65.3 43.25 65.48 44.01 65.58 44.47 65.79 45.39 65.79 45.43 65.89 46.01 65.98 48.44 65.95 50.41 65.95 50.99 65.95 51 65.93 51.19 65.79 53.13 65.78 53.23 65.76 53.44 65.74 53.63 65.57 54.93 65.32 56.47 65.24 56.91 64.76 59.13 64.52 59.94 64.51 60.01 64.49 60.06 64.2 60.94 64.07 61.32 64.01 61.47 63.64 62.26 62.45 64.18 62.42 64.19 61.32 65.85 61.18 66.05 60.54 66.99 60.39 67.22 60.26 67.38 60.14 67.57 58.66 69.61 57.89 70.76 57.62 71.16 57.4 71.49 57.32 71.61 56.33 73.12 56.26 73.23 56.17 73.36 55.83 73.94 55.73 74.12 55.45 74.62 54.97 75.38 54.72 75.89 54.58 76.16 54.2 76.95 53.99 77.36 53.95 77.44 53.82 77.76 53.33 79 53.16 79.42 53.16 79.43 52.76 80.63 52.7 80.76 52.64 80.98 52.61 81.06 52.58 81.18 52.53 81.32 52.39 81.78 52.27 82.24 52.22 82.45 52.07 83.04 51.98 83.41 51.92 83.7 51.76 84.51 51.73 84.69 51.72 84.73 51.57 85.93 51.51 86.82 51.51 87.95 51.57 87.95 51.72 87.89 51.9 87.76 52.12 87.64 52.36 87.5 52.52 87.38 52.58 87.34 52.7 87.22 52.7 87.19 52.73 87.16 53.01 84.86 53.01 84.86 53.02 84.73 53.07 84.5 53.11 84.23 53.11 84.22 53.22 83.63 53.34 83.01 53.77 81.23 53.82 81.07 54.33 79.35 55.01 77.57 55.8 75.82 56.73 74.1 57.45 72.98 57.49 72.89 57.64 72.69 58.16 71.94 58.42 71.57 59.01 70.82 59.03 70.78 59.74 69.94 60.59 69.14 60.89 68.88 61.05 68.74 61.46 68.41 62.64 67.51 62.84 67.36 63.79 66.6 64.65 66.88 64.82 66.91 65.55 67.06 65.82 67.07 65.89 67.09 66.14 67.1 66.47 67.12 66.78 67.12 66.92 67.1 67.17 67.09 67.51 67.03 67.57 67.01 67.62 67.01 67.7 67 67.89 66.97 68.57 66.75 69.26 66.38 69.33 66.35 69.36 66.32 69.43 66.26 69.6 66.13 69.95 65.88 70.07 65.76 70.16 65.68 70.59 65.25 70.8 65.03 70.89 64.93 70.92 64.88 70.96 64.82 71.01 64.76 71.23 64.51 71.6 63.95 71.78 63.68 71.86 63.56 71.89 63.51 72.14 63.13 72.26 62.94 72.57 62.32 72.68 62.1 72.71 62.04 72.8 61.87 72.92 61.57 73.14 61.1 73.23 60.82 73.51 59.99 73.57 59.81 73.64 59.5 73.78 58.93 73.9 57.89 73.9 56.98 73.88 56.74 73.82 56.55 73.72 56.43 73.64 56.34 73.51 56.31 73.39 56.34 73.23 56.39 72.92 56.61 72.61 56.88 72.28 57.26 72.14 57.43 71.95 57.66 71.92 57.68 71.39 58.24 70.4 59.06 70.33 59.11 70.12 59.26 69.14 59.93 68.82 60.16 68.43 60.41 68.17 60.57 67.95 60.73 67.92 60.75 67.7 60.88 66.99 61.41 66.98 61.41 66.96 61.43 66.78 61.56 66.39 61.89 66.28 61.99 66.22 62.05 66.14 62.13 65.73 62.54 65.64 62.63 65.55 62.76 65.51 62.81 65.51 62.82 65.27 63.1 65.12 63.32 65.09 63.37 65.07 63.39 65.07 63.41 65.02 63.47 65.01 63.51 64.88 63.7 64.66 64.18 64.65 64.19 64.62 64.26 64.61 64.3 64.61 64.31 64.6 64.34 64.57 64.43 64.35 65.16 61.64 67.22 61.89 66.79 62.23 66.23 63.01 65.16 63.73 64.18 63.98 63.8 64.41 63.16 64.54 62.93 64.72 62.61 64.88 62.32 65.18 61.68 65.3 61.44 65.64 60.44 65.98 59.01 66.07 58.51 66.26 57.57 66.39 56.57 66.45 56.09 66.57 54.62 66.57 54.61 66.64 53.09 66.66 52.78 66.68 52.28 66.74 49.94 66.78 48.99 66.77 48.91 66.78 48.81 66.77 48.68 66.78 48.5 66.76 47.94 66.73 47.37 66.72 47.24 66.71 46.95 66.68 46.6 66.62 45.76 66.59 45.61 66.45 44.66 66.24 44.06 66.24 44.04 66.2 43.88 66.14 43.72 66.1 43.63 65.89 43.09 65.67 42.59 65.64 42.51 65.64 42.48 65.52 41.94 65.45 41.28 65.45 40.54 65.42 39.95 65.27 39.39 65.09 38.97 64.78 38.54 64.57 38.32 64.45 38.2 64.42 38.19 64.4 38.19 64.34 38.13 64.04 37.89 63.96 37.85 63.92 37.82 63.89 37.79 63.83 37.74 63.76 37.7 63.58 37.59 63.42 37.51 63.33 37.47 63.32 37.47 63.24 37.44 63.12 37.38 63.09 37.38 62.66 37.22 62.07 37.16 61.61 37.16 61.52 37.13 61.49 37.1 61.49 37.04 61.52 37.01 62.23 36.85 62.58 36.82 63.01 36.85 63.16 36.87 63.86 37.07 64.04 37.16 64.15 37.22 64.41 37.38 64.99 37.87 65.52 38.48 65.91 39.19 66.2 40.01 66.34 40.6 66.53 41.31 66.59 41.56 66.64 41.64 66.68 41.82 66.84 42.18 66.89 42.26 66.93 42.35 67.24 42.85 67.76 43.43 68.26 43.98 68.71 44.54 68.96 44.86 68.99 44.89 69.42 45.57 69.7 46.23 69.73 46.31 69.73 46.32 69.78 46.47 69.91 46.84 69.95 46.93 70.12 47.49 70.4 48.22 70.46 48.32 70.77 48.89 70.86 48.47 70.92 48.22 70.95 48.01 71.08 47.3 71.42 46.13 71.78 44.89 71.89 44.57 71.93 44.37 72.12 43.7 72.15 43.57 72.15 43.55 72.34 42.63 72.4 41.98 72.43 41.76 72.43 40.82 72.86 41.51 72.92 41.6 72.98 41.7 73.6 42.57 74.01 43.16 74.09 43.28 74.52 43.98 75.14 45.37 75.36 46.06 75.59 46.78 75.93 48.29 76.08 49.24 76.18 49.98 76.3 51.6 76.36 53.55 76.36 53.82 76.3 55.85 76.21 57.84 76.12 58.76 76.03 59.36 75.99 59.56 75.93 59.84 75.66 61.04 75.64 61.12 75.59 61.28 75.39 62.3 74.86 64.82 74.64 66.22 74.46 67.25 74.3 68.59 74.12 69.93 74.03 71.43 73.97 72.29 73.97 72.47 73.95 74.62 73.95 75.05 73.98 76.05 74.01 76.59 74.02 76.76 74.03 77.05 74.12 77.79 74.21 78.7 74.27 79.05 74.27 79.07 74.58 80.8 74.64 81.03 74.64 81.04 75.1 82.86 75.14 82.98 75.82 84.93 76.24 85.89 76.67 86.85 76.7 86.91 76.95 87.5 77.04 87.7 77.35 88.51"/>
      <polygon class="cls-1" points="55.53 60.61 55.33 62.28 55.24 62.83 55.18 63.11 54.92 64.23 54.6 65.32 54.38 65.97 53.93 67.09 53.9 67.16 53.83 67.32 53.46 68.09 52.73 69.43 51.62 71.03 50.4 72.65 49.78 73.48 49.17 74.31 48.95 74.65 48.61 75.17 48.43 75.45 48.06 76 47.6 76.86 47.51 77.14 47.48 77.24 47.45 77.33 47.32 77.6 47.2 77.79 47.19 77.82 47.17 77.82 47.11 77.88 46.98 78 46.77 78.22 46.52 78.49 45.72 78.83 45.09 79.03 44.7 79.12 44.51 79.15 43.97 79.23 43.14 79.2 42.35 79.05 42.34 79.05 42.25 79.01 42.13 78.96 41.58 78.71 40.84 78.22 40.4 77.72 40.39 77.71 40.35 77.66 40.25 77.51 40.07 77.2 39.95 76.96 39.76 76.4 39.72 76.21 39.61 75.39 39.64 74.44 39.79 73.48 39.76 73.45 39.76 73.42 39.73 73.41 39.7 73.36 39.61 73.3 39.58 73.27 39.27 73.05 38.99 72.87 38.78 72.72 38.5 72.38 38.3 72.05 38.29 72.04 38.23 71.89 38.22 71.85 38.15 71.63 38.1 71.3 38.16 71 38.29 70.63 38.35 70.41 38.41 70.2 38.43 70.1 38.44 70.04 38.47 69.92 38.47 69.83 38.44 69.8 38.41 69.77 38.32 69.72 38.29 69.7 38.23 69.68 38.16 69.64 38.01 69.58 37.77 69.46 37.58 69.34 37.46 69.12 37.37 68.94 37.27 68.66 37.24 68.51 37.24 68.38 37.3 68.2 37.4 67.95 37.49 67.71 37.61 67.4 37.67 67.25 37.73 67.06 37.83 66.79 37.89 66.54 37.89 66.51 37.92 66.35 37.91 66.33 37.92 66.29 37.89 66.17 37.83 66.05 37.7 65.96 37.55 65.83 37.21 65.62 36.84 65.46 36.46 65.24 36.39 65.2 35.98 64.88 35.64 64.42 35.37 63.96 35.18 63.53 35.06 63.13 35.01 62.63 35.03 62.33 35.09 61.98 35.21 61.56 35.46 60.95 35.67 60.54 35.95 60.02 36.14 59.72 36.51 59.07 36.84 58.4 37.04 57.98 37.09 57.87 37.21 57.54 37.25 57.44 37.37 57.14 37.4 57.03 37.43 56.95 37.45 56.86 37.47 56.79 37.58 56.4 37.7 55.85 37.7 55.02 37.67 54.88 37.67 54.86 37.66 54.79 37.61 54.46 37.46 53.85 37.29 53.27 37.15 52.77 36.94 51.91 36.8 50.96 36.78 50.61 36.76 50.1 36.76 50.06 36.78 49.55 36.84 48.9 37.03 48.01 37.41 46.81 37.43 46.73 37.44 46.71 37.66 46.22 38.2 45.12 38.26 45.03 38.33 44.87 38.35 44.84 38.38 44.81 38.47 44.66 38.56 44.47 38.66 44.38 38.69 44.32 38.72 44.29 38.75 45.4 38.77 45.65 38.78 45.95 38.83 46.48 38.84 46.56 38.85 46.61 38.87 46.84 38.93 47.21 38.95 47.31 39.03 47.76 39.18 48.41 39.19 48.45 39.24 48.65 39.44 49.25 39.52 49.51 39.55 49.58 39.58 49.64 39.67 49.83 39.85 50.22 39.87 50.24 39.92 50.34 40.03 50.51 40.16 50.74 40.28 50.89 40.33 50.96 40.38 51.05 40.47 51.15 40.53 51.24 40.93 51.67 41.58 52.13 41.67 52.17 41.88 52.28 42.16 52.43 42.77 52.59 43.36 52.65 43.45 52.64 43.47 52.64 43.5 52.65 43.6 52.65 43.97 52.62 44.4 52.59 44.56 52.56 44.62 52.56 45.36 52.43 45.54 52.43 45.79 52.37 45.97 52.34 46.12 52.31 46.52 52.25 46.82 52.18 46.95 52.16 47.22 52.1 47.51 52.03 48.03 51.91 48.49 51.79 48.74 51.67 48.8 51.63 48.86 51.6 48.64 51.24 48.61 51.19 48.52 51.02 48.32 50.72 48.09 50.28 47.95 49.7 47.93 49.59 47.88 48.99 47.97 47.98 48.52 45.73 48.55 45.73 48.58 45.77 48.61 45.8 48.77 45.95 48.84 46.04 49.07 46.35 49.14 46.44 49.17 46.47 49.23 46.55 49.38 46.78 49.58 47.05 49.63 47.12 49.84 47.42 49.92 47.54 50.03 47.7 50.15 47.87 50.2 47.95 50.26 48.04 50.27 48.07 50.34 48.17 50.4 48.25 50.41 48.27 50.52 48.47 50.61 48.59 51.11 49.66 51.14 49.74 51.23 50.08 51.41 50.77 51.5 51.63 51.5 52.28 51.44 53.02 51.26 53.85 51.2 54.06 51.09 54.39 51.07 54.45 50.95 54.74 50.74 55.25 50.73 55.26 50.67 55.37 50.18 56.28 50.11 56.38 49.5 57.2 48.74 58.06 48.06 58.7 47.87 58.89 47.85 58.92 47.63 59.13 47.05 59.72 46.86 59.9 46.72 60.07 46.62 60.18 46.34 60.49 45.91 61.01 45.82 61.14 45.72 61.25 45.61 61.43 45.54 61.53 45.23 62.02 45.17 62.11 44.83 62.76 44.71 63.04 44.68 63.1 44.53 63.44 44.22 64.2 43.94 65.13 43.91 65.3 43.88 65.4 43.85 65.64 43.76 66.11 43.73 66.4 43.7 66.6 43.69 66.79 43.6 67.95 43.61 68.06 43.6 68.14 43.64 68.83 43.67 69.27 43.85 70.57 43.89 70.72 43.94 71.06 44.16 71.83 44.19 71.95 44.5 72.81 44.5 72.82 44.56 72.99 44.7 73.3 44.86 73.67 45.03 73.96 45.11 74.13 45.2 74.27 45.29 74.44 45.79 75.17 45.88 75.3 45.91 75.33 46 75.42 46.06 75.48 46.12 75.52 46.15 75.54 46.22 75.57 46.28 75.6 46.34 75.6 46.46 75.48 46.28 73.88 46.21 72.78 46.2 72.54 46.19 72.29 46.19 72.16 46.2 71.88 46.28 70.57 46.3 70.42 46.42 69.52 46.57 68.77 46.59 68.72 46.59 68.69 46.8 68.03 46.93 67.65 47.01 67.44 47.28 66.91 47.51 66.48 47.92 65.88 48.15 65.58 48.16 65.57 48.74 64.97 49.51 64.35 49.84 64.14 50 64.03 50.21 63.9 50.3 63.85 50.64 63.65 51.69 63.1 52.06 62.91 52.14 62.87 52.58 62.67 52.92 62.47 53.07 62.39 53.32 62.24 54.05 61.78 54.36 61.56 54.45 61.5 54.57 61.4 54.6 61.37 54.67 61.32 55.34 60.7 55.44 60.64 55.47 60.61 55.53 60.61"/>
    </g>
  </g>
</svg>