<?xml version="1.0" encoding="UTF-8"?>
<svg id="Layer_2" data-name="Layer 2" xmlns="http://www.w3.org/2000/svg" viewBox="0 0 158.15 170.15">
  <defs>
    <style>
      .cls-1 {
        fill: #bd97c6;
      }

      .cls-1, .cls-2, .cls-3, .cls-4 {
        stroke: #35201f;
        stroke-linecap: round;
        stroke-linejoin: round;
        stroke-width: .25px;
      }

      .cls-2 {
        fill: #35201f;
      }

      .cls-3 {
        fill: #84424c;
      }

      .cls-4 {
        fill: #deb5b9;
      }
    </style>
  </defs>
  <g id="Layer_1-2" data-name="Layer 1">
    <g>
      <path class="cls-2" d="M157.62,101.62l-.9-5.2-1.2-5.4-1.5-5.5-1.6-5-1.8-5-2-5-2.3-5.1-2.6-5.1-2.9-5.2-3.2-5.3-3.7-5.6-3-4.2-3.4-4.5-3.7-4.6-4.2-4.8-4.6-4.8-5.1-4.9-3.5-3.2-3.8-3.1-3.9-2.9-4.2-2.6-2.8-1.5-2.9-1.2-3.1-1-3.2-.6-3.4-.2-3.5.2-3.3.6-3.1,1-2.9,1.3-2.8,1.5-2.7,1.6-2.6,1.8-2.5,1.9-5,4.1-4.6,4.3-4.3,4.3-5.3,5.7-4.6,5.5-4.1,5.3-3.6,5-3.7,5.6-3.2,5.3-2.9,5.2-2.6,5.1-2.3,5.1-2,5-1.8,5-1.6,5-1.5,5.5-1.2,5.4-.9,5.2-.4,4.9v4.6l.5,4.4.9,4.2,1.4,4.4,1.7,4.4,2.1,4.5,2.3,4.6,2.6,4.3,2.9,4,3.2,3.7,3.3,3.1,3.6,2.9,4.1,2.7,4.6,2.6,5.1,2.5,3,1.4,3.2,1.2,3.4,1.2,3.6,1,3.8.8,2.2.4,2.5.3,2.6.2,3.1.1h9.2l4.1-.1,3.7.1h8.8l2.3-.1,2.1-.1,1.9-.1,3.2-.4,3-.5,2.7-.7,4.6-1.3,4.3-1.6,4.1-1.8,5-2.5,4.6-2.6,4.1-2.7,3.7-2.9,3.3-3.1,3.1-3.7,2.9-4,2.6-4.3,2.3-4.6,2.1-4.5,1.7-4.4,1.4-4.4,1-4.2.4-4.4v-4.6l-.4-4.9ZM156.33,111.03l-.4,4.2-1,4.1-1.3,4.2-1.7,4.3-2,4.5-2.3,4.4-2.6,4.3-2.7,3.9-3.1,3.5-3.2,3-3.5,2.8-4,2.6-4.5,2.6-5,2.5-3.9,1.7-1.35.47-.85.33-3.3,1.2-1.94.5-1.26.4-2.7.6-2.8.5-.31.03-.39.07-2.3.2-.65.05-1.35.15-2.1.1-2.3.1h-6.3l-2.9-.1-3.2-.1-3.8.1-3.3.1h-5.4l-2.3-.1-2-.1-1.9-.2-3.2-.3-2.8-.5-2.6-.6-4.5-1.4-4.2-1.5-4-1.7-5-2.5-4.5-2.6-4-2.6-3.5-2.8-3.2-3-3-3.5-2.8-3.9-2.6-4.3-2.3-4.4-2-4.5-1.7-4.3-1.3-4.2-.9-4.1-.5-4.2v-4.4l.4-4.8.9-5,1.2-5.4,1.5-5.4,1.5-4.9,1.8-5,2-5,2.3-5,2.6-5,2.8-5.1,3.2-5.3,3.6-5.5,3-4.2,3.4-4.4,3.7-4.6,4.1-4.7,4.6-4.8,5-4.8,3.5-3.2,3.7-3,3.8-2.8,4.1-2.6,2.7-1.4,2.7-1.2,2.9-.9,3.1-.6,3.2-.2,3.2.2,3.1.6.9.31,1.9.59,2.8,1.2,2.41,1.3.19.1.2.1,2.6,1.6,2.5,1.7,2.5,1.8,4.9,4.1,1.75,1.63.75.67,1.25,1.2.75.7.5.5,2.5,2.4,4.5,4.8.66.76,1.34,1.44,1.88,2.25.22.25.23.28,2.27,2.72,4,5.2.25.34.35.46,3,4.2,3.6,5.5,3.2,5.3,2.9,5.1,2.5,5,2.3,5,2,5,1.8,5,1.6,4.9,1.4,5.4,1.2,5.4.9,5,.4,4.8v4.4Z"/>
      <path class="cls-1" d="M155.92,101.83l-.9-5-1.2-5.4-1.4-5.4-1.6-4.9-1.8-5-2-5-2.3-5-2.5-5-2.9-5.1-3.2-5.3-3.6-5.5-3-4.2-.35-.46-.25-.34-4-5.2-2.27-2.72-.23-.28-.22-.25-1.88-2.25-1.34-1.44-.66-.76-4.5-4.8-2.5-2.4-.5-.5-.75-.7-1.25-1.2-.75-.67-1.75-1.63-4.9-4.1-2.5-1.8-2.5-1.7-2.6-1.6-.2-.1-.19-.1-2.31-1.2-2.8-1.2-2-.69-1-.31-3-.6-3.2-.2-3.2.2-3.1.6-2.9.9-2.7,1.2-2.7,1.4-4.1,2.6-3.8,2.8-3.7,3-3.5,3.2-5,4.8-4.6,4.8-4.1,4.7-3.7,4.6-3.4,4.4-3,4.2-3.6,5.5-3.2,5.3-2.8,5.1-2.6,5-2.3,5-2,5-1.8,5-1.5,4.9-1.5,5.4-1.2,5.4-.9,5-.4,4.8v4.4l.5,4.2.9,4.1,1.3,4.2,1.7,4.3,2,4.5,2.3,4.4,2.6,4.3,2.8,3.9,3,3.5,3.2,3,3.5,2.8,4,2.6,4.5,2.6,5,2.5,4,1.7,4.2,1.5,4.5,1.4,2.6.6,2.8.5,3.2.3,1.9.2,2,.1,2.3.1h5.4l3.3-.1,3.8-.1,3.7.1,3.3.1h4.1l2.1-.1,3-.1,1.95-.15.65-.05,2.3-.2.39-.07.31-.03,2.8-.5,2.7-.6,1.26-.4,1.94-.5,3.3-1.2.85-.33,1.35-.47,3.9-1.7,5-2.5,4.5-2.6,4-2.6,3.5-2.8,3.2-3,3.1-3.5,2.7-3.9,2.6-4.3,2.3-4.4,2-4.5,1.7-4.3,1.3-4.2,1-4.1.4-4.2v-4.4l-.4-4.8ZM147.22,114.12l-.4,4.1-.8,3.8-1,3.5-1.7,4.2-2,3.9-2.3,3.5-2,2.5-2.2,2.3-2.5,2.4-2.9,2.4-3.3,2.4-2.5,1.7-2.8,1.7-3.1,1.7-3.6,1.8-2.5,1.1-2.7,1-2.9,1-3.1.8-3.3.7-3.6.5-3.9.2-4.2-.1-2.4-.8-2.1-1-2.4-1.6-2.1-2.1-.3.5-.4.4-.5.6-.9.9-.8.6-.5.3-2.1,1.1-2.4.9-2.5.6-2.5.3h-2.4l-2.4-.2-2.2-.6-4.1-.5-3.8-1-3.5-1.3-3.3-1.5-3.1-1.5-2.8-1.6-2.6-1.7-3.4-2.3-3.1-2.3-2.6-2.2-2.5-2.3-2.2-2.3-2-2.3-2.1-3.1-2-3.2-1.6-3.6-1.5-3.9-1.1-4.2-.6-4.2-.3-4.5v-4.8l.5-5,1-5.3,1.4-5.6,1.9-5.8-.1-2.9-.5-2.6-.4-1.5-.5-1.3-.3-.9-.3-.7,1.3.9,1.1,1.1,1.1,1.6.9,1.7,1.5-4.7,1.9-4.8,2.2-4.8,1.9-3.7,2.1-3.8,2.3-3.9,2.7-4,3-4,.3-2.2v-2.3l-.2-2.8-.5-2.8.9.6.8.7,1,1,.8,1.1,1.1,2v-.3l2.3-4.4,2.6-4.1,2.7-3.7,2.8-3.2,2.9-2.9,2.8-2.4,3-2.2,3.1-1.8,3-1.4,2.9-1.1,2.9-.9,2.8-.7,2.4-.5,2.3-.3h1.4l1.5.1,2.5.4,2.8.6,3,1,3.2,1.3,3.2,1.5,3.1,1.8,3.1,2,3.6,2.9,3.2,3.1,2.7,3.2,2.3,3.3,1.9,3.2,1.5,2.9,1.2,2.5.6-1.6.8-1.3,1.4-1.4,1.9-1-.5,2.2-.3,2-.2,1.7-.1,1.3.1,1,.1,1.1.4.8,3,3.9,2.6,3.9,2.3,3.8,2.1,3.8,3,6.2,2.6,6.1,2.1,6,.6-1.4.8-1.2,1.3-1.5,1.6-1.2-.3.7-.4,1.1-.4,1.3-.5,2.1-.4,2.3-.1,2.4,1.7,5.4,1.4,5.1,1,5,.6,4.7.2,4.5-.2,4.3Z"/>
      <path class="cls-4" d="M147.22,105.33l-.6-4.7-1-5-1.4-5.1-1.7-5.4.1-2.4.4-2.3.5-2.1.4-1.3.4-1.1.3-.7-1.6,1.2-1.3,1.5-.8,1.2-.6,1.4-2.1-6-2.6-6.1-3-6.2-2.1-3.8-2.3-3.8-2.6-3.9-3-3.9-.4-.8-.1-1.1-.1-1,.1-1.3.2-1.7.3-2,.5-2.2-1.9,1-1.4,1.4-.8,1.3-.6,1.6-1.2-2.5-1.5-2.9-1.9-3.2-2.3-3.3-2.7-3.2-3.2-3.1-3.6-2.9-3.1-2-3.1-1.8-3.2-1.5-3.2-1.3-3-1-2.8-.6-2.5-.4-1.5-.1h-1.4l-2.3.3-2.4.5-2.8.7-2.9.9-2.9,1.1-3,1.4-3.1,1.8-3,2.2-2.8,2.4-2.9,2.9-2.8,3.2-2.7,3.7-2.6,4.1-2.3,4.4v.3l-1.1-2-.8-1.1-1-1-.8-.7-.9-.6.5,2.8.2,2.8v2.3l-.3,2.2-3,4-2.7,4-2.3,3.9-2.1,3.8-1.9,3.7-2.2,4.8-1.9,4.8-1.5,4.7-.9-1.7-1.1-1.6-1.1-1.1-1.3-.9.3.7.3.9.5,1.3.4,1.5.5,2.6.1,2.9-1.9,5.8-1.4,5.6-1,5.3-.5,5v4.8l.3,4.5.6,4.2,1.1,4.2,1.5,3.9,1.6,3.6,2,3.2,2.1,3.1,2,2.3,2.2,2.3,2.5,2.3,2.6,2.2,3.1,2.3,3.4,2.3,2.6,1.7,2.8,1.6,3.1,1.5,3.3,1.5,3.5,1.3,3.8,1,4.1.5,2.2.6,2.4.2h2.4l2.5-.3,2.5-.6,2.4-.9,2.1-1.1.5-.3.8-.6.9-.9.5-.6.4-.4.3-.5,2.1,2.1,2.4,1.6,2.1,1,2.4.8,4.2.1,3.9-.2,3.6-.5,3.3-.7,3.1-.8,2.9-1,2.7-1,2.5-1.1,3.6-1.8,3.1-1.7,2.8-1.7,2.5-1.7,3.3-2.4,2.9-2.4,2.5-2.4,2.2-2.3,2-2.5,2.3-3.5,2-3.9,1.7-4.2,1-3.5.8-3.8.4-4.1.2-4.3-.2-4.5ZM143.42,115.03l-.4,3.6-.8,3.7-1.2,3.7-1.5,3.6-2,3.4-2.4,3.2-2.9,2.9-.5-1.6-.6-1.3-.9-1.1-1.2-.9-1.4-.6.5,2.2.3,1.9v1.5l-.1,1.2-.3,1.2-.4,1-.6.9-1.3,1.6-1.8,1.6-2.2,1.7-2.6,1.7-3.2,1.7-3.7,1.6-3.5,1.3-3.9,1.2-4.2,1.1-4.2.7-2.5.3-2.4.1-2.2-.1-1.6-.2-1.5-.4-1.2-.6-1.4-.9-1-.9-.7-1.1-.5-1.6-.2-1.9-.1-3.6v-2.8l-.1-.8v-.3l.1-.4.5-.8.6-.8.6-.6.5-.4,1.1-.5,1.3-.2h1l.9.2,1.1.6.7.9.4,1.1.1,1.3-.2,1.2-.4,1.2-.7,1.1-.8.8-1,.6-1.1.2h-.5l-.5-.2-.4-.4-.2-.5-.2-.9.2-.7.3-.7.4-.8.4-.9.2-1v-.9l-.2-.4-.3-.3-.4-.1-.5-.1v1l-.3.9-.4.9-.5,1.1-.4,1.1-.2,1.2.1,1,.3.9.6.7.7.5.9.2,1,.1,1.4-.3,1.4-.7,1.1-1,1.1-1.6.7-1.7.2-1.7-.1-1.4-.6-1.3-.9-1.2-1.1-.8,1.1-.5.9-.7.6-.9.4-1,.4-1.1.5-1.5.6-1.3.9-1.2v-.1h-.1l-.1.1-.6.2-.6.3-.4.3-.4.2-.7.9-.6,1.1-.5.8-.5.8-1.1.9-1.2.6-1.3.4-1.6.4-1.5.6-1.3.8-.8.8.8-1.7,1.1-1.6,1-1.2,1.1-1.1,1.5-1.2,1.7-1.1,1.7-1,2-1.3,1.9-1.4,1-1,2.4-2.6,1-1,1-.7.9-.5.8-.1.8.1.3.1.3.2.1.4.1.4-.3,1.2-.6,1.3-.6.9-.6.7-.4.3-.5.3-.4.3h-.2v.1l-.1.1v.2h.1l.2.1.5-.1.9-.2.9-.5.9-.7.8-.9.6-.9.4-1.1.1-1.1-.1-1-.4-.6-.5-.6-.7-.4-.8-.3-1.3-.1-1.2.1-1,.5-.8.6-.8.8-1.5,1.7-1.5,1.7-2,1.5-2,1.4-3.3,2.2-1.7,1.3-1.7,1.5-1.2,1.3-1.1,1.4.1-.7-.1-.7-.1-.5.1-.5.2-.6.4-.7.8-1.2.8-1,.6-.9.8-1.8.6-1.9.5-3.1v-.3l.1-.5v-.6h-.1v-.1h-.1l-.3.1-.3.1-.2.1-.3.2-.2.1-.1.1v.8l-.4,2.4-.8,2.2-.9,1.5-1.2,1.5-.1-.6v-1.7l-.1-1.7-.1-1.2.1-.5.1-.4.4-.6,1.5-1.3,1.7-1.1,1.4-.5,1.5-.2.9.2.8.4.4.5.3.6.1,1-.2,1-.6,1.1-.2.3-.3.2-.2.3v.2h.5l.2-.1.9-.4.8-.7.6-.8.3-1,.1-.9-.2-1-.4-.9-.8-.7-.5-.3-.7-.2-.5-.2-.4-.1h-2l.6-1.6,1-1.4,1-.8,1.3-.5h1.2l1.1.3,1.1.6,1,1,.7,1.3.2.9v.9l-.4,1.3.2.1.2-.1.2-.1.1-.1.3-.4.1-.4.5-1.5-.1-1.4-.4-1.3-.7-1.1-1.1-1-1.3-.6-1.5-.3-1.7.1-1.4.4-1.2.8-1,1-.8,1.3-.7,1.4-.4,1.6-2.2.9-1.6,1.1-.2-7.6,1-.1.8-.5.7-.6.7-.9.6-1.1v.1l.1.1v.3l.1.4v.6h.1v.1h.2l.2-.1.8-.2.7-.4.5-.3.2-.2.4-.3.4-.4.1-.2v-.2h-.1l-.3-.1h-.4l-.2-.1-1.1-.5-.8-.6-1.5-1.6-1.2-1.9-.8-2-.5-2.3-.2-2.3-.1-3.1.3-3,.5-2.7.1-.7.2-.5.2-1.1.4-1.1.51-1.54-.11.04-.4.2-.4.3-.3.4-.2.4-.3.5v-.33l-.1.13v-2.3l-.1-.8-.1-1-.2-1.3-.3-1.3-.2-1.1-.4-1.3-.1-.3-.1-.4-.2-.2h-.1v.1h-.1l-.1.4-.34.86-.13.45-.13.49-.1.6-.16.86-.14.74-.2,1.2-.2,1.1-.03.27-.07.73v2.3l-.4-.5-.4-.6-.4-.4-.3-.2h-.25l.25.9.5,1.1.3.9.1.8.4,1.7.2,1.4.3,2.6.1,2.8-.1,2.7-.3,2.1-.6,2.1-.9,1.9-.9,1.3-1.2,1.3-1.1.8-1,.5-.3.1h-.3l-.3.1h-.2v.1l.1.1v.2l.3.2.3.3.5.5.5.2.7.4.7.2.3.1h.1l.1-.1v-.1l.1-.2v-.5l.1-.4v-.2l.1-.1.7,1.3,1,1.1.9.6,1.2.2-.3,7.6-2.1-1.3-1.8-.7-.3-1.7-.8-1.7-1.1-1.4-1.1-.9-1.2-.6-1.4-.3h-1.5l-1.3.3-1.2.6-1.2,1.1-.8,1.5-.2,1.1-.1.9.2.8.3.8.4.8.2.3h.4v-.4l-.1-.5-.2-.7.3-1.4.7-1.4,1-1,1.1-.6,1.1-.3h1.2l1.1.4.9.6.8.9.6,1.1.5,1.3h-2.1l-.8.2-.9.4-.7.6-.7.8-.4,1,.1,1,.3.9.5.9.8.9,1,.5.2.1h.6v-.1l-.2-.2-.2-.3-.2-.2-.1-.2-.6-1.1-.2-1v-1l.3-.6.5-.5.7-.4,1-.2,1.2.1,1.3.4,1.2.6,1.2,1,1.1,1,.5.7.1.4v.4l-.1,1.6v2.6l-.2,1-1.4-1.9-1-2-.5-1.8-.3-1.9-.1-.5v-.3l-.2-.2-.3-.2-.6-.2-.2-.1h-.1v.1h-.1v1.1l.1.3.2,2,.5,1.9.5,1.5.7,1.4.5.7.6.9.6.9.8,1.2.3.7v.6l-.1.7v1.1l-1.4-1.8-1.5-1.5-2.8-2.2-2-1.4-2.1-1.4-1.6-1.1-1.5-1.2-1.3-1.4-1.3-1.5-1.3-1.3-.8-.7-1-.4-1.1-.1-1.3.1-1.2.4-.8.8-.5,1-.1,1.4.5,1.4.8,1.2,1.2,1.1,1.1.7,1.1.3.5.1.2-.1.1-.1-.1-.1v-.1h-.1v-.1h-.1l-.2-.2-.4-.2-.5-.3-.8-.8-.5-.8-.5-.9-.3-.8-.2-.7v-.6l.2-.4.2-.2.4-.2.4-.1h.6l1.1.4,1.2.8.9.8.9.9,1,1.1.9,1.1.9.8,1.5,1.2,1.7,1.1,1.7,1,2,1.3,1.9,1.4,1.2,1.2,1.2,1.4.8,1.2.6,1.2.1.3.1.2-.1.1-1-1-1-.6-1.3-.6-1.4-.3-1.3-.3-1-.4-.9-.6-.9-.8-.6-.9-.6-1.1-.4-.8-.6-.6-.6-.4-.6-.4-1.1-.4,1.2,1.7.5,1.4.5,1.5.6,1.5.6.9.9.8,1.1.5-1,.7-.9,1.1-.5,1.2-.3,1.3.1,1.4.3,1.3.6,1.3.8,1.1.9,1,1.1.7,1.2.5,1.3.1,1.3-.2.7-.4.5-.5.4-.6.2-.7.1-1.5-.4-1.5-.5-1.1-.6-1.1-.2-1v-1l-.6.1-.4.1-.2.3-.2.4-.1.9.2,1,.6,1.2.5,1,.2,1-.2,1-.3.5-.3.3-.5.1h-.4l-1-.2-.8-.4-1-.9-.8-1.2-.5-1.3-.1-1.5.2-1.3.6-1.2.5-.6.8-.4,1-.2h1.5l1.3.3,1,.7,1.1,1.1.9,1.5-.3,5.7-.1,4.5v.3l-.2.3-.5.6-1.1,1.1-.9.7-1.2.7-1.2.6-1.1.5-.9.2-.6.2-3.1.4h-3.2l-3.2-.4-3.2-.6-3.1-.9-3-1-2.9-1.1-2.6-1.2-3.9-2-3.3-2-2.7-2-2.2-1.9-1.6-2-.6-.9-.4-1-.3-1.2-.1-1.2v-1.5l.3-1.9.5-2.2-1.2.5-1.1.7-.9,1-.8,1.5-.6,1.8-2.9-2.9-2.6-3.3-2.1-3.5-1.8-3.7-1.3-3.8-.8-3.7-.5-3.5-.1-3.4.3-3.2.6-3.3,1-2.9,1.3-2.4,1.6-2,1.5-1.3,1.7-1.2,1.9-1,2.2-1,2.6-1-2.4-.2-2.2-.1-1.9.1-2,.4-1.6.6.1-2.5.4-2.8.8-3,1-3.2,1.2-3.1,1.3-3.1,1.5-3.1,2.1-4.1,2.1-3.8,2.1-3.3,2-3,1.9-2.6,1.7-2,1.6-1.6,1.3-1.1,1.2-.8,1.1-.4,1-.3.7.2.6.3.5.5.4.8.1.7v1.1l-.1,1.2-.4,1.9-.5,2.2,1.6-2.5,1.6-2.7,1-2.2.8-2.2.3-1.4.1-1.3-.2-1-.5-1-.9-.9-1-.4h-1l-1.3.3-1.3.6-.3.2-.4.3-.2.1-.2.1-.1.1v-.1h-.1v-.1l.2-.5.2-.7.2-.5.1-.4.3-.7.5-1,.6-1.1.9-1.6,1.1-1.8,2.2-3.2,2.4-3.3,1.9-2.2,1.8-1.9,1.7-1.4,1.1-.8,1.1-.5.6-.1.5.1.5.2.6.4.5.7.3.7.1.6-.1.6-.3.5-.5.3-.8.2h-.9l-.7-.1-.6-.2-.1-.1-.2-.1-.2-.1v-.1h-.1v.2l.1.1.1.1.4.3.2.3.2.1,1,.7,1,.5,1.1.3h.8l.8-.2.6-.5.5-.8.3-1.1.6,1.3.3,1.3-.1,1.1-.5,1-1,.9-1.1.5-1,.1h-1l-.7-.2h-.6l1.3.8,1.6.5,1.8.1,1.2-.2,1.2-.5.9-.7.7-1,.4-1.4.1-1.4-.3-1.5-.6-1.4-.8-1.3-1-1.2-1.1-.9-1-.6-1.1-.5-1.7-.4,1.1-.7.9-.5.9-.5,1.1-.5.9-.4.7-.1h2l2.2.4,1.5.8,1.3,1,.4.7.1.6v.7l-.2.7-.8,1.1-1.1.9-.6.2-.4.2v.1h-.1v.1l1.6.5,1.5.3.8-.1.7-.3.7-.6.5-.8.3-.8v-.9l-.4-1.3-.7-1.2-1-1.2-1.2-1-1.2-.7-1.2-.5-1.4-.4,2.9-.7,3-.6,2.4-.3h2.4l2.5.2,2.4.5,3.8.9-1.5.4-1.5.7-1.5,1-1.3,1.4-.8,1.2-.5,1.2v1.2l.4,1.2.5.7.6.4.7.3h.8l1.5-.2,1.5-.5v-.1l-.1-.1-.5-.2-.4-.2-1.1-.8-.8-1.2-.3-.6v-.7l.1-.7.4-.6,1.1-1,1.6-.8,1.7-.4,1.3-.2,1.3.1,1.2.3,1.4.6,1.1.6,1.1.6.9.6-1.1.2-1.1.3-1.5.9-1.5,1.3-1.2,1.6-.9,1.8-.3,1.5v1.6l.5,1.4.7,1,.9.7,1.2.5,1.2.2,1.7-.1,1.6-.5,1.4-.8-.8.1-.5.1h-1.3l-1.2-.3-.9-.4-.7-.7-.5-.9-.1-.9.1-.9.3-1.1.5-1,.2,1.1.5.8.7.5.7.2h.8l1.1-.3,1.1-.5.9-.7.5-.4.4-.4.1-.2v-.1h-.1l-.2.2-.9.4-1.2.1-.8-.1-.7-.3-.4-.5-.1-.4-.1-.6.2-.5.5-.9.8-.7.7-.3.8-.1.7.3.8.4,1.2.8,1.2,1.1,1.5,1.4,1.3,1.3,1.4,1.6,1.5,1.9,1.6,2.3,1.3,2.1,1.3,2.5,1.3,2.9,1.3,3.3-1.1-.6-.9-.5-1-.4-1-.1h-.9l-1,.4-.8.9-.6,1.2-.1,1.3.1,1,.3,1,.9,2.7,1.3,2.8,1.2,2,1.3,1.9.3.5.4.6.4.5.3.2.1.1h.2v-.1l-.1-.1v-.1l-.4-.6-.5-1.4-.6-1.6-.5-1.7-.3-1.3-.2-1.2.1-1.2.1-.4.1-.4.3-.3.3-.1.4-.1h.6l.5.2,1,.3,1.2.6,1.4,1,1.5,1.4,1.6,1.7,1.8,2.2,2,2.6,2,3,2,3.3,2.8,4.9,2.6,5.3,2.2,5.5,1,3.2.8,3.1.5,3,.1,2.7-1.4-.5-1.7-.4-1.8-.2-2.5.1-2.8.2,2.6,1.1,2.1,1,1.9,1,1.6,1.2,1.4,1.4,1.4,2.1,1.2,2.4.9,2.9.6,3.2.2,3.2-.1,3.5Z"/>
      <polygon class="cls-1" points="143.52 111.53 143.42 115.03 143.02 118.62 142.22 122.33 141.02 126.03 139.52 129.62 137.52 133.03 135.12 136.22 132.22 139.12 131.72 137.53 131.12 136.22 130.22 135.12 129.02 134.22 127.62 133.62 128.12 135.83 128.42 137.72 128.42 139.22 128.33 140.42 128.02 141.62 127.62 142.62 127.02 143.53 125.72 145.12 123.92 146.72 121.72 148.42 119.12 150.12 115.92 151.83 112.22 153.42 108.72 154.72 104.83 155.92 100.62 157.03 96.42 157.72 93.92 158.03 91.52 158.12 89.33 158.03 87.72 157.83 86.22 157.42 85.02 156.83 83.62 155.92 82.62 155.03 81.92 153.92 81.42 152.33 81.22 150.42 81.12 146.83 81.12 144.03 81.02 143.22 81.02 142.92 81.12 142.53 81.62 141.72 82.22 140.92 82.83 140.33 83.33 139.92 84.42 139.42 85.72 139.22 86.72 139.22 87.62 139.42 88.72 140.03 89.42 140.92 89.83 142.03 89.92 143.33 89.72 144.53 89.33 145.72 88.62 146.83 87.83 147.62 86.83 148.22 85.72 148.42 85.22 148.42 84.72 148.22 84.33 147.83 84.12 147.33 83.92 146.42 84.12 145.72 84.42 145.03 84.83 144.22 85.22 143.33 85.42 142.33 85.42 141.42 85.22 141.03 84.92 140.72 84.52 140.62 84.02 140.53 84.02 141.53 83.72 142.42 83.33 143.33 82.83 144.42 82.42 145.53 82.22 146.72 82.33 147.72 82.62 148.62 83.22 149.33 83.92 149.83 84.83 150.03 85.83 150.12 87.22 149.83 88.62 149.12 89.72 148.12 90.83 146.53 91.52 144.83 91.72 143.12 91.62 141.72 91.02 140.42 90.12 139.22 89.02 138.42 90.12 137.92 91.02 137.22 91.62 136.33 92.02 135.33 92.42 134.22 92.92 132.72 93.52 131.42 94.42 130.22 94.42 130.12 94.33 130.12 94.22 130.22 93.62 130.42 93.02 130.72 92.62 131.03 92.22 131.22 91.52 132.12 90.92 133.22 90.42 134.03 89.92 134.83 88.83 135.72 87.62 136.33 86.33 136.72 84.72 137.12 83.22 137.72 81.92 138.53 81.12 139.33 81.92 137.62 83.02 136.03 84.02 134.83 85.12 133.72 86.62 132.53 88.33 131.42 90.02 130.42 92.02 129.12 93.92 127.72 94.92 126.72 97.33 124.12 98.33 123.12 99.33 122.42 100.22 121.92 101.02 121.83 101.83 121.92 102.12 122.03 102.42 122.22 102.52 122.62 102.62 123.03 102.33 124.22 101.72 125.53 101.12 126.42 100.52 127.12 100.12 127.42 99.62 127.72 99.22 128.03 99.02 128.03 99.02 128.12 98.92 128.22 98.92 128.42 99.02 128.42 99.22 128.53 99.72 128.42 100.62 128.22 101.52 127.72 102.42 127.03 103.22 126.12 103.83 125.22 104.22 124.12 104.33 123.03 104.22 122.03 103.83 121.42 103.33 120.83 102.62 120.42 101.83 120.12 100.52 120.03 99.33 120.12 98.33 120.62 97.52 121.22 96.72 122.03 95.22 123.72 93.72 125.42 91.72 126.92 89.72 128.33 86.42 130.53 84.72 131.83 83.02 133.33 81.83 134.62 80.72 136.03 80.83 135.33 80.72 134.62 80.62 134.12 80.72 133.62 80.92 133.03 81.33 132.33 82.12 131.12 82.92 130.12 83.52 129.22 84.33 127.42 84.92 125.53 85.42 122.42 85.42 122.12 85.52 121.62 85.52 121.03 85.42 121.03 85.42 120.92 85.33 120.92 85.02 121.03 84.72 121.12 84.52 121.22 84.22 121.42 84.02 121.53 83.92 121.62 83.92 122.42 83.52 124.83 82.72 127.03 81.83 128.53 80.62 130.03 80.52 129.42 80.52 127.72 80.42 126.03 80.33 124.83 80.42 124.33 80.52 123.92 80.92 123.33 82.42 122.03 84.12 120.92 85.52 120.42 87.02 120.22 87.92 120.42 88.72 120.83 89.12 121.33 89.42 121.92 89.52 122.92 89.33 123.92 88.72 125.03 88.52 125.33 88.22 125.53 88.02 125.83 88.02 126.03 88.52 126.03 88.72 125.92 89.62 125.53 90.42 124.83 91.02 124.03 91.33 123.03 91.42 122.12 91.22 121.12 90.83 120.22 90.02 119.53 89.52 119.22 88.83 119.03 88.33 118.83 87.92 118.72 85.92 118.72 86.52 117.12 87.52 115.72 88.52 114.92 89.83 114.42 91.02 114.42 92.12 114.72 93.22 115.33 94.22 116.33 94.92 117.62 95.12 118.53 95.12 119.42 94.72 120.72 94.92 120.83 95.12 120.72 95.33 120.62 95.42 120.53 95.72 120.12 95.83 119.72 96.33 118.22 96.22 116.83 95.83 115.53 95.12 114.42 94.02 113.42 92.72 112.83 91.22 112.53 89.52 112.62 88.12 113.03 86.92 113.83 85.92 114.83 85.12 116.12 84.42 117.53 84.02 119.12 81.83 120.03 80.22 121.12 80.02 113.53 81.02 113.42 81.83 112.92 82.52 112.33 83.22 111.42 83.83 110.33 83.83 110.42 83.92 110.53 83.92 110.83 84.02 111.22 84.02 111.83 84.12 111.83 84.12 111.92 84.33 111.92 84.52 111.83 85.33 111.62 86.02 111.22 86.52 110.92 86.72 110.72 87.12 110.42 87.52 110.03 87.62 109.83 87.62 109.62 87.52 109.62 87.22 109.53 86.83 109.53 86.62 109.42 85.52 108.92 84.72 108.33 83.22 106.72 82.02 104.83 81.22 102.83 80.72 100.53 80.52 98.22 80.42 95.12 80.72 92.12 81.22 89.42 81.33 88.72 81.52 88.22 81.72 87.12 82.12 86.03 82.64 84.48 82.83 84.42 82.42 85.62 82.02 86.72 81.72 87.62 81.62 88.53 81.62 89.42 81.83 90.53 82.12 91.92 83.12 95.12 84.33 98.03 85.92 100.83 88.12 103.83 90.62 106.72 93.02 109.03 95.52 111.22 98.12 113.33 101.02 115.92 103.72 118.83 105.72 121.72 107.42 124.92 108.72 128.33 109.52 131.92 109.83 134.83 109.83 137.62 109.42 140.42 108.72 143.03 108.02 144.72 107.22 146.42 106.22 148.03 105.33 149.03 104.12 149.83 102.83 150.33 102.02 150.53 101.22 150.53 100.72 150.33 100.12 150.03 99.22 149.12 98.83 148.03 98.62 146.72 98.72 145.33 99.22 143.53 99.83 141.72 100.52 140.33 102.33 137.62 104.42 135.12 106.22 133.33 108.12 131.62 108.22 131.62 108.22 131.53 107.83 129.62 107.83 129.53 107.52 129.53 106.62 130.33 106.33 130.53 106.12 130.72 104.02 132.62 101.92 134.72 100.02 136.92 98.42 139.33 97.42 141.33 96.83 143.53 96.62 145.72 96.92 148.22 97.42 149.62 98.42 150.72 99.62 151.62 101.33 152.22 103.12 152.33 105.02 152.03 106.83 151.42 108.42 150.42 110.12 149.03 111.52 147.22 112.72 144.83 113.62 142.12 114.12 139.42 114.33 136.62 114.12 133.62 113.62 130.83 112.72 128.03 114.62 125.92 116.02 123.53 116.92 121.42 117.52 119.33 118.12 115.92 118.12 112.62 117.92 109.92 117.52 107.33 116.62 103.83 116.33 102.33 116.12 100.92 116.12 99.33 116.02 99.22 115.72 101.42 115.62 103.22 115.72 105.12 116.02 106.83 116.22 108.22 116.42 109.72 116.42 112.42 116.22 115.33 115.72 118.33 115.02 120.53 114.12 122.62 113.02 124.42 112.83 124.72 112.42 125.22 112.12 125.53 112.02 125.72 111.92 125.72 111.92 125.83 111.83 125.83 111.62 125.62 111.52 125.42 111.42 125.03 109.52 122.12 107.33 119.53 105.02 117.12 102.62 114.92 100.12 112.83 96.72 110.12 93.42 107.33 90.22 104.22 88.42 101.92 87.02 99.42 85.83 96.83 85.12 94.03 84.92 91.72 85.12 89.53 85.62 87.33 86.62 85.22 87.83 83.62 89.22 82.33 90.83 81.33 92.62 80.62 94.52 80.22 96.33 80.12 98.22 80.42 99.92 81.03 101.52 82.03 102.83 83.22 103.92 84.92 104.72 86.83 104.92 88.53 104.72 90.33 104.12 92.12 103.33 93.62 102.42 94.72 101.33 95.62 100.12 96.22 98.72 96.62 98.72 96.83 99.02 97.03 99.33 97.22 99.52 97.42 100.72 98.12 102.22 98.62 103.72 98.92 105.42 98.92 107.22 98.72 109.12 97.92 110.83 96.83 112.22 95.33 113.12 93.92 113.83 92.53 114.22 90.92 114.33 91.03 114.33 91.22 114.22 92.22 114.02 93.12 113.62 94.53 112.72 96.03 112.92 96.12 113.12 96.12 115.33 96.22 117.33 95.92 119.12 95.22 121.12 94.03 122.92 92.22 124.42 90.03 125.42 87.62 125.92 85.12 125.83 83.12 125.42 81.12 124.72 79.12 123.22 80.62 121.52 81.83 120.02 82.42 119.72 82.53 119.22 82.62 118.83 82.72 118.52 82.72 120.33 81.92 121.92 80.92 123.02 79.83 123.92 78.62 124.72 76.92 125.22 75.22 125.33 73.42 125.22 71.72 124.72 69.92 123.92 68.22 122.83 66.62 122.62 66.22 122.42 66.12 122.22 66.12 122.22 66.42 121.83 68.42 121.02 70.53 119.92 72.42 118.83 73.72 117.42 74.83 115.92 75.53 114.33 75.92 112.72 75.92 111.33 75.62 109.83 75.22 108.42 74.62 106.62 73.92 104.72 73.22 102.72 72.92 99.62 72.92 96.83 73.42 94.22 74.33 91.83 75.72 89.52 77.53 87.62 79.83 85.92 82.53 84.42 85.33 84.62 84.42 84.83 83.72 85.62 81.53 86.83 79.12 88.33 76.62 89.92 74.22 91.83 71.92 93.72 69.92 95.72 68.42 97.52 67.33 99.62 66.62 101.72 66.22 103.33 66.33 104.92 66.83 106.42 67.72 107.72 68.83 108.83 70.33 109.42 71.62 109.62 73.03 109.72 73.03 109.83 72.92 109.92 72.72 110.02 72.62 110.52 71.53 110.92 70.22 111.12 68.83 111.12 67.12 111.02 65.72 110.42 64.33 109.33 63.22 108.02 62.22 106.22 61.62 104.42 61.42 105.22 61.12 106.12 61.03 107.02 61.12 108.42 61.53 108.72 61.72 109.12 61.92 109.33 62.12 109.62 62.12 109.62 62.03 109.83 61.53 109.92 61.03 109.92 59.22 109.72 57.92 109.22 56.62 108.22 55.33 106.92 54.33 105.72 53.92 104.33 53.62 103.02 53.72 101.42 54.12 100.12 54.92 100.33 55.92 100.52 56.83 100.62 57.53 100.52 58.33 100.52 58.53 100.42 58.72 100.33 58.72 100.33 57.12 100.22 56.83 100.02 56.03 99.72 55.42 99.62 55.12 98.52 54.03 97.12 53.33 95.52 53.03 94.33 52.92 93.12 53.12 92.02 53.62 91.33 54.03 90.52 54.72 90.22 55.33 90.02 55.92 91.02 56.03 91.72 56.12 93.02 56.62 94.12 57.62 94.92 58.83 95.42 59.92 95.62 61.03 95.52 62.12 95.33 62.83 94.83 63.83 94.12 64.92 93.12 66.33 92.02 67.83 91.02 69.12 90.12 70.22 89.33 71.33 88.72 72.12 87.02 74.62 85.62 77.33 83.72 81.62 83.62 81.62 83.62 81.33 83.72 80.12 84.02 78.72 84.42 77.33 84.92 75.62 85.42 74.22 86.52 71.42 87.92 68.62 90.22 64.42 90.83 63.53 91.52 62.62 92.33 61.22 92.42 61.03 92.42 60.83 89.62 63.33 87.02 66.12 85.12 68.33 83.42 70.83 81.62 74.03 81.62 68.12 81.72 68.12 81.72 68.03 81.83 67.83 82.02 67.33 82.12 66.92 82.33 66.62 83.02 65.12 83.92 63.72 85.52 61.62 86.52 60.42 87.33 59.62 87.42 59.42 87.42 59.33 87.02 59.33 86.52 59.42 86.12 59.53 85.83 59.62 84.52 60.12 83.33 60.92 81.62 62.33 80.83 46.83 87.83 57.72 88.02 57.83 88.12 57.83 88.22 57.72 88.33 57.62 88.42 57.33 88.92 55.72 89.22 54.42 89.83 51.83 90.22 49.72 81.72 44.53 84.33 44.83 86.83 45.33 90.72 46.22 92.12 41.33 92.02 41.33 92.02 41.22 91.92 41.03 91.52 40.62 90.72 39.72 90.22 39.12 89.83 38.72 89.52 38.42 88.42 37.03 87.42 35.92 81.12 41.83 84.72 32.12 83.52 32.33 82.42 32.83 80.92 34.03 80.72 34.22 80.52 34.42 80.33 34.62 80.12 34.62 79.83 32.53 79.42 30.92 79.22 30.53 79.22 30.33 79.02 30.33 79.02 30.42 78.83 30.92 78.33 33.03 78.12 34.62 77.92 34.62 77.33 34.03 76.33 33.22 75.33 32.62 74.42 32.22 73.52 32.12 77.12 41.83 70.83 35.92 70.33 36.42 66.02 41.33 66.92 44.03 67.52 46.22 72.52 45.03 76.42 44.53 67.92 49.72 68.52 52.42 69.02 54.42 69.42 56.12 69.83 57.33 69.92 57.62 70.02 57.72 70.02 57.83 70.22 57.83 70.33 57.72 77.42 46.83 76.62 62.33 75.52 61.42 74.42 60.53 73.42 60.03 72.42 59.62 72.02 59.53 71.42 59.42 71.02 59.33 70.83 59.33 70.83 59.42 70.92 59.62 71.92 60.72 72.72 61.62 74.72 64.33 75.92 66.62 76.12 67.03 76.33 67.53 76.52 68.03 76.52 74.03 74.83 70.83 72.62 67.83 70.22 65.03 68.22 62.92 66.02 61.03 65.83 60.92 65.72 60.92 65.72 61.03 65.83 61.12 65.92 61.33 66.33 61.92 68.42 65.12 70.33 68.62 71.62 71.33 72.83 74.22 73.22 75.42 73.72 76.83 74.12 78.22 74.52 79.92 74.62 81.33 74.62 81.62 74.52 81.62 73.33 78.83 72.02 76.12 69.52 72.12 68.72 71.03 67.62 69.62 66.42 68.03 65.12 66.42 64.12 64.92 63.33 63.72 62.92 62.83 62.62 62.12 62.62 60.72 63.02 59.33 63.72 58.03 64.52 57.12 65.42 56.53 66.42 56.12 67.42 56.03 68.12 55.92 68.12 55.33 67.83 54.83 67.33 54.42 66.83 53.92 66.22 53.53 64.62 53.03 62.83 52.92 61.12 53.33 59.83 53.92 58.92 54.92 58.22 56.03 58.12 56.42 58.02 56.83 57.83 57.42 57.83 58.72 57.72 58.53 57.72 58.33 57.62 57.33 57.83 56.42 58.12 54.92 57.02 54.22 55.72 53.83 54.33 53.62 52.72 53.83 51.33 54.33 50.12 55.22 49.33 56.22 48.72 57.42 48.33 59.03 48.33 60.62 48.42 61.53 48.62 62.12 49.72 61.53 51.52 61.12 53.02 61.12 53.72 61.42 52.02 61.62 50.22 62.22 49.02 63.03 48.02 64.03 47.52 64.92 47.22 66.12 47.02 67.53 47.12 68.83 47.33 70.22 47.72 71.53 48.22 72.62 48.33 72.83 48.42 72.92 48.52 73.03 48.62 73.03 48.83 71.83 49.22 70.72 49.83 69.72 50.72 68.62 51.83 67.62 53.02 66.92 54.33 66.53 55.62 66.22 57.22 66.33 58.83 66.62 60.92 67.42 62.92 68.62 64.72 70.12 66.33 71.83 68.72 74.83 70.62 77.83 71.72 79.83 72.72 81.83 73.42 83.53 73.83 85.33 72.33 82.53 70.72 79.92 68.83 77.72 66.72 75.92 64.42 74.53 61.72 73.53 58.72 72.92 55.52 72.92 53.62 73.22 51.72 73.83 50.02 74.53 48.22 75.22 46.83 75.62 45.42 75.92 43.92 75.83 42.33 75.53 40.83 74.83 39.52 73.83 38.42 72.62 37.52 71.22 36.52 68.83 36.02 66.42 36.02 66.22 35.92 66.22 35.92 66.12 35.72 66.12 35.72 66.22 35.52 66.42 35.33 66.62 35.22 66.83 33.92 68.92 33.12 71.12 32.83 73.33 33.02 75.12 33.52 76.92 34.33 78.62 35.52 80.12 36.92 81.33 38.22 82.12 39.72 82.72 39.33 82.72 38.92 82.62 38.42 82.53 38.12 82.42 36.33 81.62 35.02 80.62 33.52 79.12 32.62 81.62 32.33 84.22 32.52 86.83 33.12 88.72 34.02 90.53 35.33 92.22 36.52 93.53 37.83 94.53 39.02 95.12 40.33 95.72 41.72 96.03 43.12 96.22 45.52 96.03 44.62 94.53 44.12 92.72 43.92 91.22 43.92 90.92 44.02 90.92 44.52 92.92 45.52 94.72 46.83 96.33 48.12 97.33 49.52 98.12 51.02 98.72 52.72 98.92 54.33 98.92 55.62 98.72 56.92 98.42 57.72 98.03 58.52 97.53 59.12 97.12 59.52 96.62 58.12 96.33 56.92 95.62 55.83 94.72 54.72 93.42 54.02 91.92 53.42 89.83 53.42 87.72 53.92 85.72 54.83 83.92 55.92 82.72 57.12 81.62 58.62 80.83 60.22 80.42 62.22 80.12 64.12 80.22 65.92 80.62 67.52 81.33 69.02 82.22 70.22 83.42 71.52 85.03 72.42 86.92 73.02 89.03 73.33 91.22 73.12 93.62 72.52 96.22 71.62 98.62 70.52 100.83 69.12 102.83 66.52 105.72 63.42 108.42 60.02 111.33 56.62 114.12 53.33 116.92 51.02 119.33 48.83 122.03 46.83 125.03 46.62 125.53 46.52 125.62 46.52 125.72 46.42 125.72 46.42 125.83 46.33 125.83 45.92 125.42 45.62 125.03 45.33 124.62 45.22 124.42 44.02 122.53 43.12 120.33 42.42 117.92 42.02 115.53 41.83 112.92 41.83 110.42 42.02 108.12 42.33 106.72 42.52 105.62 42.62 104.72 42.62 102.12 42.52 100.62 42.22 99.53 42.22 99.33 42.02 99.33 42.02 101.03 41.92 102.33 41.62 103.72 41.33 105.12 40.72 107.33 40.22 110.42 40.02 113.53 40.22 116.62 40.83 119.72 41.52 122.03 42.52 124.12 43.83 126.22 45.42 128.03 44.62 130.62 44.22 132.72 43.92 135.72 44.02 138.92 44.62 142.12 45.62 145.22 46.62 147.03 47.83 148.62 49.22 150.03 50.92 151.22 52.92 151.92 55.12 152.33 56.62 152.22 58.12 151.83 59.42 151.03 60.33 150.22 60.92 149.33 61.33 148.22 61.62 145.72 61.33 143.42 60.72 141.22 59.72 139.22 58.52 137.33 56.52 134.92 54.33 132.72 52.02 130.72 51.42 130.12 50.83 129.62 50.72 129.62 50.62 129.53 50.62 129.62 50.52 129.62 50.52 129.72 49.83 131.33 49.83 131.42 49.92 131.53 51.92 133.22 53.83 135.12 56.52 138.42 57.83 140.62 59.02 143.12 59.52 145.12 59.52 147.22 59.22 148.42 58.52 149.62 57.72 150.33 56.72 150.53 55.12 150.33 53.72 149.62 52.62 148.72 51.62 147.53 50.42 145.33 49.52 143.03 48.72 140.33 48.42 137.53 48.42 134.62 48.72 131.72 49.42 128.83 50.72 125.22 52.42 121.83 54.52 118.83 56.83 116.33 59.22 114.12 61.72 112.03 64.72 109.42 67.62 106.72 70.12 103.83 72.42 100.62 73.92 98.03 75.12 95.22 75.52 94.12 75.83 92.83 76.22 91.53 76.52 89.92 76.62 88.53 76.42 87.42 76.02 86.33 75.72 85.42 75.42 84.53 75.58 84.53 75.83 85.42 76.33 86.53 76.62 87.42 76.72 88.22 77.12 89.92 77.33 91.33 77.62 93.92 77.72 96.72 77.62 99.42 77.33 101.53 76.72 103.62 75.83 105.53 74.92 106.83 73.72 108.12 72.62 108.92 71.62 109.42 71.33 109.53 71.02 109.53 70.72 109.62 70.52 109.62 70.52 109.72 70.62 109.83 70.62 110.03 70.92 110.22 71.22 110.53 71.72 111.03 72.22 111.22 72.92 111.62 73.62 111.83 73.92 111.92 74.02 111.92 74.12 111.83 74.12 111.72 74.22 111.53 74.22 111.03 74.33 110.62 74.33 110.42 74.42 110.33 75.12 111.62 76.12 112.72 77.02 113.33 78.22 113.53 77.92 121.12 75.83 119.83 74.02 119.12 73.72 117.42 72.92 115.72 71.83 114.33 70.72 113.42 69.52 112.83 68.12 112.53 66.62 112.53 65.33 112.83 64.12 113.42 62.92 114.53 62.12 116.03 61.92 117.12 61.83 118.03 62.02 118.83 62.33 119.62 62.72 120.42 62.92 120.72 63.33 120.72 63.33 120.33 63.22 119.83 63.02 119.12 63.33 117.72 64.02 116.33 65.02 115.33 66.12 114.72 67.22 114.42 68.42 114.42 69.52 114.83 70.42 115.42 71.22 116.33 71.83 117.42 72.33 118.72 70.22 118.72 69.42 118.92 68.52 119.33 67.83 119.92 67.12 120.72 66.72 121.72 66.83 122.72 67.12 123.62 67.62 124.53 68.42 125.42 69.42 125.92 69.62 126.03 70.22 126.03 70.22 125.92 70.02 125.72 69.83 125.42 69.62 125.22 69.52 125.03 68.92 123.92 68.72 122.92 68.72 121.92 69.02 121.33 69.52 120.83 70.22 120.42 71.22 120.22 72.42 120.33 73.72 120.72 74.92 121.33 76.12 122.33 77.22 123.33 77.72 124.03 77.83 124.42 77.83 124.83 77.72 126.42 77.72 129.03 77.52 130.03 76.12 128.12 75.12 126.12 74.62 124.33 74.33 122.42 74.22 121.92 74.22 121.62 74.02 121.42 73.72 121.22 73.12 121.03 72.92 120.92 72.83 120.92 72.83 121.03 72.72 121.03 72.72 122.12 72.83 122.42 73.02 124.42 73.52 126.33 74.02 127.83 74.72 129.22 75.22 129.92 75.83 130.83 76.42 131.72 77.22 132.92 77.52 133.62 77.52 134.22 77.42 134.92 77.42 136.03 76.02 134.22 74.52 132.72 71.72 130.53 69.72 129.12 67.62 127.72 66.02 126.62 64.52 125.42 63.22 124.03 61.92 122.53 60.62 121.22 59.83 120.53 58.83 120.12 57.72 120.03 56.42 120.12 55.22 120.53 54.42 121.33 53.92 122.33 53.83 123.72 54.33 125.12 55.12 126.33 56.33 127.42 57.42 128.12 58.52 128.42 59.02 128.53 59.22 128.42 59.33 128.33 59.22 128.22 59.22 128.12 59.12 128.12 59.12 128.03 59.02 128.03 58.83 127.83 58.42 127.62 57.92 127.33 57.12 126.53 56.62 125.72 56.12 124.83 55.83 124.03 55.62 123.33 55.62 122.72 55.83 122.33 56.02 122.12 56.42 121.92 56.83 121.83 57.42 121.83 58.52 122.22 59.72 123.03 60.62 123.83 61.52 124.72 62.52 125.83 63.42 126.92 64.33 127.72 65.83 128.92 67.52 130.03 69.22 131.03 71.22 132.33 73.12 133.72 74.33 134.92 75.52 136.33 76.33 137.53 76.92 138.72 77.02 139.03 77.12 139.22 77.02 139.33 76.02 138.33 75.02 137.72 73.72 137.12 72.33 136.83 71.02 136.53 70.02 136.12 69.12 135.53 68.22 134.72 67.62 133.83 67.02 132.72 66.62 131.92 66.02 131.33 65.42 130.92 64.83 130.53 63.72 130.12 64.92 131.83 65.42 133.22 65.92 134.72 66.52 136.22 67.12 137.12 68.02 137.92 69.12 138.42 68.12 139.12 67.22 140.22 66.72 141.42 66.42 142.72 66.52 144.12 66.83 145.42 67.42 146.72 68.22 147.83 69.12 148.83 70.22 149.53 71.42 150.03 72.72 150.12 74.02 149.92 74.72 149.53 75.22 149.03 75.62 148.42 75.83 147.72 75.92 146.22 75.52 144.72 75.02 143.62 74.42 142.53 74.22 141.53 74.22 140.53 73.62 140.62 73.22 140.72 73.02 141.03 72.83 141.42 72.72 142.33 72.92 143.33 73.52 144.53 74.02 145.53 74.22 146.53 74.02 147.53 73.72 148.03 73.42 148.33 72.92 148.42 72.52 148.42 71.52 148.22 70.72 147.83 69.72 146.92 68.92 145.72 68.42 144.42 68.33 142.92 68.52 141.62 69.12 140.42 69.62 139.83 70.42 139.42 71.42 139.22 72.92 139.22 74.22 139.53 75.22 140.22 76.33 141.33 77.22 142.83 76.92 148.53 76.83 153.03 76.83 153.33 76.62 153.62 76.12 154.22 75.02 155.33 74.12 156.03 72.92 156.72 71.72 157.33 70.62 157.83 69.72 158.03 69.12 158.22 66.02 158.62 62.83 158.62 59.62 158.22 56.42 157.62 53.33 156.72 50.33 155.72 47.42 154.62 44.83 153.42 40.92 151.42 37.62 149.42 34.92 147.42 32.72 145.53 31.12 143.53 30.52 142.62 30.12 141.62 29.83 140.42 29.72 139.22 29.72 137.72 30.02 135.83 30.52 133.62 29.33 134.12 28.22 134.83 27.33 135.83 26.52 137.33 25.92 139.12 23.02 136.22 20.42 132.92 18.33 129.42 16.52 125.72 15.22 121.92 14.42 118.22 13.92 114.72 13.83 111.33 14.12 108.12 14.72 104.83 15.72 101.92 17.02 99.53 18.62 97.53 20.12 96.22 21.83 95.03 23.72 94.03 25.92 93.03 28.52 92.03 26.12 91.83 23.92 91.72 22.02 91.83 20.02 92.22 18.42 92.83 18.52 90.33 18.92 87.53 19.72 84.53 20.72 81.33 21.92 78.22 23.22 75.12 24.72 72.03 26.83 67.92 28.92 64.12 31.02 60.83 33.02 57.83 34.92 55.22 36.62 53.22 38.22 51.62 39.52 50.53 40.72 49.72 41.83 49.33 42.83 49.03 43.52 49.22 44.12 49.53 44.62 50.03 45.02 50.83 45.12 51.53 45.12 52.62 45.02 53.83 44.62 55.72 44.12 57.92 45.72 55.42 47.33 52.72 48.33 50.53 49.12 48.33 49.42 46.92 49.52 45.62 49.33 44.62 48.83 43.62 47.92 42.72 46.92 42.33 45.92 42.33 44.62 42.62 43.33 43.22 43.02 43.42 42.62 43.72 42.42 43.83 42.22 43.92 42.12 44.03 42.12 43.92 42.02 43.92 42.02 43.83 42.22 43.33 42.42 42.62 42.62 42.12 42.72 41.72 43.02 41.03 43.52 40.03 44.12 38.92 45.02 37.33 46.12 35.53 48.33 32.33 50.72 29.03 52.62 26.83 54.42 24.92 56.12 23.53 57.22 22.72 58.33 22.22 58.92 22.12 59.42 22.22 59.92 22.42 60.52 22.83 61.02 23.53 61.33 24.22 61.42 24.83 61.33 25.42 61.02 25.92 60.52 26.22 59.72 26.42 58.83 26.42 58.12 26.33 57.52 26.12 57.42 26.03 57.22 25.92 57.02 25.83 57.02 25.72 56.92 25.72 56.92 25.92 57.02 26.03 57.12 26.12 57.52 26.42 57.72 26.72 57.92 26.83 58.92 27.53 59.92 28.03 61.02 28.33 61.83 28.33 62.62 28.12 63.22 27.62 63.72 26.83 64.02 25.72 64.62 27.03 64.92 28.33 64.83 29.42 64.33 30.42 63.33 31.33 62.22 31.83 61.22 31.92 60.22 31.92 59.52 31.72 58.92 31.72 60.22 32.53 61.83 33.03 63.62 33.12 64.83 32.92 66.02 32.42 66.92 31.72 67.62 30.72 68.02 29.33 68.12 27.92 67.83 26.42 67.22 25.03 66.42 23.72 65.42 22.53 64.33 21.62 63.33 21.03 62.22 20.53 60.52 20.12 61.62 19.42 62.52 18.92 63.42 18.42 64.52 17.92 65.42 17.53 66.12 17.42 68.12 17.42 70.33 17.83 71.83 18.62 73.12 19.62 73.52 20.33 73.62 20.92 73.62 21.62 73.42 22.33 72.62 23.42 71.52 24.33 70.92 24.53 70.52 24.72 70.52 24.83 70.42 24.83 70.42 24.92 72.02 25.42 73.52 25.72 74.33 25.62 75.02 25.33 75.72 24.72 76.22 23.92 76.52 23.12 76.52 22.22 76.12 20.92 75.42 19.72 74.42 18.53 73.22 17.53 72.02 16.83 70.83 16.33 69.42 15.92 72.33 15.22 75.33 14.62 77.72 14.33 80.12 14.33 82.62 14.53 85.02 15.03 88.83 15.92 87.33 16.33 85.83 17.03 84.33 18.03 83.02 19.42 82.22 20.62 81.72 21.83 81.72 23.03 82.12 24.22 82.62 24.92 83.22 25.33 83.92 25.62 84.72 25.62 86.22 25.42 87.72 24.92 87.72 24.83 87.62 24.72 87.12 24.53 86.72 24.33 85.62 23.53 84.83 22.33 84.52 21.72 84.52 21.03 84.62 20.33 85.02 19.72 86.12 18.72 87.72 17.92 89.42 17.53 90.72 17.33 92.02 17.42 93.22 17.72 94.62 18.33 95.72 18.92 96.83 19.53 97.72 20.12 96.62 20.33 95.52 20.62 94.02 21.53 92.52 22.83 91.33 24.42 90.42 26.22 90.12 27.72 90.12 29.33 90.62 30.72 91.33 31.72 92.22 32.42 93.42 32.92 94.62 33.12 96.33 33.03 97.92 32.53 99.33 31.72 98.52 31.83 98.02 31.92 96.72 31.92 95.52 31.62 94.62 31.22 93.92 30.53 93.42 29.62 93.33 28.72 93.42 27.83 93.72 26.72 94.22 25.72 94.42 26.83 94.92 27.62 95.62 28.12 96.33 28.33 97.12 28.33 98.22 28.03 99.33 27.53 100.22 26.83 100.72 26.42 101.12 26.03 101.22 25.83 101.22 25.72 101.12 25.72 100.92 25.92 100.02 26.33 98.83 26.42 98.02 26.33 97.33 26.03 96.92 25.53 96.83 25.12 96.72 24.53 96.92 24.03 97.42 23.12 98.22 22.42 98.92 22.12 99.72 22.03 100.42 22.33 101.22 22.72 102.42 23.53 103.62 24.62 105.12 26.03 106.42 27.33 107.83 28.92 109.33 30.83 110.92 33.12 112.22 35.22 113.52 37.72 114.83 40.62 116.12 43.92 115.02 43.33 114.12 42.83 113.12 42.42 112.12 42.33 111.22 42.33 110.22 42.72 109.42 43.62 108.83 44.83 108.72 46.12 108.83 47.12 109.12 48.12 110.02 50.83 111.33 53.62 112.52 55.62 113.83 57.53 114.12 58.03 114.52 58.62 114.92 59.12 115.22 59.33 115.33 59.42 115.52 59.42 115.52 59.33 115.42 59.22 115.42 59.12 115.02 58.53 114.52 57.12 113.92 55.53 113.42 53.83 113.12 52.53 112.92 51.33 113.02 50.12 113.12 49.72 113.22 49.33 113.52 49.03 113.83 48.92 114.22 48.83 114.83 48.83 115.33 49.03 116.33 49.33 117.52 49.92 118.92 50.92 120.42 52.33 122.02 54.03 123.83 56.22 125.83 58.83 127.83 61.83 129.83 65.12 132.62 70.03 135.22 75.33 137.42 80.83 138.42 84.03 139.22 87.12 139.72 90.12 139.83 92.83 138.42 92.33 136.72 91.92 134.92 91.72 132.42 91.83 129.62 92.03 132.22 93.12 134.33 94.12 136.22 95.12 137.83 96.33 139.22 97.72 140.62 99.83 141.83 102.22 142.72 105.12 143.33 108.33 143.52 111.53"/>
      <polygon class="cls-3" points="125.92 85.12 125.42 87.62 124.42 90.03 122.92 92.22 121.12 94.03 119.12 95.22 117.33 95.92 115.33 96.22 113.12 96.12 112.92 96.12 112.72 96.03 113.62 94.53 114.02 93.12 114.22 92.22 114.33 91.22 114.33 91.03 114.22 90.92 113.83 92.53 113.12 93.92 112.22 95.33 110.83 96.83 109.12 97.92 107.22 98.72 105.42 98.92 103.72 98.92 102.22 98.62 100.72 98.12 99.52 97.42 99.33 97.22 99.02 97.03 98.72 96.83 98.72 96.62 100.12 96.22 101.33 95.62 102.42 94.72 103.33 93.62 104.12 92.12 104.72 90.33 104.92 88.53 104.72 86.83 103.92 84.92 102.83 83.22 101.52 82.03 99.92 81.03 98.22 80.42 96.33 80.12 94.52 80.22 92.62 80.62 90.83 81.33 89.22 82.33 87.83 83.62 86.62 85.22 85.62 87.33 85.12 89.53 84.92 91.72 85.12 94.03 85.83 96.83 87.02 99.42 88.42 101.92 90.22 104.22 93.42 107.33 96.72 110.12 100.12 112.83 102.62 114.92 105.02 117.12 107.33 119.53 109.52 122.12 111.42 125.03 111.52 125.42 111.62 125.62 111.83 125.83 111.92 125.83 111.92 125.72 112.02 125.72 112.12 125.53 112.42 125.22 112.83 124.72 113.02 124.42 114.12 122.62 115.02 120.53 115.72 118.33 116.22 115.33 116.42 112.42 116.42 109.72 116.22 108.22 116.02 106.83 115.72 105.12 115.62 103.22 115.72 101.42 116.02 99.22 116.12 99.33 116.12 100.92 116.33 102.33 116.62 103.83 117.52 107.33 117.92 109.92 118.12 112.62 118.12 115.92 117.52 119.33 116.92 121.42 116.02 123.53 114.62 125.92 112.72 128.03 113.62 130.83 114.12 133.62 114.33 136.62 114.12 139.42 113.62 142.12 112.72 144.83 111.52 147.22 110.12 149.03 108.42 150.42 106.83 151.42 105.02 152.03 103.12 152.33 101.33 152.22 99.62 151.62 98.42 150.72 97.42 149.62 96.92 148.22 96.62 145.72 96.83 143.53 97.42 141.33 98.42 139.33 100.02 136.92 101.92 134.72 104.02 132.62 106.12 130.72 106.33 130.53 106.62 130.33 107.52 129.53 107.83 129.53 107.83 129.62 108.22 131.53 108.22 131.62 108.12 131.62 106.22 133.33 104.42 135.12 102.33 137.62 100.52 140.33 99.83 141.72 99.22 143.53 98.72 145.33 98.62 146.72 98.83 148.03 99.22 149.12 100.12 150.03 100.72 150.33 101.22 150.53 102.02 150.53 102.83 150.33 104.12 149.83 105.33 149.03 106.22 148.03 107.22 146.42 108.02 144.72 108.72 143.03 109.42 140.42 109.83 137.62 109.83 134.83 109.52 131.92 108.72 128.33 107.42 124.92 105.72 121.72 103.72 118.83 101.02 115.92 98.12 113.33 95.52 111.22 93.02 109.03 90.62 106.72 88.12 103.83 85.92 100.83 84.33 98.03 83.12 95.12 82.12 91.92 81.83 90.53 81.62 89.42 81.62 88.53 81.72 87.62 82.02 86.72 82.42 85.62 82.83 84.42 82.64 84.48 82.72 84.22 82.33 84.33 81.83 84.62 81.33 85.22 81.12 85.72 80.92 85.99 80.92 84.03 80.83 83.12 80.62 82.03 80.42 80.62 79.92 78.33 79.62 77.33 79.52 77.03 79.33 76.33 79.12 76.12 78.92 76.12 78.92 76.22 78.83 76.53 78.52 77.33 78.48 77.48 78.42 77.62 78.35 77.93 78.22 78.42 78.12 79.03 77.96 79.89 77.62 81.33 77.42 82.83 77.39 83.2 77.33 83.72 77.33 86.03 77.02 85.53 76.62 84.92 76.12 84.53 75.92 84.33 75.52 84.33 75.58 84.53 75.42 84.53 75.72 85.42 76.02 86.33 76.42 87.42 76.62 88.53 76.52 89.92 76.22 91.53 75.83 92.83 75.52 94.12 75.12 95.22 73.92 98.03 72.42 100.62 70.12 103.83 67.62 106.72 64.72 109.42 61.72 112.03 59.22 114.12 56.83 116.33 54.52 118.83 52.42 121.83 50.72 125.22 49.42 128.83 48.72 131.72 48.42 134.62 48.42 137.53 48.72 140.33 49.52 143.03 50.42 145.33 51.62 147.53 52.62 148.72 53.72 149.62 55.12 150.33 56.72 150.53 57.72 150.33 58.52 149.62 59.22 148.42 59.52 147.22 59.52 145.12 59.02 143.12 57.83 140.62 56.52 138.42 53.83 135.12 51.92 133.22 49.92 131.53 49.83 131.42 49.83 131.33 50.52 129.72 50.52 129.62 50.62 129.62 50.62 129.53 50.72 129.62 50.83 129.62 51.42 130.12 52.02 130.72 54.33 132.72 56.52 134.92 58.52 137.33 59.72 139.22 60.72 141.22 61.33 143.42 61.62 145.72 61.33 148.22 60.92 149.33 60.33 150.22 59.42 151.03 58.12 151.83 56.62 152.22 55.12 152.33 52.92 151.92 50.92 151.22 49.22 150.03 47.83 148.62 46.62 147.03 45.62 145.22 44.62 142.12 44.02 138.92 43.92 135.72 44.22 132.72 44.62 130.62 45.42 128.03 43.83 126.22 42.52 124.12 41.52 122.03 40.83 119.72 40.22 116.62 40.02 113.53 40.22 110.42 40.72 107.33 41.33 105.12 41.62 103.72 41.92 102.33 42.02 101.03 42.02 99.33 42.22 99.33 42.22 99.53 42.52 100.62 42.62 102.12 42.62 104.72 42.52 105.62 42.33 106.72 42.02 108.12 41.83 110.42 41.83 112.92 42.02 115.53 42.42 117.92 43.12 120.33 44.02 122.53 45.22 124.42 45.33 124.62 45.62 125.03 45.92 125.42 46.33 125.83 46.42 125.83 46.42 125.72 46.52 125.72 46.52 125.62 46.62 125.53 46.83 125.03 48.83 122.03 51.02 119.33 53.33 116.92 56.62 114.12 60.02 111.33 63.42 108.42 66.52 105.72 69.12 102.83 70.52 100.83 71.62 98.62 72.52 96.22 73.12 93.62 73.33 91.22 73.02 89.03 72.42 86.92 71.52 85.03 70.22 83.42 69.02 82.22 67.52 81.33 65.92 80.62 64.12 80.22 62.22 80.12 60.22 80.42 58.62 80.83 57.12 81.62 55.92 82.72 54.83 83.92 53.92 85.72 53.42 87.72 53.42 89.83 54.02 91.92 54.72 93.42 55.83 94.72 56.92 95.62 58.12 96.33 59.52 96.62 59.12 97.12 58.52 97.53 57.72 98.03 56.92 98.42 55.62 98.72 54.33 98.92 52.72 98.92 51.02 98.72 49.52 98.12 48.12 97.33 46.83 96.33 45.52 94.72 44.52 92.92 44.02 90.92 43.92 90.92 43.92 91.22 44.12 92.72 44.62 94.53 45.52 96.03 43.12 96.22 41.72 96.03 40.33 95.72 39.02 95.12 37.83 94.53 36.52 93.53 35.33 92.22 34.02 90.53 33.12 88.72 32.52 86.83 32.33 84.22 32.62 81.62 33.52 79.12 35.02 80.62 36.33 81.62 38.12 82.42 38.42 82.53 38.92 82.62 39.33 82.72 39.72 82.72 38.22 82.12 36.92 81.33 35.52 80.12 34.33 78.62 33.52 76.92 33.02 75.12 32.83 73.33 33.12 71.12 33.92 68.92 35.22 66.83 35.33 66.62 35.52 66.42 35.72 66.22 35.72 66.12 35.92 66.12 35.92 66.22 36.02 66.22 36.02 66.42 36.52 68.83 37.52 71.22 38.42 72.62 39.52 73.83 40.83 74.83 42.33 75.53 43.92 75.83 45.42 75.92 46.83 75.62 48.22 75.22 50.02 74.53 51.72 73.83 53.62 73.22 55.52 72.92 58.72 72.92 61.72 73.53 64.42 74.53 66.72 75.92 68.83 77.72 70.72 79.92 72.33 82.53 73.83 85.33 73.42 83.53 72.72 81.83 71.72 79.83 70.62 77.83 68.72 74.83 66.33 71.83 64.72 70.12 62.92 68.62 60.92 67.42 58.83 66.62 57.22 66.33 55.62 66.22 54.33 66.53 53.02 66.92 51.83 67.62 50.72 68.62 49.83 69.72 49.22 70.72 48.83 71.83 48.62 73.03 48.52 73.03 48.42 72.92 48.33 72.83 48.22 72.62 47.72 71.53 47.33 70.22 47.12 68.83 47.02 67.53 47.22 66.12 47.52 64.92 48.02 64.03 49.02 63.03 50.22 62.22 52.02 61.62 53.72 61.42 53.02 61.12 51.52 61.12 49.72 61.53 48.62 62.12 48.42 61.53 48.33 60.62 48.33 59.03 48.72 57.42 49.33 56.22 50.12 55.22 51.33 54.33 52.72 53.83 54.33 53.62 55.72 53.83 57.02 54.22 58.12 54.92 57.83 56.42 57.62 57.33 57.72 58.33 57.72 58.53 57.83 58.72 57.83 57.42 58.02 56.83 58.12 56.42 58.22 56.03 58.92 54.92 59.83 53.92 61.12 53.33 62.83 52.92 64.62 53.03 66.22 53.53 66.83 53.92 67.33 54.42 67.83 54.83 68.12 55.33 68.12 55.92 67.42 56.03 66.42 56.12 65.42 56.53 64.52 57.12 63.72 58.03 63.02 59.33 62.62 60.72 62.62 62.12 62.92 62.83 63.33 63.72 64.12 64.92 65.12 66.42 66.42 68.03 67.62 69.62 68.72 71.03 69.52 72.12 72.02 76.12 73.33 78.83 74.52 81.62 74.62 81.62 74.62 81.33 74.52 79.92 74.12 78.22 73.72 76.83 73.22 75.42 72.83 74.22 71.62 71.33 70.33 68.62 68.42 65.12 66.33 61.92 65.92 61.33 65.83 61.12 65.72 61.03 65.72 60.92 65.83 60.92 66.02 61.03 68.22 62.92 70.22 65.03 72.62 67.83 74.83 70.83 76.52 74.03 76.52 68.03 76.33 67.53 76.12 67.03 75.92 66.62 74.72 64.33 72.72 61.62 71.92 60.72 70.92 59.62 70.83 59.42 70.83 59.33 71.02 59.33 71.42 59.42 72.02 59.53 72.42 59.62 73.42 60.03 74.42 60.53 75.52 61.42 76.62 62.33 77.42 46.83 70.33 57.72 70.22 57.83 70.02 57.83 70.02 57.72 69.92 57.62 69.83 57.33 69.42 56.12 69.02 54.42 68.52 52.42 67.92 49.72 76.42 44.53 72.52 45.03 67.52 46.22 66.92 44.03 66.02 41.33 70.33 36.42 70.83 35.92 77.12 41.83 73.52 32.12 74.42 32.22 75.33 32.62 76.33 33.22 77.33 34.03 77.92 34.62 78.12 34.62 78.33 33.03 78.83 30.92 79.02 30.42 79.02 30.33 79.22 30.33 79.22 30.53 79.42 30.92 79.83 32.53 80.12 34.62 80.33 34.62 80.52 34.42 80.72 34.22 80.92 34.03 82.42 32.83 83.52 32.33 84.72 32.12 81.12 41.83 87.42 35.92 88.42 37.03 89.52 38.42 89.83 38.72 90.22 39.12 90.72 39.72 91.52 40.62 91.92 41.03 92.02 41.22 92.02 41.33 92.12 41.33 90.72 46.22 86.83 45.33 84.33 44.83 81.72 44.53 90.22 49.72 89.83 51.83 89.22 54.42 88.92 55.72 88.42 57.33 88.33 57.62 88.22 57.72 88.12 57.83 88.02 57.83 87.83 57.72 80.83 46.83 81.62 62.33 83.33 60.92 84.52 60.12 85.83 59.62 86.12 59.53 86.52 59.42 87.02 59.33 87.42 59.33 87.42 59.42 87.33 59.62 86.52 60.42 85.52 61.62 83.92 63.72 83.02 65.12 82.33 66.62 82.12 66.92 82.02 67.33 81.83 67.83 81.72 68.03 81.72 68.12 81.62 68.12 81.62 74.03 83.42 70.83 85.12 68.33 87.02 66.12 89.62 63.33 92.42 60.83 92.42 61.03 92.33 61.22 91.52 62.62 90.83 63.53 90.22 64.42 87.92 68.62 86.52 71.42 85.42 74.22 84.92 75.62 84.42 77.33 84.02 78.72 83.72 80.12 83.62 81.33 83.62 81.62 83.72 81.62 85.62 77.33 87.02 74.62 88.72 72.12 89.33 71.33 90.12 70.22 91.02 69.12 92.02 67.83 93.12 66.33 94.12 64.92 94.83 63.83 95.33 62.83 95.52 62.12 95.62 61.03 95.42 59.92 94.92 58.83 94.12 57.62 93.02 56.62 91.72 56.12 91.02 56.03 90.02 55.92 90.22 55.33 90.52 54.72 91.33 54.03 92.02 53.62 93.12 53.12 94.33 52.92 95.52 53.03 97.12 53.33 98.52 54.03 99.62 55.12 99.72 55.42 100.02 56.03 100.22 56.83 100.33 57.12 100.33 58.72 100.42 58.72 100.52 58.53 100.52 58.33 100.62 57.53 100.52 56.83 100.33 55.92 100.12 54.92 101.42 54.12 103.02 53.72 104.33 53.62 105.72 53.92 106.92 54.33 108.22 55.33 109.22 56.62 109.72 57.92 109.92 59.22 109.92 61.03 109.83 61.53 109.62 62.03 109.62 62.12 109.33 62.12 109.12 61.92 108.72 61.72 108.42 61.53 107.02 61.12 106.12 61.03 105.22 61.12 104.42 61.42 106.22 61.62 108.02 62.22 109.33 63.22 110.42 64.33 111.02 65.72 111.12 67.12 111.12 68.83 110.92 70.22 110.52 71.53 110.02 72.62 109.92 72.72 109.83 72.92 109.72 73.03 109.62 73.03 109.42 71.62 108.83 70.33 107.72 68.83 106.42 67.72 104.92 66.83 103.33 66.33 101.72 66.22 99.62 66.62 97.52 67.33 95.72 68.42 93.72 69.92 91.83 71.92 89.92 74.22 88.33 76.62 86.83 79.12 85.62 81.53 84.83 83.72 84.62 84.42 84.42 85.33 85.92 82.53 87.62 79.83 89.52 77.53 91.83 75.72 94.22 74.33 96.83 73.42 99.62 72.92 102.72 72.92 104.72 73.22 106.62 73.92 108.42 74.62 109.83 75.22 111.33 75.62 112.72 75.92 114.33 75.92 115.92 75.53 117.42 74.83 118.83 73.72 119.92 72.42 121.02 70.53 121.83 68.42 122.22 66.42 122.22 66.12 122.42 66.12 122.62 66.22 122.83 66.62 123.92 68.22 124.72 69.92 125.22 71.72 125.33 73.42 125.22 75.22 124.72 76.92 123.92 78.62 123.02 79.83 121.92 80.92 120.33 81.92 118.52 82.72 118.83 82.72 119.22 82.62 119.72 82.53 120.02 82.42 121.52 81.83 123.22 80.62 124.72 79.12 125.42 81.12 125.83 83.12 125.92 85.12"/>
    </g>
  </g>
</svg>