<?xml version="1.0" encoding="UTF-8"?>
<svg id="Layer_2" data-name="Layer 2" xmlns="http://www.w3.org/2000/svg" viewBox="0 0 158.25 170.25">
  <defs>
    <style>
      .cls-1 {
        fill: #bd97c6;
      }

      .cls-1, .cls-2, .cls-3, .cls-4, .cls-5 {
        stroke: #35201f;
        stroke-linecap: round;
        stroke-linejoin: round;
        stroke-width: .25px;
      }

      .cls-2 {
        fill: #35201f;
      }

      .cls-3 {
        fill: #84424c;
      }

      .cls-4 {
        fill: #deb5b9;
      }

      .cls-5 {
        fill: none;
      }
    </style>
  </defs>
  <g id="Layer_1-2" data-name="Layer 1">
    <g>
      <path class="cls-5" d="M111.12,97.82l-.3-.7M77.22,113.52l1.2.6,1.3.5M77.22,113.52l-.1-.1M95.42,113.02l-.6,1.3"/>
      <path class="cls-2" d="M157.72,101.62l-.9-5.1-1.2-5.4-1.5-5.6-1.6-5-1.8-5-2-5-2.3-5.1-2.6-5.1-2.9-5.2-3.3-5.3-3.6-5.5-3-4.3-3.4-4.4-3.8-4.7-4.1-4.7-4.6-4.9-5.1-4.9-3.5-3.1-3.8-3.1-3.9-2.9-4.2-2.7-2.8-1.4-2.9-1.3-3.1-.9-3.2-.7-3.5-.2-3.4.2-3.2.7-3.1.9-2.9,1.3-2.8,1.4-4.2,2.7-3.9,2.9-3.8,3.1-3.6,3.1-5,4.9-4.6,4.9-4.2,4.7-3.7,4.7-3.4,4.4-3,4.3-3.7,5.5-3.2,5.3-2.9,5.2-2.6,5.1-2.3,5.1-2,5-1.8,5-1.6,5-1.5,5.6-1.3,5.4-.8,5.1-.5,4.9v4.6l.5,4.4,1,4.3,1.3,4.3,1.8,4.4,2.1,4.6,2.3,4.5,2.6,4.3,2.9,4.1,3.1,3.6,3.3,3.2,3.7,2.8,4.1,2.8,4.6,2.6,5,2.5,4.1,1.7,4.3,1.6,4.6,1.4,2.7.6,2.9.5,3.3.4,1.9.2,2.1.1h2.3l2.6.1,2.9-.1h3.3l3.7-.1,3.8.1h3.3l2.9.1,2.5-.1h2.4l2.1-.1,1.9-.2,3.2-.4,3-.5,2.7-.6,4.6-1.4,4.3-1.6,4-1.7,5.1-2.5,4.6-2.6,4.1-2.8,3.6-2.8,3.3-3.2,3.2-3.6,2.9-4.1,2.6-4.3,2.3-4.5,2.1-4.6,1.7-4.4,1.4-4.3.9-4.3.5-4.4v-4.6l-.4-4.9ZM156.42,111.02l-.5,4.2-.9,4.1-1.3,4.2-1.7,4.3-2.1,4.5-2.3,4.5-2.5,4.2-2.8,3.9-3,3.6-3.2,2.9-3.5,2.8-4,2.7-4.5,2.5-5,2.5-3,1.3-1,.4-2.2.9-1.3.43-.7.27-.75.22-.55.18-3.4,1-3.7.8-1.5.2-.7.1-2.3.3-2.7.2-3,.1h-9.9l-3.3-.1-3.7.1h-8.7l-2.3-.1-2.1-.1-1.9-.1-3.1-.4-2.8-.5-2.7-.6-4.4-1.3-4.3-1.6-3.9-1.7-5-2.5-4.5-2.5-4-2.7-3.5-2.8-3.2-2.9-3.1-3.6-2.7-3.9-2.6-4.2-2.3-4.5-2-4.5-1.7-4.3-1.4-4.2-.9-4.1-.4-4.2v-4.4l.4-4.8.9-5,1.1-5.3,1.5-5.5,1.6-4.9,1.8-4.9,2-5,2.3-5,2.5-5.1,2.9-5.1,3.2-5.3,3.6-5.4,3-4.3,3.3-4.4,3.8-4.5,4.1-4.7,4.5-4.9,5-4.8,3.5-3.1,3.7-3.1,3.9-2.8,4.1-2.6,2.6-1.4,2.8-1.1,2.9-.9,3-.6,3.2-.2,3.3.2,3,.6,3,.9,1.93.83.67.27.16.08.04.02,2.5,1.3.2.1,2.6,1.6.88.63.42.27,3.8,2.8,2.94,2.46,1.76,1.44,1.75,1.63.75.67,1.47,1.41.63.59.96.93,1.94,1.87.37.39,1.03,1.01,1.74,1.95,1.46,1.55,4.1,4.7,1.95,2.38.45.52.25.32,1.05,1.28,3.4,4.4,3,4.3,3.6,5.4,3.2,5.3,2.8,5.1,2.6,5.1,2.3,5,2,5,1.8,4.9,1.5,4.9,1.5,5.5,1.2,5.3.8,5,.5,4.8v4.4Z"/>
      <path class="cls-1" d="M155.92,101.82l-.8-5-1.2-5.3-1.5-5.5-1.5-4.9-1.8-4.9-2-5-2.3-5-2.6-5.1-2.8-5.1-3.2-5.3-3.6-5.4-3-4.3-3.4-4.4-1.05-1.28-.25-.32-.45-.52-1.95-2.38-4.1-4.7-1.46-1.55-1.74-1.95-1.03-1.01-.37-.39-1.94-1.87-.96-.93-.63-.59-1.47-1.41-.75-.67-1.75-1.63-1.76-1.44-2.94-2.46-3.8-2.8-.42-.27-.88-.63-2.6-1.6-.2-.1-2.5-1.3-.04-.02-.83-.35-2.03-.83-2.9-.9-3.1-.6-3.2-.2-3.2.2-3,.6-2.9.9-2.8,1.1-2.6,1.4-4.1,2.6-3.9,2.8-3.7,3.1-3.5,3.1-5,4.8-4.5,4.9-4.1,4.7-3.8,4.5-3.3,4.4-3,4.3-3.6,5.4-3.2,5.3-2.9,5.1-2.5,5.1-2.3,5-2,5-1.8,4.9-1.6,4.9-1.5,5.5-1.1,5.3-.9,5-.4,4.8v4.4l.4,4.2.9,4.1,1.4,4.2,1.7,4.3,2,4.5,2.3,4.5,2.6,4.2,2.7,3.9,3.1,3.6,3.2,2.9,3.5,2.8,4,2.7,4.5,2.5,5,2.5,3.9,1.7,4.3,1.6,4.4,1.3,2.7.6,2.8.5,3.1.4,1.9.1,2.1.1,2.3.1h8.7l3.7-.1,3.8.1h9.4l3-.1,2.7-.2,2.3-.3.7-.1,1.5-.2,3.7-.8,3.4-1,.55-.18,1.45-.49,1.3-.43,2.2-.9,1-.4,3-1.3,5-2.5,4.5-2.5,4-2.7,3.5-2.8,3.2-2.9,3-3.6,2.8-3.9,2.5-4.2,2.3-4.5,2.1-4.5,1.7-4.3,1.3-4.2.9-4.1.5-4.2v-4.4l-.5-4.8ZM147.42,126.72l-.3,2.7-.8,2.6-1,2.5-1.3,2.2-2.2,2.8-2.6,2.5-3,2.2-2.6,1.8-2.5,1.6-2.3,1.6-2.8,2.1-2.9,2.5-3.5,3.5-1.6,1.3-1,.6-1.3.6-1.4.4-1.8.3-6.2.7-6.4.3-5.1-.2-4.9-.3-3.1-.5-3.2-.5-2.4-.2-2.5-.1-2.5.1-2.5.4-2,.3-1.9.3-6.4.5-6.4.1-5-.2-5.1-.4-1.8-.3-1.7-.4-1.4-.6-1.5-.9-1.3-1-1.4-1.3-1.4-1.4-1.1-1.1-1.3-1.2-3.4-2.8-3.5-2.4-3.6-2.3-3.4-2.5-2-1.6-1.8-1.9-1.7-2-1.4-2.4-1.1-2.6-.7-2.6-.4-2.7v-2.6l.2-2.6.3-2.6.5-3.4.5-3.4.4-3.4v-4.6l-.3-4.5-.3-3.4-.3-3.6v-1l-.1-.8.2-3.4.5-3.1.9-2.8,1.3-2.6,1.7-2.7,2-2.7,2.4-2.7,1.9-2,2-2.1,1.5-1.6,1.3-1.7,1.6-2.6,1.1-2.8.9-2.8.8-2.9.9-3.1,1-2.9,1.3-2.9,1.7-2.7,2-2.3,2.2-2,2.2-1.8,2.4-1.7,2.4-1.7,2.3-1.7,2.3-1.9,2.2-2.1,3.3-3.6,3.3-3.6,3.3-3.4,2.8-2.5,3-2.3,3.3-2.2.7-.4.9-.5,1-.5.8-.4.7-.3.4-.2.9-.1.6.1.5.2.7.3,1.3.7,1,.6.8.4,3.7,2.4,3.5,2.7,2.6,2.3,2.4,2.4,3.3,3.5,3.2,3.7,2.6,2.7,2.8,2.5,2.7,1.8,2.5,1.7,2.5,1.7,1.9,1.5,1.8,1.7,1.6,2,1.5,2.2,1.1,2.1.8,2.2.7,2.1,1,3.5,1,3.8,1.2,3,1.5,2.7,1.7,2.4,1.8,2.3,4,4.4,2,2.1,1.7,2.1,1.5,2.2,1.4,2.4,1,2.6.8,2.9.3,3.2v3.9l-.2,3.9-.3,4-.2,4.6v4.7l.5,3.8.6,3.9.5,3.1.3,3.1-.1,3Z"/>
      <path class="cls-4" d="M147.22,120.62l-.5-3.1-.6-3.9-.5-3.8v-4.7l.2-4.6.3-4,.2-3.9v-3.9l-.3-3.2-.8-2.9-1-2.6-1.4-2.4-1.5-2.2-1.7-2.1-2-2.1-4-4.4-1.8-2.3-1.7-2.4-1.5-2.7-1.2-3-1-3.8-1-3.5-.7-2.1-.8-2.2-1.1-2.1-1.5-2.2-1.6-2-1.8-1.7-1.9-1.5-2.5-1.7-2.5-1.7-2.7-1.8-2.8-2.5-2.6-2.7-3.2-3.7-3.3-3.5-2.4-2.4-2.6-2.3-3.5-2.7-3.7-2.4-.8-.4-1-.6-1.3-.7-.7-.3-.5-.2-.6-.1-.9.1-.4.2-.7.3-.8.4-1,.5-.9.6-.7.3-3.3,2.2-3,2.3-2.8,2.5-3.3,3.4-3.3,3.6-3.3,3.6-2.2,2.1-2.3,1.9-2.3,1.7-2.4,1.7-2.4,1.7-2.2,1.8-2.2,2-2,2.3-1.7,2.7-1.3,2.9-1,2.9-.9,3.1-.8,2.9-.9,2.8-1.1,2.8-1.6,2.6-1.3,1.7-1.5,1.6-2,2.1-1.9,2-2.4,2.7-2,2.7-1.7,2.7-1.3,2.6-.9,2.8-.5,3.1-.2,3.4.1.8v1l.3,3.6.3,3.4.3,4.5v4.6l-.4,3.4-.5,3.4-.5,3.4-.3,2.6-.2,2.6v2.6l.4,2.7.7,2.6,1.1,2.6,1.4,2.4,1.7,2,1.8,1.9,2,1.6,3.4,2.5,3.6,2.3,3.5,2.4,3.4,2.8,1.3,1.2,1.1,1.1,1.4,1.4,1.4,1.3,1.3,1,1.5.9,1.4.6,1.7.4,1.8.3,5.1.4,5,.2,6.4-.1,6.4-.5,1.9-.3,2-.3,2.5-.4,2.5-.1,2.5.1,2.4.2,3.2.5,3.1.5,4.9.3,5.1.2,6.4-.3,6.2-.7,1.8-.3,1.4-.4,1.3-.6,1-.6,1.6-1.3,3.5-3.5,2.9-2.5,2.8-2.1,2.3-1.6,2.5-1.6,2.6-1.8,3-2.2,2.6-2.5,2.2-2.8,1.3-2.2,1-2.5.8-2.6.3-2.7.1-3-.3-3.1ZM136.92,116.62l-.8,5-.6,2.5-.2.7-.5,1.8-.42,1.04-.08.26-.25.58-.45,1.12-.3.6-1.1,2.2-2.1,3.2-2.5,3.1-.1.1-2.9,3.1-.24.22-3.06,2.78-3.5,2.7-2.8,1.9-2.81,1.59-.19.11-3,1.4-1.66.57-1.14.43-3.1.7-2.71.09h-.09s-.1.01-.1.01l-.22-.02-2.58-.18-2.45-.7-.35-.1-2.6-1.2-1.9-1.3-1.52-1.42-.08-.08-.29-.4-1.01-1.3-1-2.1-.2-.8-.2-.7v-.15s-.1-.35-.1-.35v-.7l-3.8,4.3-1.3,1.2-1.4.9-.42.17-.38.23-.53.13-.67.17-1.33.27-.27.03-.8.1-.85-.1h-.45l-2.2-.5-1.1-.5-.22-.16-.08-.04-.14-.12-1.01-.87-.65-.71-.61-.67-.29-.33-1.2-1.7-.93-1.4-.27-.4-.6-.93-.6-.87-.9-1.3-1.54-1.97-.39-.47-1.76-1.85-.71-.61-1.36-1.09-1.84-1.01-.4,1.2-.22.58-.08.22-.1.24-.1.26-.6,2v.1l-.1.1,1.4-.1,1.4.2,1.2.4,1,.8.5.9.1.6-.1.8-.4,1.2-.1.2-.7,1.4-.44.6-.06.1-.3.4-.7,1-.6.8-2.03,2.13-.17.17-.47.43-1.03.97-.33.27-.37.33-2.83,2.27-.17.13-.6.5-2.5,1.9-.1.1-.1.2-.2.2-.2.1-.2.1-.4-.1-.4-.4-.1-.1-.07-.11-.23-.29-.2-.4-.2-.4-.1-.7-.2-.9.1-.7.3-.7.6-1,1-1.2,1.2-1.1,1.6-1.3,1.5-1.3.3-.2.2-.2v-.2l-1-.4-1-.6-.44-.36-.06-.04-.16-.14-.44-.36-1-.9-1.4-1.7-.07-.13-.13-.17-.22-.55-.48-.95-.6-1.9-.02-.38-.08-.32v-2l.3-1.9.8-1.9,1.1-1.6,1.4-1.2,1.6-.9,1.9-.6.5-.1h1.5l.3-.1.2-.1.2-.2,1.3-3.6,1.3-3.7,1.5-4.8,1.6-4.7-2.3.4-2.9.4-2.28.37-1.62.33-1.95.35-1.95.35-.36.07-2.74.53-3.2.3-2.1.2h-1.9l-.9-.1-.9-.1-.99-.33-.31-.07-1.6-.7-1.5-1.1-.1-.1-1.4-1.4-1.3-1.7-.44-.8-.66-1.1-1.1-2.3-.22-.5-.88-2.2-.67-1.8-.33-.9-.4-1.3-.4-1.2-.6-2.5-.5-2.4-.2-2v-4.1l-.2-.9v-.09s-.1-.21-.1-.21v-1.2l.1-.4.3-.8.3-.6.4-.3.7-.4.8-.2,2-.7,1.9-.2,2.4.2,2.6.7,3.6,1,3.6,1.2,3.6,1.1,2.8.6,2.8.4h2.8l2.9-.3,2.8-.9,2-.9,1.9-1.2,1.7-1.3,3.1-2.8,2.8-3,.1-.1.26-.3,2.64-3,2.9-3.7,2.8-4,2.5-4,2.2-4,2-4,1.5-3.9.3-.8.2-1,.5-2.1.3-2.1.1-2.2-.2-2.1-.5-2-.9-1.7-.8-1-1.1-.7-1.2-.6-2.5-.6-2.22-.1-2.18.4-1.9.8-2.4,1.4-2.1,1.8-1.9,1.9-.35.4-1.65,2-.9,1.2-1,1.4-.8,1.2-.55.92-.75,1.58-.3,1.4-.1,1.4.2,1.2.5,1.2.8,1.1.8.7,1.1.6,1.1.4,1.2.5,1,.6.8.7.3.6.2.7v1.2l-.3,1-.03.08-.07.22-.15.33-.15.37-.14.25-.16.35-.2.3-.4.6-.07.06-.03.04-.6.5-.7.4-.4.1-.4.1-.4.1h-.11s-.09,0-.09,0l-.12-.04-.48-.06-.4-.2-.3-.3-.07-.1-.13-.1-.15-.22-.15-.08-.2-.1-.6-.2h-.5l-.5-.1-1.4-.6-.9-.69-.3-.21-.1-.1-1.1-1.1-.98-1.16-.27-.36-.57-.86-.28-.42-.15-.33-.45-.77-.6-1.9-.4-1.9-.03-.56-.07-.54.02-.45-.02-.45.08-.6.02-.5.3-2.1.7-2.5.8-2.4,1.4-2.9,1.6-2.5,1.8-2.4,2.3-2.3,2.5-2,2.9-1.8,2.9-1.5,3.2-1.1,3.1-.7,3.2-.3,3.1.4,2.2.6,2.1,1,2,1.3,1.8,1.8,1.2,1.5.9,1.8.7,1.9.6,2.5.3,2.5v2.5l-.2,1.7-.4,2.2-1,4.1-1.24,3.27-.16.43-.09.22-.32.74-1.29,3.04-2.1,4-1.96,3.19-.44.71-2.22,3.38-.99,1.41-2.39,3.21-2.64,3.27-.41.51-.35.42-.26.29-2.64,2.91-2.6,2.7-.2.2-.17.16-2.53,2.44-1.87,1.45-.43.35-2.6,1.5-2.3.9-.5.2-2.9.8-1.19.21-1.34.23-2.14.17-1.33.09-4.53-.09-.65-.06-3.89-.5-.43-.05-.21-.05-.89-.15-3.4-.8-2.76-.9-.34-.1-.43-.15-1.37-.45-1-.39-.3-.11-4.8-1.9.3,1.6.3,1.9.7,2.8.8,3,.8,2.5.9,2.4,1,2.2,1,1.6,1.2,1.5,1.7,1.6,2.1,1.4,4.6-1,3-.7,2.9-.7,2.2-.3,2.5-.4,2.7-.1,2.7.2,1.6.3,1.6.5,1.3.8,1.1,1.1.7,1.4.4,1.7v1.4l-.3,2.1-.5,2.3-.18.63-.02.07-.07.22-.43,1.48-.17.48-.23.72-.8,2.2-.6,1.7-1.2,3.2-1.1,2.5,2.2,1,2.1,1.4,2.5,2.1,2.1,2.3,1.6,2,1.5,2.3,1.3,1.9,1.4,1.7,1.5,1.5.6.4.4.3.2.1h.3l.2-.1.3-.1.4-.2,1.5-1.2,1.5-1.6,1.6-1.8,1.5-2,1.8-2.7,1.7-2.7,1.5-2.5,1.2-2.3.2-.4.3-.7.4-.8.6-1.3.3-.6.2-.2.1-.2.3-.1h.1l.1-.1h.1v-.8l.1-.1.2-.1.4-.2,1.3-.3.8.1.8.4.5.5.3.7v1l-.1,1-.1.1v.2l-.7,2.7-.71,2.29-.49,1.91-.7,2.6-.3,1.7-.2,2.1-.1,1.3.2,1,.2.8.5.8.7.8,1,1,1,.6,1.1.4,1.4.2,1.6-.1,1.7-.3,3.2-.7,3.3-1.2,3.3-1.4,4.1-2.2,3.8-2.4,3.5-2.6,2.3-2,2-2.1,1.9-3,1.5-3.3.8-3.3.23-1.27.27-3.23.1-4.8v-.06l-.2-4.64-.33-3.07-.23-1.77-.94-4.16-1.1-3.4-1.4-3.3-1.8-3.2-2.2-3.1-2-2.1-1.28-.96-.92-.64-1.2-.7-1.2-.7-2.7-.9-.26-.05-.14-.05-.79-.15-1.91-.35-2.8-.19-2.9.19-2.5.5-2.8.6-2.9.9-2.4.8-1.53.6-1.47.6-.18.08-2.12,1.02-2.2,1.2-1.2,1-1.3,1.4,3.2.1h.03l3.27-.3,4-.7,4-.8,6.2-1.4,4-.7,4-.4,1.8.2,1.4.6,1.2,1,.8,1.2.7,1.9.2,2.2-.2,2.2-.6,1.9-.9,2.2-.43.77-.57,1.13-1.4,2.3-.4.6-1.2,1.8-1.21,1.79-.99,1.31-1.4,1.8-.4.5-1.7,2.1-1.27,1.35-.23.25-1.7,1.8-1.5,1.3-.5.5-.8.6-.8.56-.3.24-1.26.77-.54.33-.3.2-.6.4-.25.07-.05.03-.4.1-.4.1h-.7l-.3-.2-.6-.7-.13-.37-.17-.33-.06-.28-.09-.47-.07-.52-.08-.53v-.17s0-.13,0-.13l.1-1.1v-.1l.1-.2.5-1.2,1-1.4,1.1-1.5,1.3-1.4,1.2-1.4,2.2-2.2,1.4-1.8-5.52,2.3-3.68,1.6-.81.32-1.79.78-4.7,1.8-4.4,1.5-1.3.4-1.6.5-2.9.6v.1l.1.1.2.1,1.2.6,1.3.6,1.7.7,1.6.7,1.5.8.8.4,1,.4h.1l.1.1.5.3.5.4.3.2.3.3.1.3v1l-.2.4-.1.1-.2.1-.3.2-.15.05-.25.15-.8.3-.4.2-.3.1-.7.1h-.04s-.06,0-.06,0l-.6-.1-.14-.06-.16-.04-.17-.1-.23-.1-2.4-.9-1.9-.7-.54-.23-.46-.17-.9-.4-1.6-.7-1.9-.9-.51-.27-.69-.33-2-1.1-1.5-1.1-.15-.12-.25-.18-.06-.08-.14-.12-.4-.6-.2-.7-.1-.5v-.8l.2-.9.2-.6.4-.5.5-.4.9-.4,1.3-.5,1.5-.5,1.9-.5,1.8-.4,1.5-.4,1.3-.4,2.2-.9,2.2-1,3-1.4,2.9-1.2,2-.9,2.4-1,2.7-1,2.5-1,2.5-.8,2.3-.7,1.9-.3h1.5l1.6.2.7.2.7.4.5.4.3.6.1.6v.3h.1l1.2-2.2.6-1,.7-1.5.6-1.4.6-1.9v-.2l-1.4-.4-.85-.13-.85-.05-1.26.07h-.14s-1.8.21-1.8.21l-2.8.5-3,.7-3.3.7-3.5.8-1.45.25-2.25.45-2.7.4-1.08.08-1.62.12h-2.5l-.53-.07-1.57-.13-2.2-.6-1.2-.6-.16-.13-.14-.07-.8-.8-.31-.47-.22-.53-.21-.63-.12-.63-.14-.74v-.22s0-.08,0-.08l.1-1.7.1-.2v-.2l.5-1.4.9-1.4,1.2-1.4,1.4-1.2,1.7-1.2,2.2-1.4,2.4-1.2,2.3-1.1,2-.8,1.8-.7,3.7-1.2,3.6-.9,3.8-.5,3.5-.2,3.6.3,3.5.7,3.4,1.3,2.6,1.3,2.2,1.4,2.1,1.5,1.7,1.6,1.6,1.8,1.4,2.1,1.3,2.5,1.9,4.6,1.6,5,1.1,5.2.7,5.2.3,5.2-.2,5.2Z"/>
      <polygon class="cls-3" points="137.12 111.42 136.92 116.62 136.12 121.62 135.33 124.82 134.4 127.66 134.08 128.51 133.33 130.22 132.22 132.42 130.12 135.62 127.53 138.82 124.62 141.92 124.39 142.14 121.33 144.92 117.83 147.62 115.03 149.52 112.21 151.11 109.42 152.42 107.36 153.19 106.12 153.62 103.12 154.22 100.41 154.41 100.33 154.42 100.22 154.42 100.01 154.4 97.22 154.12 94.97 153.52 94.62 153.42 92.03 152.22 90.12 150.92 88.6 149.51 88.23 149.02 87.22 147.62 86.22 145.52 86.03 144.82 85.92 144.42 85.82 143.97 85.72 142.92 81.92 147.12 80.22 148.62 78.8 149.49 77.9 149.85 77.22 150.02 75.9 150.29 75.62 150.32 73.97 150.32 73.12 150.22 71.33 149.82 70.01 149.16 69.78 149.01 68.78 148.13 68.12 147.42 67.52 146.76 67.22 146.42 66.03 144.72 65.09 143.32 64.72 142.72 64.22 141.99 63.72 141.22 62.72 139.82 61.18 137.85 60.92 137.52 60.79 137.38 59.83 136.22 59.03 135.53 58.92 135.42 58.33 134.92 57.12 133.92 56.96 133.83 56.83 133.72 55.12 132.82 54.51 134.6 54.42 134.82 54.33 135.07 53.92 136.02 53.62 137.32 53.62 137.42 53.53 137.52 54.92 137.42 56.33 137.62 57.53 138.12 58.53 138.82 59.03 139.72 59.12 140.32 59.03 141.12 58.53 142.52 58.03 143.52 57.39 144.52 57.03 145.02 56.42 145.82 55.72 146.82 53.7 148.95 53.05 149.55 51.7 150.79 50.03 152.12 48.49 153.39 48.33 153.52 45.22 155.92 45.12 156.02 45.03 156.12 44.83 156.42 44.62 156.52 44.42 156.62 44.03 156.52 43.62 156.12 43.46 155.91 43.03 155.22 42.83 154.62 42.72 154.12 42.62 153.42 42.62 152.52 42.92 151.82 43.53 150.82 44.53 149.62 45.72 148.52 47.33 147.22 48.83 145.92 49.12 145.72 49.33 145.52 49.33 145.32 48.03 144.72 46.89 143.96 46.83 143.92 46.66 143.78 45.22 142.52 43.76 140.69 43.4 139.97 42.72 138.32 42.3 136.74 42.22 134.82 42.53 132.52 43.33 130.62 44.42 129.02 45.83 127.82 47.42 126.92 49.33 126.32 49.83 126.22 51.33 126.22 51.62 126.12 51.83 126.02 52.03 125.92 54.62 118.52 56.12 113.72 57.72 109.02 54.83 109.42 52.53 109.72 50.24 110.19 49.42 110.32 46.67 110.88 44.72 111.22 44.36 111.29 42.53 111.62 38.42 112.12 35.83 112.32 33.53 112.22 31.64 111.79 31.12 111.62 29.62 110.92 28.12 109.82 26.72 108.42 25.53 106.82 24.98 105.92 24.33 104.72 23.22 102.52 23.01 102.02 22.12 99.82 21.46 98.02 21.22 97.32 20.72 95.82 20.33 94.52 19.72 92.02 19.22 89.72 19.03 87.72 19.03 83.62 18.92 82.92 18.82 82.63 18.72 82.12 18.72 81.22 18.83 80.82 19.12 80.02 19.42 79.52 19.83 79.12 20.53 78.82 21.33 78.52 23.33 77.82 25.22 77.62 27.62 77.92 30.22 78.52 33.83 79.52 37.42 80.72 41.03 81.82 43.83 82.42 46.62 82.82 49.42 82.92 52.33 82.52 55.12 81.62 57.12 80.72 59.03 79.52 60.72 78.22 63.83 75.42 66.62 72.42 66.72 72.32 66.98 72.02 69.62 69.12 72.53 65.32 75.33 61.32 77.83 57.42 80.03 53.32 82.03 49.32 83.53 45.42 83.83 44.62 84.03 43.62 84.53 41.52 84.83 39.42 84.92 37.22 84.72 35.12 84.22 33.12 83.33 31.42 82.53 30.42 81.53 29.62 80.22 29.12 77.72 28.52 75.51 28.42 75.42 28.42 73.22 28.82 71.22 29.62 69.33 30.72 67.12 32.62 66.92 32.82 65.03 34.72 64.92 34.82 64.67 35.12 63.03 37.02 61.83 38.72 61.12 39.72 60.62 40.42 60.33 40.92 59.92 41.52 59.78 41.84 59.72 41.92 59.03 43.42 58.72 44.82 58.62 46.22 58.83 47.42 59.33 48.62 60.12 49.72 60.92 50.42 62.03 51.02 63.12 51.42 64.33 51.92 65.33 52.52 66.12 53.22 66.42 53.82 66.62 54.52 66.62 55.72 66.33 56.72 66.29 56.8 66.08 57.35 65.78 57.97 65.42 58.62 64.96 59.28 64.33 59.82 63.22 60.32 62.83 60.42 62.32 60.51 62.1 60.48 61.62 60.32 61.22 60.12 60.85 59.82 60.62 59.52 60.58 59.51 60.53 59.42 60.22 59.22 59.83 59.12 59.33 59.12 58.62 59.02 57.33 58.42 56.33 57.73 55.92 57.42 54.83 56.32 53.84 55.16 53.58 54.8 53.01 53.94 52.58 53.19 52.03 52.02 51.53 50.52 51.22 49.02 51.09 48.07 51.04 47.07 51.1 46.02 51.22 45.02 51.42 43.42 52.12 40.92 52.92 38.52 54.33 35.62 55.92 33.12 57.72 30.72 60.03 28.52 62.53 26.42 65.42 24.62 68.33 23.12 71.53 22.02 74.62 21.32 77.83 21.12 80.92 21.42 83.12 22.02 85.22 23.02 87.22 24.32 89.03 26.12 90.22 27.72 91.12 29.42 91.83 31.32 92.42 33.82 92.72 36.32 92.72 38.82 92.53 40.52 92.12 42.72 91.12 46.62 89.89 50.09 89.72 50.52 89.64 50.74 89.32 51.48 87.62 55.22 85.33 59.42 83.96 61.71 83.53 62.42 81.3 65.8 80.32 67.21 77.92 70.42 75.28 73.69 74.88 74.2 74.27 74.91 71.62 77.82 69.03 80.52 68.83 80.72 68.65 80.88 66.12 83.22 64.26 84.77 63.92 85.02 61.53 86.42 58.92 87.52 56.22 88.32 54.34 88.73 52.99 88.96 50.85 89.13 49.53 89.22 44.99 89.13 44.34 89.07 40.46 88.57 39.82 88.47 35.53 87.42 32.77 86.62 31.99 86.38 29.62 85.53 24.53 83.52 24.83 85.12 25.12 87.02 25.83 89.82 26.62 92.82 27.42 95.32 28.33 97.72 29.33 99.92 30.33 101.52 31.53 103.02 33.22 104.72 35.33 106.02 39.92 105.02 42.92 104.32 45.83 103.62 48.03 103.32 50.53 103.02 53.22 102.82 55.92 103.02 57.53 103.32 59.12 103.82 60.42 104.62 61.53 105.72 62.22 107.12 62.62 108.82 62.62 110.22 62.33 112.32 61.65 115.26 61.62 115.32 61.55 115.54 60.96 117.51 60.42 118.92 59.92 120.42 59.33 122.12 58.33 124.62 57.03 127.82 59.22 128.82 61.33 130.22 63.83 132.32 65.92 134.62 67.53 136.62 69.03 138.92 70.33 140.82 71.72 142.52 73.22 144.02 73.83 144.42 74.22 144.72 74.42 144.82 74.92 144.82 75.22 144.62 75.62 144.42 77.12 143.22 78.62 141.62 80.22 139.82 81.72 137.82 83.53 135.12 85.22 132.42 86.72 129.92 87.92 127.62 88.12 127.22 88.42 126.52 88.83 125.72 89.42 124.42 89.72 123.92 89.92 123.62 90.03 123.42 90.33 123.32 90.42 123.32 90.53 123.22 90.62 123.22 90.62 122.42 90.72 122.32 90.92 122.22 91.33 122.02 92.62 121.72 93.42 121.82 94.22 122.22 94.72 122.72 94.92 123.42 95.03 124.42 94.92 125.42 94.83 125.52 94.83 125.72 93.62 129.92 93.41 130.71 93.33 131.02 92.22 135.22 91.92 136.92 91.72 139.02 91.62 140.32 91.83 141.32 92.03 142.12 92.53 142.92 93.22 143.72 94.22 144.72 95.22 145.32 96.33 145.72 97.72 145.92 99.33 145.82 101.03 145.62 104.22 144.82 107.53 143.72 110.83 142.22 114.92 140.02 118.72 137.62 122.22 135.12 124.53 133.02 126.53 130.92 128.42 127.92 129.92 124.62 130.53 122.52 130.92 120.42 130.96 120.05 131.12 119.12 131.22 116.82 131.33 112.02 131.33 111.82 131.12 106.92 130.79 104.26 130.62 102.72 130.57 102.48 130.53 102.12 129.72 98.62 129.62 98.32 128.62 95.12 127.22 91.72 125.42 88.52 123.12 85.32 121.22 83.22 119.84 82.26 118.72 81.42 117.72 80.92 116.53 80.22 113.83 79.32 113.57 79.27 113.42 79.22 112.64 79.07 110.92 78.72 108.03 78.52 107.92 78.53 107.83 78.52 105.03 78.72 102.62 79.12 100.03 79.72 97.22 80.52 94.42 81.52 94.12 81.62 92.9 82.12 91.62 82.62 91.42 82.72 91.24 82.8 89.03 83.82 86.92 85.02 85.42 86.22 84.42 87.42 84.42 87.52 87.72 87.52 90.92 87.22 94.92 86.62 98.92 85.72 105.12 84.42 109.12 83.62 113.12 83.22 114.92 83.42 116.33 84.02 117.53 85.02 118.33 86.22 119.03 88.22 119.22 90.32 119.03 92.52 118.42 94.32 117.62 96.32 117.09 97.39 116.22 98.92 114.72 101.42 113.53 103.22 112.32 105.01 111.33 106.32 109.92 108.12 109.53 108.62 108.12 110.32 106.55 112.07 106.33 112.32 106.12 112.52 104.53 114.12 103.12 115.42 102.53 115.92 101.72 116.52 101.03 117.08 100.83 117.22 99.83 117.82 99.46 118.09 98.92 118.42 98.62 118.62 98.22 118.82 97.78 119.09 97.33 119.22 96.62 119.32 96.42 119.32 96.12 119.22 95.92 119.12 95.42 118.52 95.2 118.05 94.96 117.44 94.88 116.97 94.8 116.45 94.73 115.76 94.83 114.52 94.83 114.42 94.92 114.22 95.42 113.02 96.42 111.62 97.53 110.12 98.83 108.72 100.03 107.32 102.22 105.12 103.62 103.32 99.03 105.22 98.1 105.62 96.42 106.32 93.61 107.54 87.12 110.12 81.42 112.02 76.92 113.12 76.92 113.22 77.03 113.32 77.22 113.42 78.42 114.02 79.72 114.62 81.42 115.32 83.03 116.02 84.53 116.82 85.33 117.22 86.33 117.62 86.42 117.62 86.53 117.72 87.03 118.02 87.53 118.42 87.83 118.62 88.12 118.92 88.22 119.22 88.22 119.92 88.12 120.32 88.03 120.62 87.92 120.62 87.72 120.82 87.28 121.07 86.62 121.32 86.22 121.52 85.72 121.72 85.53 121.82 84.78 121.91 84.22 121.82 83.98 121.76 83.65 121.62 83.33 121.42 82.62 121.22 80.53 120.42 78.59 119.69 77.22 119.12 74.83 118.02 73.21 117.26 72.03 116.62 70.53 115.72 69.62 115.12 68.88 114.6 68.57 114.34 68.12 113.72 67.83 112.92 67.72 112.22 67.72 111.62 67.92 110.72 68.12 110.12 68.53 109.62 69.03 109.22 69.92 108.82 71.22 108.32 72.72 107.82 74.62 107.32 76.42 106.92 77.92 106.52 79.22 106.12 81.42 105.22 83.72 104.22 86.62 102.82 89.53 101.62 91.53 100.72 93.92 99.82 96.62 98.72 99.12 97.72 101.62 96.92 103.92 96.32 105.83 95.92 107.33 95.92 108.92 96.12 109.62 96.32 110.33 96.72 110.83 97.12 111.12 97.72 111.22 98.32 111.22 98.62 111.33 98.62 112.53 96.42 113.12 95.42 113.83 94.02 114.42 92.52 115.03 90.62 115.03 90.42 113.33 89.92 112.78 89.89 112.33 89.82 111.92 89.84 111.53 89.82 110.66 89.91 110.53 89.92 108.72 90.12 105.92 90.62 102.72 91.32 99.42 92.02 95.92 92.82 94.67 93.07 93.22 93.32 90.33 93.82 88.65 94.01 87.03 94.12 84.83 94.12 83.99 94.05 82.22 93.82 80.22 93.32 78.86 92.59 78.58 92.38 77.92 91.72 77.61 91.26 77.4 90.72 77.18 90.09 77.07 89.46 76.93 88.51 77.03 86.72 77.12 86.62 77.12 86.32 77.62 84.92 78.53 83.52 79.72 82.12 81.22 80.92 82.83 79.72 85.03 78.32 87.42 77.12 89.72 76.02 91.83 75.22 93.53 74.52 97.22 73.32 100.83 72.42 104.62 71.92 108.12 71.72 111.72 72.02 115.22 72.72 118.62 74.02 121.22 75.32 123.42 76.72 125.53 78.22 127.22 79.82 128.83 81.62 130.22 83.82 131.53 86.22 133.42 90.82 135.03 95.82 136.12 101.02 136.83 106.22 137.12 111.42"/>
    </g>
  </g>
</svg>