<svg preserveAspectRatio="none" width="100%" height="100%" overflow="visible" style="display: block;" viewBox="0 0 66.6614 11.3364" fill="none" xmlns="http://www.w3.org/2000/svg">
<g id="Right Side">
<g id="Battery">
<path id="Rectangle" opacity="0.35" d="M45.0003 0.50286H61.6664C62.863 0.50286 63.8333 1.47324 63.8333 2.66985V8.66985C63.8332 9.86632 62.8629 10.8359 61.6664 10.8359H45.0003C43.8038 10.8359 42.8335 9.86632 42.8333 8.66985V2.66985C42.8333 1.47324 43.8037 0.50286 45.0003 0.50286Z" stroke="var(--stroke-0, black)"/>
<path id="Combined Shape" opacity="0.4" d="M65.3333 3.66953V7.66953C66.1381 7.33075 66.6614 6.54266 66.6614 5.66953C66.6614 4.79639 66.1381 4.0083 65.3333 3.66953" fill="var(--fill-0, black)"/>
<path id="Rectangle_2" d="M44.3333 3.33619C44.3333 2.59982 44.9303 2.00286 45.6667 2.00286H61C61.7364 2.00286 62.3333 2.59981 62.3333 3.33619V8.00286C62.3333 8.73924 61.7364 9.33619 61 9.33619H45.6667C44.9303 9.33619 44.3333 8.73924 44.3333 8.00286V3.33619Z" fill="var(--fill-0, black)"/>
</g>
<path id="Wifi" d="M27.4538 8.40057C28.7294 7.32168 30.5982 7.32168 31.8737 8.40057C31.9378 8.45859 31.9745 8.54074 31.9763 8.62713C31.978 8.71359 31.9443 8.79702 31.8825 8.8576L29.8855 10.8732C29.8269 10.9324 29.747 10.966 29.6638 10.966C29.5805 10.966 29.5007 10.9324 29.4421 10.8732L27.4441 8.8576C27.3825 8.797 27.3485 8.71351 27.3503 8.62713C27.3521 8.54068 27.3897 8.45855 27.4538 8.40057ZM24.7888 5.71111C27.5369 3.15507 31.7926 3.15512 34.5407 5.71111C34.6027 5.77097 34.6384 5.85351 34.6394 5.93963C34.6402 6.02581 34.6063 6.10892 34.5456 6.1701L33.3913 7.33709C33.2724 7.45619 33.0798 7.45884 32.9577 7.34295C32.0553 6.52576 30.8812 6.07337 29.6638 6.07342C28.4471 6.07392 27.2737 6.52628 26.3718 7.34295C26.2497 7.45877 26.0571 7.45617 25.9382 7.33709L24.7839 6.1701C24.7232 6.10903 24.6893 6.02572 24.6902 5.93963C24.6911 5.8535 24.7268 5.77095 24.7888 5.71111ZM22.1237 3.02947C26.3389 -1.0097 32.9889 -1.00995 37.2038 3.02947C37.2647 3.08942 37.299 3.17156 37.2995 3.25701C37.3 3.34257 37.2661 3.42481 37.2058 3.48553L36.0495 4.65252C35.9304 4.77199 35.7378 4.77324 35.6169 4.65545C34.011 3.12872 31.8796 2.27764 29.6638 2.27752C27.4477 2.27751 25.3158 3.12856 23.7097 4.65545C23.5889 4.77344 23.3961 4.77222 23.2771 4.65252L22.1208 3.48553C22.0606 3.42476 22.0265 3.34259 22.0271 3.25701C22.0277 3.1715 22.0627 3.08939 22.1237 3.02947Z" fill="var(--fill-0, black)"/>
<path id="Mobile Signal" d="M2 7.0031C2.55228 7.0031 3 7.45082 3 8.0031V10.0031C2.99982 10.5552 2.55218 11.0031 2 11.0031H1C0.447824 11.0031 0.000175969 10.5552 0 10.0031V8.0031C0 7.45082 0.447715 7.0031 1 7.0031H2ZM6.66699 5.0031C7.21913 5.00328 7.66699 5.45093 7.66699 6.0031V10.0031C7.66682 10.5551 7.21902 11.0029 6.66699 11.0031H5.66699C5.11482 11.0031 4.66717 10.5552 4.66699 10.0031V6.0031C4.66699 5.45082 5.11471 5.0031 5.66699 5.0031H6.66699ZM11.333 2.66912C11.8852 2.66912 12.3328 3.11699 12.333 3.66912V10.0031C12.3328 10.5552 11.8852 11.0031 11.333 11.0031H10.333C9.78098 11.0029 9.33318 10.5551 9.33301 10.0031V3.66912C9.33318 3.11709 9.78098 2.6693 10.333 2.66912H11.333ZM16 0.336112C16.5523 0.336112 17 0.783828 17 1.33611V10.0031C16.9998 10.5552 16.5522 11.0031 16 11.0031H15C14.4478 11.0031 14.0002 10.5552 14 10.0031V1.33611C14 0.783828 14.4477 0.336112 15 0.336112H16Z" fill="var(--fill-0, black)"/>
</g>
</svg>
