<svg xmlns="http://www.w3.org/2000/svg" width="67" height="12" viewBox="0 0 67 12">
  <!-- Signal bars — all solid -->
  <rect x="0" y="6" width="3" height="6" rx="0.5" fill="black"/>
  <rect x="4.5" y="4" width="3" height="8" rx="0.5" fill="black"/>
  <rect x="9" y="2" width="3" height="10" rx="0.5" fill="black"/>
  <rect x="13.5" y="0" width="3" height="12" rx="0.5" fill="black"/>
  <!-- WiFi -->
  <circle cx="29" cy="10.5" r="1" fill="black"/>
  <path d="M25.9 7.4a4.4 4.4 0 0 1 6.2 0" stroke="black" stroke-width="1.4" fill="none" stroke-linecap="round"/>
  <path d="M23.4 5a7.2 7.2 0 0 1 11.2 0" stroke="black" stroke-width="1.4" fill="none" stroke-linecap="round"/>
  <!-- Battery — all solid -->
  <rect x="41.5" y="0.5" width="21" height="11" rx="3" stroke="black" stroke-width="1" fill="none"/>
  <rect x="43" y="2" width="17" height="8" rx="1.5" fill="black"/>
  <path d="M63.5 4v4a2 2 0 0 0 0-4z" fill="black"/>
</svg>
